<svg xmlns="http://www.w3.org/2000/svg" xmlns:xlink="http://www.w3.org/1999/xlink" viewBox="0 0 516 516"><defs><style>.cls-1{isolation:isolate;}.cls-2{fill:url(#linear-gradient);}.cls-3{fill:url(#linear-gradient-2);}.cls-4{fill:url(#linear-gradient-3);}.cls-5{fill:url(#linear-gradient-4);}.cls-6{fill:url(#linear-gradient-5);}.cls-7,.cls-82{fill:#fce6da;}.cls-19,.cls-32,.cls-37,.cls-7{opacity:0.7;}.cls-8{fill:#e68888;}.cls-48,.cls-63,.cls-73,.cls-79,.cls-8{opacity:0.2;}.cls-9{fill:url(#linear-gradient-6);}.cls-10{fill:url(#linear-gradient-7);}.cls-11{fill:#c24000;}.cls-12{fill:#331626;}.cls-13{fill:#2b1723;}.cls-14{fill:#9c110c;}.cls-15{fill:#5e0700;}.cls-16{fill:url(#linear-gradient-8);}.cls-17,.cls-18,.cls-19,.cls-20{fill:#f85344;}.cls-17,.cls-25,.cls-34,.cls-38,.cls-52,.cls-65,.cls-72{opacity:0.5;}.cls-18,.cls-36,.cls-62{opacity:0.3;}.cls-21{fill:#2f353b;}.cls-22{fill:#2a231b;}.cls-23{fill:url(#linear-gradient-9);}.cls-24{fill:url(#linear-gradient-10);}.cls-25{fill:#434c54;}.cls-26{fill:#3b4854;}.cls-27{fill:#586570;}.cls-28{fill:#ec343b;}.cls-29{fill:url(#linear-gradient-11);}.cls-30{fill:url(#New_Gradient_Swatch_3);}.cls-31,.cls-40{fill:#730010;}.cls-32,.cls-33,.cls-34{fill:#ff8c91;}.cls-35{fill:url(#linear-gradient-12);}.cls-36{fill:#6c2508;}.cls-37{fill:#e1171b;}.cls-38{fill:#f74346;}.cls-39{fill:#ffc2a8;}.cls-40{opacity:0.4;}.cls-41{fill:url(#linear-gradient-13);}.cls-42{fill:#d93e00;}.cls-43{fill:#f79421;}.cls-44{fill:#eb6000;}.cls-45{fill:url(#linear-gradient-14);}.cls-46{fill:url(#linear-gradient-15);}.cls-47{fill:#452437;}.cls-48,.cls-50{fill:#87a0bd;}.cls-49{fill:url(#linear-gradient-16);}.cls-51{fill:#2e3d54;}.cls-52,.cls-53{fill:#132236;}.cls-54{fill:#819fc2;}.cls-55{fill:url(#linear-gradient-17);}.cls-56{fill:#a9bfd9;}.cls-57{fill:url(#linear-gradient-18);}.cls-58{fill:#616b8e;}.cls-59{fill:url(#linear-gradient-19);}.cls-60{fill:#263245;}.cls-61{fill:#693653;}.cls-62,.cls-63,.cls-65{fill:#6a6387;}.cls-64{fill:#804265;}.cls-66{fill:#d40000;}.cls-67{fill:#a10000;}.cls-68{fill:#e62f27;}.cls-69{fill:#edbcbd;}.cls-69,.cls-73{mix-blend-mode:multiply;}.cls-70{fill:url(#linear-gradient-20);}.cls-71{fill:url(#linear-gradient-21);}.cls-72{fill:#fff5e6;}.cls-73{fill:#6d1921;}.cls-74{fill:url(#linear-gradient-22);}.cls-75{fill:url(#linear-gradient-23);}.cls-76{fill:url(#linear-gradient-24);}.cls-77{opacity:0.55;fill:url(#linear-gradient-25);}.cls-78{fill:#590800;opacity:0.1;}.cls-79{fill:#ecb2ac;}.cls-80{fill:#ffc1c3;}.cls-81{opacity:0.6;}</style><linearGradient id="linear-gradient" x1="478.31" y1="136.42" x2="318.2" y2="411.08" gradientUnits="userSpaceOnUse"><stop offset="0" stop-color="#ebcfc4"/><stop offset="0.72" stop-color="#ebcfc4"/><stop offset="1" stop-color="#d59797"/></linearGradient><linearGradient id="linear-gradient-2" x1="274.84" y1="202.13" x2="159" y2="584.72" gradientUnits="userSpaceOnUse"><stop offset="0" stop-color="#91141a"/><stop offset="0.1" stop-color="#9b151c"/><stop offset="0.28" stop-color="#b71921"/><stop offset="0.51" stop-color="#e31f29"/><stop offset="0.6" stop-color="#f5222c"/><stop offset="1" stop-color="#f95355"/></linearGradient><linearGradient id="linear-gradient-3" x1="229.6" y1="220.1" x2="227.41" y2="119.36" gradientUnits="userSpaceOnUse"><stop offset="0" stop-color="#cf1400"/><stop offset="0.16" stop-color="#d01703"/><stop offset="0.29" stop-color="#d2220e"/><stop offset="0.42" stop-color="#d63320"/><stop offset="0.54" stop-color="#db4c39"/><stop offset="0.66" stop-color="#e26b59"/><stop offset="0.77" stop-color="#ea9281"/><stop offset="0.89" stop-color="#f4c0af"/><stop offset="1" stop-color="#fff3e4"/><stop offset="1" stop-color="#fff5e6"/></linearGradient><linearGradient id="linear-gradient-4" x1="96.43" y1="103.42" x2="356.06" y2="103.42" gradientUnits="userSpaceOnUse"><stop offset="0" stop-color="#e3b5ad"/><stop offset="1" stop-color="#e3c7b8"/></linearGradient><linearGradient id="linear-gradient-5" x1="83.1" y1="33.75" x2="146.01" y2="69.7" gradientUnits="userSpaceOnUse"><stop offset="0" stop-color="#fdd2cb"/><stop offset="0.53" stop-color="#ffb8b8"/><stop offset="1" stop-color="#e38f8f"/></linearGradient><linearGradient id="linear-gradient-6" x1="104.82" y1="142.48" x2="347.67" y2="142.48" gradientUnits="userSpaceOnUse"><stop offset="0" stop-color="#cf1400"/><stop offset="1" stop-color="#9e110e"/></linearGradient><linearGradient id="linear-gradient-7" x1="240.54" y1="186.07" x2="231.08" y2="244.27" gradientUnits="userSpaceOnUse"><stop offset="0" stop-color="#a30002"/><stop offset="1" stop-color="#712736"/></linearGradient><linearGradient id="linear-gradient-8" x1="270.46" y1="213.57" x2="324.46" y2="267.21" gradientTransform="translate(-1.64 -2.09) rotate(-0.47)" gradientUnits="userSpaceOnUse"><stop offset="0.16" stop-color="#e62f27"/><stop offset="1" stop-color="#9d1b1b"/></linearGradient><linearGradient id="linear-gradient-9" x1="288.5" y1="-59.6" x2="253.17" y2="-113.14" gradientTransform="translate(-4.47 109.49) rotate(8.02)" gradientUnits="userSpaceOnUse"><stop offset="0" stop-color="#8ec726"/><stop offset="0.23" stop-color="#88c022"/><stop offset="0.55" stop-color="#79ad16"/><stop offset="0.93" stop-color="#608d04"/><stop offset="1" stop-color="#5b8700"/></linearGradient><linearGradient id="linear-gradient-10" x1="-198.33" y1="-888.44" x2="-188.04" y2="-856.6" gradientTransform="matrix(0.51, 0.86, -0.86, 0.51, -370.64, 666.01)" gradientUnits="userSpaceOnUse"><stop offset="0" stop-color="#8ec726"/><stop offset="0.13" stop-color="#88c022"/><stop offset="0.32" stop-color="#79ad16"/><stop offset="0.55" stop-color="#608d04"/><stop offset="0.59" stop-color="#5b8700"/><stop offset="0.95" stop-color="#547c00"/><stop offset="1" stop-color="#537a00"/></linearGradient><linearGradient id="linear-gradient-11" x1="289.14" y1="110.89" x2="332.84" y2="160.84" gradientUnits="userSpaceOnUse"><stop offset="0" stop-color="#d6001d"/><stop offset="0.6" stop-color="#c0001a"/><stop offset="1" stop-color="#b80019"/></linearGradient><linearGradient id="New_Gradient_Swatch_3" x1="300.19" y1="124.55" x2="341.81" y2="180.74" gradientUnits="userSpaceOnUse"><stop offset="0" stop-color="#b80019"/><stop offset="0.22" stop-color="#ab0017"/><stop offset="0.7" stop-color="#940014"/><stop offset="1" stop-color="#8c0013"/></linearGradient><linearGradient id="linear-gradient-12" x1="177.38" y1="89.17" x2="204.72" y2="159.99" gradientUnits="userSpaceOnUse"><stop offset="0" stop-color="#e1171b"/><stop offset="1" stop-color="#b82423"/></linearGradient><linearGradient id="linear-gradient-13" x1="185.34" y1="60.27" x2="166.28" y2="73.1" gradientUnits="userSpaceOnUse"><stop offset="0" stop-color="#598f02"/><stop offset="1" stop-color="#74ba03"/></linearGradient><linearGradient id="linear-gradient-14" x1="181.45" y1="61.34" x2="184.41" y2="32.02" xlink:href="#linear-gradient-13"/><linearGradient id="linear-gradient-15" x1="-996.81" y1="712.63" x2="-1006.61" y2="763.54" gradientTransform="matrix(-0.91, 0.41, 0.41, 0.91, -982.53, -127.02)" gradientUnits="userSpaceOnUse"><stop offset="0" stop-color="#616b8e"/><stop offset="0.65" stop-color="#404d68"/><stop offset="1" stop-color="#2e3d54"/></linearGradient><linearGradient id="linear-gradient-16" x1="-527.24" y1="725.45" x2="-556.24" y2="681.97" gradientTransform="matrix(-0.43, 0.9, 0.9, 0.43, -609.21, 325.74)" xlink:href="#linear-gradient-15"/><linearGradient id="linear-gradient-17" x1="161.2" y1="-0.92" x2="187.02" y2="47.71" gradientTransform="translate(-4.34 83.09) rotate(9.35)" xlink:href="#linear-gradient-15"/><linearGradient id="linear-gradient-18" x1="191.55" y1="-10.4" x2="165.16" y2="4.4" gradientTransform="translate(-4.34 83.09) rotate(9.35)" gradientUnits="userSpaceOnUse"><stop offset="0" stop-color="#506082"/><stop offset="0.41" stop-color="#404d68"/><stop offset="1" stop-color="#2e3d54"/></linearGradient><linearGradient id="linear-gradient-19" x1="169.68" y1="-0.45" x2="189.47" y2="-7.85" gradientTransform="translate(-4.34 83.09) rotate(9.35)" gradientUnits="userSpaceOnUse"><stop offset="0" stop-color="#404d68"/><stop offset="1" stop-color="#616b8e"/></linearGradient><linearGradient id="linear-gradient-20" x1="279.1" y1="50.96" x2="279.09" y2="51.88" gradientUnits="userSpaceOnUse"><stop offset="0" stop-color="#fce6da"/><stop offset="1" stop-color="#fff5e6"/></linearGradient><linearGradient id="linear-gradient-21" x1="194.21" y1="53.39" x2="195.38" y2="155.49" xlink:href="#linear-gradient-20"/><linearGradient id="linear-gradient-22" x1="160.22" y1="53.78" x2="161.4" y2="155.88" xlink:href="#linear-gradient-20"/><linearGradient id="linear-gradient-23" x1="226.59" y1="53.01" x2="227.76" y2="155.12" gradientUnits="userSpaceOnUse"><stop offset="0" stop-color="#fce6da"/><stop offset="1" stop-color="#fce2d4"/></linearGradient><linearGradient id="linear-gradient-24" x1="285.55" y1="52.34" x2="286.73" y2="154.44" xlink:href="#linear-gradient-20"/><linearGradient id="linear-gradient-25" x1="152.1" y1="423.98" x2="242.52" y2="331.79" gradientUnits="userSpaceOnUse"><stop offset="0" stop-color="#ecb2ac"/><stop offset="1" stop-color="#ff4633"/></linearGradient></defs><title>Artboard 8</title><g class="cls-1"><g id="Layer_1" data-name="Layer 1"><path class="cls-2" d="M349.35,187.29s68.26,22.23,82.16,52.81c14.67,32.28,10.56,115,4.11,138.49S363.44,442,363.44,442l2.93-68.07S407.45,368,411,347.49,414.49,290,408,273.55s-53.41-25.82-53.41-25.82Z"/><path class="cls-3" d="M385.14,305.63C385.92,204.7,339,170.27,339,170.27l-18.47-.5-.3-5.76-104.63,2.88-76.12-2.09-.22,4.18-18.55.51S73.74,203.92,74.53,304.85,84.78,470.24,84.78,470.24C104.15,489.83,156,514.07,229,514c70.74-.07,125.25-22.34,146-41.61a5.44,5.44,0,0,0,.24-1.57S384.36,406.57,385.14,305.63Z"/><path class="cls-4" d="M91.19,103s-.44,46.33,11.8,68.19,65.56,35,128.5,35S340.32,185.58,347.75,176s16.1-46.37,15.26-71.26Z"/><path class="cls-5" d="M96.43,106C95.84,79.11,168.85,49.44,233.24,51c56.53,1.33,123,27.09,122.82,52.89-.16,26.08-68.42,50.56-125,52C169.84,157.43,97,132.7,96.43,106Z"/><path class="cls-6" d="M172.43,136.71,133.49,2,113.21,8.88l35.66,123A180.17,180.17,0,0,0,172.43,136.71Z"/><polygon class="cls-7" points="120.84 35.21 136.82 13.53 134.53 5.62 118.61 27.51 120.84 35.21"/><polygon class="cls-7" points="127.82 59.28 143.79 37.63 141.5 29.73 125.59 51.6 127.82 59.28"/><polygon class="cls-7" points="134.7 83.01 150.65 61.37 148.36 53.46 132.47 75.32 134.7 83.01"/><path class="cls-8" d="M158.71,134.31c4.53.94,9.12,1.68,13.72,2.4L133.49,2l-5.56,1.88C141.34,45.82,158.76,104.19,158.71,134.31Z"/><path class="cls-9" d="M104.82,145c-.55-25.9,67.74-54.45,128-53,52.88,1.28,115,26.07,114.88,50.89-.05,7.86-6.35,15.58-16.6,22.5-22.48,15.19-64,26.6-100.33,27.55-36.92,1-78.37-8.58-103.29-22.37C113.73,163,105,154.1,104.82,145Z"/><path class="cls-10" d="M229.58,163.77c16-4.15,34.09-3.38,43.39,10.83,15.12,23.13,5.52,58.82-18.09,66.26-30.83,9.72-60.92-17.12-58.56-44.69C197.71,179.86,214.13,167.77,229.58,163.77Z"/><g id="_Group_" data-name="&lt;Group&gt;"><path id="_Path_" data-name="&lt;Path&gt;" class="cls-11" d="M251.09,225.61c2.3-1.47-1.89-6.38-3.2-5.65C246.78,220.59,248,227.57,251.09,225.61Z"/></g><g id="_Group_2" data-name="&lt;Group&gt;"><path id="_Path_2" data-name="&lt;Path&gt;" class="cls-11" d="M240.52,211.58c2.48-1.17-1.42-6.76-2.57-6S237.07,213.22,240.52,211.58Z"/></g><g id="_Group_3" data-name="&lt;Group&gt;"><path id="_Path_3" data-name="&lt;Path&gt;" class="cls-11" d="M207.66,208.43c2.67-.45.81-6.76-.67-6.6C205.73,202,204.11,209,207.66,208.43Z"/></g><g id="_Group_4" data-name="&lt;Group&gt;"><path id="_Path_4" data-name="&lt;Path&gt;" class="cls-11" d="M225.52,201.32c2.46-1.14-1-6.74-2.39-6.19C222,195.59,222.25,202.83,225.52,201.32Z"/></g><g id="_Group_5" data-name="&lt;Group&gt;"><path id="_Path_5" data-name="&lt;Path&gt;" class="cls-11" d="M253.91,179.75c2.55-1.31-2-7.09-3.44-6.36C249.29,174,251,181.24,253.91,179.75Z"/></g><g id="_Group_6" data-name="&lt;Group&gt;"><path id="_Path_6" data-name="&lt;Path&gt;" class="cls-11" d="M237.11,185.19c3.09-1.5-1.82-6.77-3.18-6S234,186.67,237.11,185.19Z"/></g><g id="_Group_7" data-name="&lt;Group&gt;"><path id="_Path_7" data-name="&lt;Path&gt;" class="cls-11" d="M261.13,212.88c1.9-2-3.3-5.78-4.41-4.76C255.78,209,258.61,215.49,261.13,212.88Z"/></g><g id="_Group_8" data-name="&lt;Group&gt;"><path id="_Path_8" data-name="&lt;Path&gt;" class="cls-11" d="M251.65,196.34c2.52-1.59-1.87-6.15-3-5.43C247.38,191.77,248.85,198.09,251.65,196.34Z"/></g><g id="_Group_9" data-name="&lt;Group&gt;"><path id="_Path_9" data-name="&lt;Path&gt;" class="cls-11" d="M262.51,197.37c2.74-1.16-.88-6.36-2.08-5.82C259,192.2,259.47,198.67,262.51,197.37Z"/></g><g id="_Group_10" data-name="&lt;Group&gt;"><path id="_Path_10" data-name="&lt;Path&gt;" class="cls-11" d="M269.73,184.49c2.26-1.93-2.75-5.8-3.73-4.92C264.84,180.6,267.22,186.64,269.73,184.49Z"/></g><g id="_Group_11" data-name="&lt;Group&gt;"><path id="_Path_11" data-name="&lt;Path&gt;" class="cls-11" d="M234.75,227.37c2.6-1.45-1.55-6.24-2.68-5.57C230.73,222.59,231.87,229,234.75,227.37Z"/></g><g id="_Group_12" data-name="&lt;Group&gt;"><path id="_Path_12" data-name="&lt;Path&gt;" class="cls-11" d="M219.29,218c3-1.15-1.11-6.51-2.24-6C216.1,212.38,216.2,219.23,219.29,218Z"/></g><g id="_Group_13" data-name="&lt;Group&gt;"><path id="_Path_13" data-name="&lt;Path&gt;" class="cls-12" d="M228,242.83s-9-12.55-12.33-11.22,1,10,1,10-9.62-1.86-11.71,1.69,6.52,7.77,6.52,7.77-7.42,2.48-6,5.5,16.6,3.75,16.6,3.75Z"/><path class="cls-13" d="M254.58,232c-15-5-33.52,3.34-38.4,19.94-7.11,24.19,18.27,44.8,42.06,34.14C282.58,275.22,278.81,240.14,254.58,232Z"/></g><g id="_Group_14" data-name="&lt;Group&gt;"><path id="_Path_14" data-name="&lt;Path&gt;" class="cls-12" d="M345.38,263.62s6.45-14.55,10.12-13.9,1.05,10.35,1.05,10.35,9.34-3.89,12.19-.73-5,9.21-5,9.21,8,1,7.2,4.31-16,7.25-16,7.25Z"/><path class="cls-13" d="M348.16,256.43c-14.23-8-34.63-3-42.77,12.86-9.73,19,3.36,42,24.54,43.72,12.93,1.06,27.32-5.94,32.05-18.52C367,281.05,360.62,263.4,348.16,256.43Z"/></g><g id="_Group_15" data-name="&lt;Group&gt;"><g id="_Group_16" data-name="&lt;Group&gt;"><path id="_Path_15" data-name="&lt;Path&gt;" class="cls-14" d="M292.5,253.16c-5.13-1.3-10.4,2.72-12,7.59-1.56,4.68,0,10.91,4.78,13.07,5.19,2.36,11.73-1.23,13.71-6.6C301,261.68,298.08,254.57,292.5,253.16Z"/><path id="_Path_16" data-name="&lt;Path&gt;" class="cls-14" d="M302.8,277.42c5.26-.51,8.87-6.08,8.75-11.21-.12-4.93-3.71-10.26-8.92-10.68C297,255.06,292,260.65,292,266.37,291.91,272.27,297.07,278,302.8,277.42Z"/><path id="_Path_17" data-name="&lt;Path&gt;" class="cls-15" d="M316.53,221.83c-12.08-.81-22.92,9.11-23.37,21.34-.47,12.94,10.84,23.57,23,23,10-.46,18.55-8.34,20.32-17.91C338.79,236.07,329.73,222.73,316.53,221.83Z"/><path class="cls-16" d="M343.78,239a9.26,9.26,0,0,0,2.08-7.7c-1.1-5.17-7.05-8.12-12.13-7.42l-.4.07c1.75-4.77.22-10.74-4.21-13a8.64,8.64,0,0,0-5.58-.73,11.45,11.45,0,0,0-3.77-5.36,11.58,11.58,0,0,0-12.22-.94,11.63,11.63,0,0,0-7.54-6.07,11.42,11.42,0,0,0-12.19,5.19c-4.71-3.19-11.95-2.39-14.86,2.35a8.8,8.8,0,0,0-1,6.4c-4.06-.73-8.46.63-10.57,4.08-1.86,3-1.42,6.87.34,10a9.57,9.57,0,0,0-6.2,6.45c-.91,3.71,1,7.47,3.93,9.87A8.6,8.6,0,0,0,258,247c0,4.49,3.81,8.11,8.09,9.31a7.77,7.77,0,0,0-.07,1c0,5.29,5.21,9.41,10.32,9.78a11.54,11.54,0,0,0,10.4-5l.13-.07a8.48,8.48,0,0,0,.83,4.53c2.38,4.72,8.89,6.06,13.62,4.09a11.57,11.57,0,0,0,2.09-1.16c1.19,4.12,5.59,7.32,9.92,7.75,4.48.45,9.92-2,11.34-6.54,3.67,1.69,8.47,1.35,11.55-1.37A10,10,0,0,0,338.68,258a11.34,11.34,0,0,0,7.23-5.09C348.52,248.58,348,242.06,343.78,239ZM319.88,260a11.39,11.39,0,0,0-4.18-1.68,11.89,11.89,0,0,0-7.46,1.25,7.63,7.63,0,0,0-.25-1.13c-1.08-3.65-4.57-6-8.36-6.56.08-.14.17-.26.25-.4a9.82,9.82,0,0,0-.94-10,8.2,8.2,0,0,0,3.31-1.53,9.42,9.42,0,0,0,3.4-7.86,8.44,8.44,0,0,0,4.88.06,9,9,0,0,0,5.22-4.37,8,8,0,0,0,1.68,1.77,9.17,9.17,0,0,0,7.15,1.57,8.18,8.18,0,0,0-.45,2.93c.12,3.63,2.64,6.67,5.92,8.25l-.31.45a11.42,11.42,0,0,0-.82,9.64,9.76,9.76,0,0,0-2.35.44A10.6,10.6,0,0,0,319.88,260Z"/><path id="_Path_18" data-name="&lt;Path&gt;" class="cls-17" d="M289,239.21c-2.87-.05-6.17,1.91-6.42,4.75-.26,3.07,3.18,5.9,6.5,5.81,3.12-.08,6.37-2.73,6.12-5.77C295,241.13,291.74,239.25,289,239.21Z"/><path id="_Path_19" data-name="&lt;Path&gt;" class="cls-17" d="M311.59,216.5c-1.8-2.83-6.06-4-8.59-2s-2.21,6.53.08,8.92c1.68,1.76,4.82,2.81,7.18,1.34C312.91,223.07,313.22,219.06,311.59,216.5Z"/><path id="_Path_20" data-name="&lt;Path&gt;" class="cls-17" d="M288.4,225.08c-1.84,2.5-.62,6.37,1.81,8.21,2.6,2,6.94,1.91,8.74-.77,1.66-2.48.41-6.08-1.81-7.86C294.64,222.66,290.32,222.47,288.4,225.08Z"/><path id="_Path_21" data-name="&lt;Path&gt;" class="cls-17" d="M326.08,213.41a5.42,5.42,0,0,0-6.63,1.62c-1.8,2.31-1.62,6.19.94,7.87s6.06.41,7.5-2.16S328.62,214.79,326.08,213.41Z"/><path id="_Path_22" data-name="&lt;Path&gt;" class="cls-18" d="M332.84,227.17a4.13,4.13,0,0,0-3.63,4.4,4.26,4.26,0,0,0,5.44,3.28,4.08,4.08,0,0,0,2.77-4.22A4.14,4.14,0,0,0,332.84,227.17Z"/><path id="_Path_23" data-name="&lt;Path&gt;" class="cls-18" d="M334.2,243.25a4.15,4.15,0,0,0-3.64,4.4,4.27,4.27,0,0,0,5.45,3.28,4.07,4.07,0,0,0,2.76-4.22A4.13,4.13,0,0,0,334.2,243.25Z"/><path id="_Path_24" data-name="&lt;Path&gt;" class="cls-18" d="M328,256.07a4.14,4.14,0,0,0-3.64,4.4,4.27,4.27,0,0,0,5.45,3.28,4.08,4.08,0,0,0,2.76-4.22A4.13,4.13,0,0,0,328,256.07Z"/><path id="_Path_25" data-name="&lt;Path&gt;" class="cls-18" d="M313.1,260.68a4.14,4.14,0,0,0-3.64,4.4,4.28,4.28,0,0,0,5.45,3.28,4.08,4.08,0,0,0,2.76-4.22A4.13,4.13,0,0,0,313.1,260.68Z"/><path id="_Path_26" data-name="&lt;Path&gt;" class="cls-18" d="M297.75,254.75a4.14,4.14,0,0,0-3.64,4.4,4.27,4.27,0,0,0,5.45,3.28,4.07,4.07,0,0,0,2.76-4.22A4.13,4.13,0,0,0,297.75,254.75Z"/><path id="_Path_27" data-name="&lt;Path&gt;" class="cls-17" d="M275.73,247.39c-2.31-.18-5.06,1.2-5.47,3.31-.49,2.55,2.62,5.44,5.69,5.45,2.12,0,4.66-1.35,5-3.46C281.41,250.16,278.54,247.6,275.73,247.39Z"/><path id="_Path_28" data-name="&lt;Path&gt;" class="cls-17" d="M273.88,232.71c-2.32-.17-5.07,1.21-5.47,3.32-.49,2.55,2.62,5.43,5.69,5.45,2.11,0,4.65-1.35,5-3.46C279.56,235.49,276.69,232.93,273.88,232.71Z"/><path id="_Path_29" data-name="&lt;Path&gt;" class="cls-17" d="M279.76,218.54c-2.11-.55-5,.4-5.65,2.67s1.12,4.4,2.95,5.23c2.17,1,5.22.4,6.21-1.57C284.39,222.63,282.49,219.26,279.76,218.54Z"/><path id="_Path_30" data-name="&lt;Path&gt;" class="cls-19" d="M291.18,208.19c-2.24-1.8-6.11-1.39-7.38.92-1,1.83-.1,4.3,1.37,5.62,2,1.78,5.63,2.06,7.24-.06C293.85,212.76,293.05,209.69,291.18,208.19Z"/><path id="_Path_31" data-name="&lt;Path&gt;" class="cls-19" d="M300.87,201c-2-1.63-5.51-1.55-6.82.43-1.09,1.67-.27,4.05.91,5.38,1.74,1.94,5.25,2.74,7,1S302.94,202.61,300.87,201Z"/><path id="_Path_32" data-name="&lt;Path&gt;" class="cls-20" d="M267.6,215c-1.29-.62-3.29.58-4.15,2.11-.68,1.22-1,3.36.21,4.34s3.31.27,4.33-.9C269.47,218.82,269.1,215.69,267.6,215Z"/><path id="_Path_33" data-name="&lt;Path&gt;" class="cls-20" d="M260.07,230.48c-1.23,0-2.34,1.29-2.63,2.53-.43,1.83.78,4.14,2.39,4.25,1.27.08,2.47-1.23,2.78-2.53C263.05,232.84,261.68,230.52,260.07,230.48Z"/><path id="_Path_34" data-name="&lt;Path&gt;" class="cls-20" d="M263,244.35c-1.18.06-2.23,2-1.88,3.66.28,1.28,1.5,2.63,2.63,2.41s1.64-1.93,1.54-3.14C265.13,245.87,264.07,244.29,263,244.35Z"/></g></g><path class="cls-21" d="M278.12,113.78a13.19,13.19,0,0,0,3.48-9,6.19,6.19,0,0,0,5.87-3.72c1.61-3.4.65-6.54-1.24-9.26,2.52-1.09,4.63-2.81,5.36-5.33,1-3.58-1.79-5.86-5.12-7.24a9.9,9.9,0,0,0,1.06-7,9.74,9.74,0,0,0-5.41-7,11.08,11.08,0,0,0-.11-6.19,10.67,10.67,0,0,0-10.64-7.63c.78-3,.69-5.86-2.37-8.25A9.81,9.81,0,0,0,259.47,42c-1.16-4-3.42-7.36-7.84-8.57a9.42,9.42,0,0,0-10.48,4,12.58,12.58,0,0,0-10-1.79,7.38,7.38,0,0,0-5.54,7.13,12.15,12.15,0,0,0-11,4A9.12,9.12,0,0,0,213,54.23c-3.85,0-7.29,1.73-8.27,6.35a9.7,9.7,0,0,0,.42,5.57c-4.17.89-8.41,4-8.74,7.81-.22,2.56,1,5,2.94,7.17-4.12,2.52-6.95,6.92-5,12a12.18,12.18,0,0,0,6,6.5c-2.93,2.75-4.44,6.52-1.8,10.66,2.28,3.58,5.83,4.78,9.52,4.6a7.56,7.56,0,0,0,.05,4.24c1,3.1,3.8,4.66,6.92,4.74a12.78,12.78,0,0,0,5.14-1,9.66,9.66,0,0,0,9.83,5.11,11.44,11.44,0,0,0,7.24-3.57A10.38,10.38,0,0,0,248,126.05a12.4,12.4,0,0,0,5.12-4.08,13,13,0,0,0,12.77-3.43l.21-.24C270.28,119.06,275.31,116.83,278.12,113.78Z"/><path class="cls-22" d="M286.47,79.23a9.9,9.9,0,0,0,1.06-7,9.74,9.74,0,0,0-5.41-7,11.08,11.08,0,0,0-.11-6.19,10.67,10.67,0,0,0-10.64-7.63c.78-3,.69-5.86-2.37-8.25a9.48,9.48,0,0,0-8.28-1.59,7.24,7.24,0,0,1-.34,1.6c3.34,1.8,6.35,4.46,7.55,8.15a9.54,9.54,0,0,1-2.53,9.8,10.93,10.93,0,0,1-4,2.4,10.58,10.58,0,0,1-2.89,10,9.55,9.55,0,0,1-5.37,2.48c0,1.16,2.82,6.92-3,11.56-2.18,1.73-7.27,1.11-9.83.21-.74,2.15-1.78,5-3.47,6.44a8.74,8.74,0,0,1-10.41.61A9,9,0,0,1,222.51,89a12.3,12.3,0,0,1-9,1.73,9.19,9.19,0,0,1-7.05-6.39v0a11,11,0,0,1-6-1.12,10.69,10.69,0,0,1-2.07-1.42c-3.12,2.26-5.23,5.68-4.52,9.61a4.51,4.51,0,0,1,.72-1.21A4.49,4.49,0,0,1,198.29,87,4.47,4.47,0,0,1,203,89.52a5,5,0,0,1,.65,1.11,4.48,4.48,0,0,1,.58,4.55,5.32,5.32,0,0,1-1.49,2,4.71,4.71,0,0,1-1.58,1.66,3.72,3.72,0,0,1-1.38.52l.47.27c-2.93,2.75-4.44,6.52-1.8,10.66a9.51,9.51,0,0,0,3.73,3.44,4.73,4.73,0,0,1-2.09-3.8,6.6,6.6,0,0,1,.69-3,4.69,4.69,0,0,1,5.25-2.23,4.78,4.78,0,0,1,3.54,4.49c0,.19,0,.38,0,.58v.3a4.63,4.63,0,0,1-4.55,4.55,3.44,3.44,0,0,1-1.15-.16,12.2,12.2,0,0,0,4.1.46,7.56,7.56,0,0,0,.05,4.24,6.33,6.33,0,0,0,1.31,2.33v-.08a4.55,4.55,0,1,1,9.09,0v.86a4.3,4.3,0,0,1-.2,1.25,15.44,15.44,0,0,0,1.86-.59,9.66,9.66,0,0,0,9.83,5.11,11.44,11.44,0,0,0,7.24-3.57A10.38,10.38,0,0,0,248,126.05a12.4,12.4,0,0,0,5.12-4.08,13,13,0,0,0,12.77-3.43l.21-.24c4.16.76,9.19-1.47,12-4.52a13.19,13.19,0,0,0,3.48-9,6.19,6.19,0,0,0,5.87-3.72c1.61-3.4.65-6.54-1.24-9.26,2.52-1.09,4.63-2.81,5.36-5.33C292.62,82.89,289.8,80.61,286.47,79.23Zm-54.16,39.53c0,5.86-9.1,5.85-9.1,0v-.15c0-5.86,9.1-5.85,9.1,0ZM247.14,117a2.45,2.45,0,0,1-.35.29,4.88,4.88,0,0,1-3.25,1.43,4.61,4.61,0,0,1-4.55-4.55A5,5,0,0,1,240.9,110a4.47,4.47,0,0,1,4-.82,5.7,5.7,0,0,1,2.28,1.33C249.11,112.14,248.66,115.31,247.14,117Zm2.56-17.84a4.87,4.87,0,0,1-3.24.65c-4.31-.75-5.36-6.45-.71-7.63,2.47-.63,5.41.38,5.94,3.17A3.73,3.73,0,0,1,249.7,99.13Zm7.16-18.37a5,5,0,0,1,.45-1,4.64,4.64,0,0,1,2-2.34l.15-.09a.75.75,0,0,1,.12-.07l.1,0a4.84,4.84,0,0,1,2.07-.55,3.4,3.4,0,0,1,1,.12,4,4,0,0,1,1.19.47l.21.14,0,0a4.61,4.61,0,0,1,.55.44l.07.06.05.06a4.25,4.25,0,0,1,.46.57h0A4,4,0,0,1,266,80c0,.07,0,.14,0,.22a4.05,4.05,0,0,1,0,.7,16.78,16.78,0,0,1-.51,2.83c.05-.3.09-.61.13-.92a4.76,4.76,0,0,1-1.34,3c-.09.12-.17.24-.27.36-1.53,1.86-4.51,1.46-6.09,0a4.34,4.34,0,0,1-1.27-3,3.11,3.11,0,0,1,0-.32A4.49,4.49,0,0,1,256.86,80.76Z"/><path class="cls-23" d="M278,54.06s5.49,3.66,15.94-3c0,0-.3,11.65-10.92,13.69a27,27,0,0,0,13.62,2.06s-7.48,13.88-19.12,2.79a29.78,29.78,0,0,0,3.25,11.29s-14.2.3-11.23-13.79c0,0-6.45,5.79-15-1.11,0,0,6.54-4.14,9.72-6,0,0-12.07-1.49-12.32-11.89,0,0,8,4.27,11.72,5.07,0,0-10.28-6.9-2.26-17.57l8.32,14.28s-2.19-5.3,5.87-12.8C275.57,37,280.35,45.56,278,54.06Z"/><path class="cls-24" d="M270.73,55.92s12.21-3.25,17.08-15.8l2.66,1.32s-6,12.29-16.49,20.06A6.12,6.12,0,0,1,270.73,55.92Z"/><path class="cls-25" d="M242.87,52.5a7.56,7.56,0,0,0,4.66-7.3,9.19,9.19,0,0,0-5.69-7.82,2.91,2.91,0,0,1-.41-.24c-.09.12-.2.23-.28.36a12.58,12.58,0,0,0-10-1.79,7.38,7.38,0,0,0-5.54,7.13,12.15,12.15,0,0,0-11,4A9.12,9.12,0,0,0,213,54.23c-3.85,0-7.29,1.73-8.27,6.35a9.7,9.7,0,0,0,.42,5.57,14.45,14.45,0,0,0-2.07.63,9.84,9.84,0,0,0,7.44,4.67c4,.28,6.68-2.2,7.32-6.1a12.82,12.82,0,0,0,4.18,4c5.27,2.86,10.37-1.58,10-7.19.11,1.75,4.25.86,5.42.78C245.14,62.38,243.08,55.45,242.87,52.5Z"/><path class="cls-26" d="M240.25,79.48a4.42,4.42,0,0,0-2.52-3.81c-4-2-7.94,2.58-6.91,6.39a4.48,4.48,0,0,0,4.45,3.19A5.54,5.54,0,0,0,240.25,79.48Z"/><path class="cls-26" d="M224.46,78.76a3.83,3.83,0,0,0-4.64-2.52,4,4,0,0,0-2.89,3.8,4,4,0,0,0,2.89,3.81c2.51.85,4.27-1.19,4.75-3.48A2.93,2.93,0,0,0,224.46,78.76Z"/><path class="cls-26" d="M252.14,67.84a5,5,0,0,0-2.74-4.17,4.84,4.84,0,0,0-4.53,0c-5.77,3.24-.12,12.49,5.4,8.2A4.68,4.68,0,0,0,252.14,67.84Z"/><path class="cls-27" d="M223.76,47.75c-3.09-1.25-7.07.69-6.42,4.38a4.33,4.33,0,0,0,3.13,3.36C225.45,56.73,228.91,49.83,223.76,47.75Z"/><path class="cls-27" d="M239.24,42.11c-1.56-4.82-9.49-2.94-8.15,2.34a4.43,4.43,0,0,0,3.37,3.17A4.3,4.3,0,0,0,239.24,42.11Z"/><path class="cls-27" d="M237.45,62.89c.72-2.8-.73-6.09-4.36-5.75s-6.46,3.91-4.13,7.39a4.69,4.69,0,0,0,8.49-1.64Z"/><path class="cls-27" d="M217.67,60.93c-5.45,0-5.45,8.47,0,8.47S223.13,60.93,217.67,60.93Z"/><path class="cls-27" d="M244.2,47.72c-4.13,0-4.13,6.41,0,6.41S248.33,47.72,244.2,47.72Z"/><g id="_Group_17" data-name="&lt;Group&gt;"><path id="_Compound_Path_" data-name="&lt;Compound Path&gt;" class="cls-28" d="M296.09,167.79a10.31,10.31,0,0,1-5.75-5,7.6,7.6,0,0,1-8.11.4,8.5,8.5,0,0,1-4-6.1c0-.07,0-.14,0-.21l-.21-.12a7.24,7.24,0,0,1-6.41.16c-1.2-.65-5.06-4.83-3.21-9.42-9.88,1.6-12.4-7.62-11.1-11.22-8-2.69-9-13.18-4.35-17.68-2.58-4.41-2.89-7.27-2-10.08,2.22-6.77,7.65-7.2,11.7-6.4.06-.06-1.66-8.51,4-13.2,3.5-2.89,10.9-2.91,13.69.25a12.61,12.61,0,0,1,8.11-7.62c4.27-1.08,8.58.17,10.59,3.52,1.52-4.33,6.76-6.84,11.15-5.87a12.54,12.54,0,0,1,8.69,8.37c3.24-1.38,7.58-.54,10.33,1.51,3.68,2.73,5.57,8.66,3.39,12.86.16.3,6.85.48,8.1,7.84.84,4.92-.95,9.53-4.44,11.7,1.32.24,6,5,4.35,12.68-1,4.86-3.83,7.47-7.87,8.46,2.24,3.51,2.63,7.75-.27,11a10.36,10.36,0,0,1-11,2.76c-.66,5.08-1.68,8.2-6.84,9.08a14.7,14.7,0,0,1-8-1C304.56,167.67,300.53,169.15,296.09,167.79Z"/><path id="_Compound_Path_2" data-name="&lt;Compound Path&gt;" class="cls-28" d="M296.09,167.79a10.31,10.31,0,0,1-5.75-5,7.6,7.6,0,0,1-8.11.4,8.5,8.5,0,0,1-4-6.1c0-.07,0-.14,0-.21l-.21-.12a7.24,7.24,0,0,1-6.41.16c-1.2-.65-5.06-4.83-3.21-9.42-9.88,1.6-12.4-7.62-11.1-11.22-8-2.69-9-13.18-4.35-17.68-2.58-4.41-2.89-7.27-2-10.08,2.22-6.77,7.65-7.2,11.7-6.4.06-.06-1.66-8.51,4-13.2,3.5-2.89,10.9-2.91,13.69.25a12.61,12.61,0,0,1,8.11-7.62c4.27-1.08,8.58.17,10.59,3.52,1.52-4.33,6.76-6.84,11.15-5.87a12.54,12.54,0,0,1,8.69,8.37c3.24-1.38,7.58-.54,10.33,1.51,3.68,2.73,5.57,8.66,3.39,12.86.16.3,6.85.48,8.1,7.84.84,4.92-.95,9.53-4.44,11.7,1.32.24,6,5,4.35,12.68-1,4.86-3.83,7.47-7.87,8.46,2.24,3.51,2.63,7.75-.27,11a10.36,10.36,0,0,1-11,2.76c-.66,5.08-1.68,8.2-6.84,9.08a14.7,14.7,0,0,1-8-1C304.56,167.67,300.53,169.15,296.09,167.79Z"/><path class="cls-29" d="M336.27,121.47c3.49-2.17,5.28-6.78,4.44-11.7-1.25-7.36-7.94-7.54-8.1-7.84,2.18-4.2.29-10.13-3.39-12.86-2.75-2-7.09-2.89-10.33-1.51a12.54,12.54,0,0,0-8.69-8.37c-4.39-1-9.63,1.54-11.15,5.87-2-3.35-6.32-4.6-10.59-3.52a11.09,11.09,0,0,0-3.84,1.95c5.61-1,10.94,10.66-2.07,16.39,1.83,1.52,3.72,5,3.25,7.48-.4,2.11-4.21,4.28-6.28,3.39a6.41,6.41,0,0,1,3.51,7.31c-.78,2.84-3.76,3.69-6.82,3,.71,1.66,1.15,6.1-1.52,8-2.92,2.09-7.76.76-9.92-2.16-.36-.5-2.47-3.17-2.35-3.75-.91,4.34-3.34,9.23-5.15,13.06-1.41,4.67,1.94,12.7,11.1,11.22-1.85,4.59,2,8.77,3.21,9.42a7.24,7.24,0,0,0,6.41-.16l.21.12c0,.07,0,.14,0,.21a8.5,8.5,0,0,0,4,6.1,7.6,7.6,0,0,0,8.11-.4,10.31,10.31,0,0,0,5.75,5c4.44,1.36,8.47-.12,10.54-3.32a14.7,14.7,0,0,0,8,1c5.16-.88,6.18-4,6.84-9.08a10.36,10.36,0,0,0,11-2.76c2.9-3.29,2.51-7.53.27-11,4-1,6.84-3.6,7.87-8.46C342.26,126.46,337.59,121.71,336.27,121.47ZM289,133.32c-4.74,4.41-10.51-6.16-2.57-7l.25,0a3.64,3.64,0,0,1,3.63,3.63A5.17,5.17,0,0,1,289,133.32Zm3.31-13.85a4.39,4.39,0,0,1-3.28,1.85,3.66,3.66,0,0,1-3.63-3.63,7.37,7.37,0,0,1,.87-3.77,5.16,5.16,0,0,1,4.32-2.45C294.43,111.25,294.57,116.55,292.34,119.47Zm-2.64-14.22c-1.49-1.54-1.16-4.14.63-5.86,2.33-2.23,6.61,0,6.82,3s-2.9,4.61-5.52,3.94A4,4,0,0,1,289.7,105.25ZM301.28,94A3.45,3.45,0,0,1,298,95.5c-4.93-.21-5-6.71-.23-7.34C301.05,87.73,302.69,91.75,301.28,94Zm13-2.85c-1.6,2.58-5.13,2.43-7.07.34a4.13,4.13,0,0,1,1.51-6.66C312.45,83.27,316.45,87.62,314.24,91.17Z"/><path class="cls-30" d="M336.27,121.47c3.49-2.17,5.28-6.78,4.44-11.7-1.25-7.36-7.94-7.54-8.1-7.84-.26-.48.95-4.68.77-5.82a11.23,11.23,0,0,0-2.5-5.48c-3.18-3.65-8.07-3.42-9.38,1.91a6.55,6.55,0,0,0,1.55,5.94,15.69,15.69,0,0,0-5.28-3.63c-2-.68-4.59-.35-5.9,1.35a5.3,5.3,0,0,0-.69,4.48,15.61,15.61,0,0,0,2,4.2c-3.27-3.32-10.21-1.79-12.48,2.05-2.4,4.07.1,10.12,4.68,11.3a8.82,8.82,0,0,0-1.68,17.4c-2.39-.94-6.59,2.63-6.2,7.3.53,6.41-10,4.87-10.24-2.16-3.46,4.7-9.2,6-11.42-.88-1.07,1.81-8.47,5.83-9.46-3.08-4,.43-6.79,3.26-9.12-.54-1.3,3.6,1.22,12.82,11.1,11.22-1.85,4.59,2,8.77,3.21,9.42a7.24,7.24,0,0,0,6.41-.16l.21.12c0,.07,0,.14,0,.21a8.5,8.5,0,0,0,4,6.1,7.6,7.6,0,0,0,8.11-.4,10.31,10.31,0,0,0,5.75,5c4.44,1.36,8.47-.12,10.54-3.32a14.7,14.7,0,0,0,8,1c5.16-.88,6.18-4,6.84-9.08a10.36,10.36,0,0,0,11-2.76c2.9-3.29,2.51-7.53.27-11,4-1,6.84-3.6,7.87-8.46C342.26,126.46,337.59,121.71,336.27,121.47Zm-31.82-8.58c-4.6-5.93,8.71-7.55,5.35-.22C308.52,115.46,305.85,114.69,304.45,112.89Zm-1.7,17.34a4.44,4.44,0,0,1-.63-1.62,3.38,3.38,0,0,1-.55-1,3,3,0,0,1,2.05-3.61,5.51,5.51,0,0,1,1.45-.16,4.18,4.18,0,0,1,1.12.12l.11,0a4.65,4.65,0,0,1,2.36,1.44,5.76,5.76,0,0,1,1.18,5.29,3,3,0,0,1-3.62,2.05A6.44,6.44,0,0,1,302.75,130.23Zm4,18.43a3.61,3.61,0,0,1-3.66,0c-2.74-1.79-2.11-7.37,1.57-7.54S310.2,146.64,306.75,148.66Zm14.76-44c-1.44,2.66-4.62,1.76-5.92-.54-1.64-2.9,1.11-7,4.57-5.46C322.31,99.56,322.51,102.76,321.51,104.61Zm14.21,7.69c-.67,3-3.27,6-6.67,3.88-4.74-3-.34-8.58,4-8.71C335.55,107.4,336.25,109.87,335.72,112.3Z"/><path id="_Path_35" data-name="&lt;Path&gt;" class="cls-31" d="M322.86,109.36s-2.73,9.63,4.67,13.34a13.2,13.2,0,0,0-2.94,17.11,7.76,7.76,0,0,0-7.89,6.92s-.73-4.91-7.92-7c0,0,11-8.36,1-17.48,0,0,6.12-3.78,4.39-10.74C314.14,111.53,319.42,115,322.86,109.36Z"/></g><path class="cls-32" d="M284.24,95.05c0-.09.07-.17.1-.25,1-2.77-3.12-4.61-5.1-3a3.2,3.2,0,0,0-.92,4C279.78,98,283.18,97.43,284.24,95.05Z"/><path class="cls-33" d="M261.12,109.14a3.49,3.49,0,0,0-3-1.76,3.2,3.2,0,0,0-2.86,1.64c-.06.12-.11.24-.16.37a3.1,3.1,0,0,0-.38.82,3.39,3.39,0,0,0,.33,2.55c.88,1.36,3,2.3,4.53,1.18l.37-.28a3.48,3.48,0,0,0,1.52-2A3.7,3.7,0,0,0,261.12,109.14Z"/><path class="cls-32" d="M276.31,101.43c-3.38-3.1-7.85,1.94-4.56,5S279.55,104.4,276.31,101.43Z"/><path class="cls-32" d="M267.82,94.3a2.11,2.11,0,0,0-2.44,1.59l0,.21a2.06,2.06,0,0,0,4,.84l0-.2A2.08,2.08,0,0,0,267.82,94.3Z"/><path class="cls-34" d="M273.44,113.23a3.13,3.13,0,0,0-3.65,2.39l-.06.3a3.11,3.11,0,0,0,2.38,3.65,3.14,3.14,0,0,0,3.66-2.38l.06-.3A3.13,3.13,0,0,0,273.44,113.23Z"/><path class="cls-33" d="M259.43,121.33a3.12,3.12,0,0,0-3.63,2.37l-.06.3a3.07,3.07,0,0,0,6,1.26l.06-.3A3.1,3.1,0,0,0,259.43,121.33Z"/><path class="cls-35" d="M174.58,66.91c18.26-4.57,38.79-3.53,49.22,12.71,17,26.43,5.73,66.92-21.17,75.16-35.14,10.77-69.1-20-66.16-51.34C138.2,84.9,157,71.31,174.58,66.91Z"/><path class="cls-36" d="M202.63,154.78c23.65-7.25,35.2-39.41,26.1-65-5.85,16.73-13.86,32.83-32.18,43.88C186.84,139.48,170,143,154,143.84,166.63,154.81,184.47,160.34,202.63,154.78Z"/><path class="cls-37" d="M187.83,114.59c11.66-15,7.11-35.28-2.14-43.44-3-2.66-7.24-3.93-12-4-17.34,4.62-35.53,18.07-37.25,36.3-.74,7.93,1.14,16.28,4.87,24.22C153.12,134.05,174.74,131.42,187.83,114.59Z"/><path class="cls-38" d="M168,79.35C157.25,76.63,145.8,86,144.66,97.07c-.85,8.3,4.15,17.41,12.1,19.91,10.93,3.43,24.06-6.72,24.62-18.61C181.76,90.26,176.3,81.46,168,79.35Z"/><path class="cls-39" d="M143.26,98.41c-2.66-.48,2-10.15,4.1-9.09C149.67,90.49,145.88,98.88,143.26,98.41Z"/><path class="cls-39" d="M152.15,85.72a1.83,1.83,0,1,1-2.36-1.34A1.93,1.93,0,0,1,152.15,85.72Z"/><path class="cls-40" d="M198,64.87a68.65,68.65,0,0,0-23.32,2l-9.34,15.44s-1.59,16.48,17.27-11.11C182.58,71.22,196.59,75,198,64.87Z"/><g id="_Group_18" data-name="&lt;Group&gt;"><path class="cls-41" d="M184.71,65a55.28,55.28,0,0,0,7.55-12.36A28.31,28.31,0,0,0,176.79,61a3.86,3.86,0,0,1-3.27,0,15.24,15.24,0,0,0-11.59-5.64,19,19,0,0,0,5.58,9.1s-5.64-3.32-14.62,1.32c6.47,4.35,11.23,4,11.23,4a32.7,32.7,0,0,0-4.83,16.6c15.81-7.21,18.3-16.21,18.3-16.21a18.48,18.48,0,0,0,16.83,4.77C192.7,69.43,184.71,65,184.71,65Z"/></g><g id="_Group_19" data-name="&lt;Group&gt;"><path id="_Path_36" data-name="&lt;Path&gt;" class="cls-42" d="M187.22,138.11c2.63-1.66-2.08-7.27-3.58-6.45C182.37,132.36,183.74,140.31,187.22,138.11Z"/></g><g id="_Group_20" data-name="&lt;Group&gt;"><path id="_Path_37" data-name="&lt;Path&gt;" class="cls-43" d="M176.5,114.67c2.83-1.31-1.55-7.7-2.86-6.89C172.15,108.71,172.56,116.5,176.5,114.67Z"/></g><g id="_Group_21" data-name="&lt;Group&gt;"><path id="_Path_38" data-name="&lt;Path&gt;" class="cls-43" d="M148.88,116.77c3-.49,1-7.68-.71-7.51C146.74,109.4,144.84,117.42,148.88,116.77Z"/></g><g id="_Group_22" data-name="&lt;Group&gt;"><path id="_Path_39" data-name="&lt;Path&gt;" class="cls-43" d="M161.09,101.76c3-.48,1-7.68-.7-7.51C159,94.39,157.05,102.41,161.09,101.76Z"/></g><g id="_Group_23" data-name="&lt;Group&gt;"><path id="_Path_40" data-name="&lt;Path&gt;" class="cls-44" d="M202.1,84.55c2.9-1.47-2.26-8.08-3.86-7.27C196.9,78,198.79,86.21,202.1,84.55Z"/></g><g id="_Group_24" data-name="&lt;Group&gt;"><path id="_Path_41" data-name="&lt;Path&gt;" class="cls-43" d="M179.92,90.4c3.85-.65.16-8-1.58-7.53S176.1,91.05,179.92,90.4Z"/></g><g id="_Group_25" data-name="&lt;Group&gt;"><path id="_Path_42" data-name="&lt;Path&gt;" class="cls-44" d="M201.11,121.87c2.83-1.28-1.07-7.49-2.67-6.88C197.09,115.51,197.35,123.58,201.11,121.87Z"/></g><g id="_Group_26" data-name="&lt;Group&gt;"><path id="_Path_43" data-name="&lt;Path&gt;" class="cls-44" d="M194.08,103.52c3.22-1-.36-7.3-1.78-6.8C190.64,97.3,190.51,104.68,194.08,103.52Z"/></g><g id="_Group_27" data-name="&lt;Group&gt;"><path id="_Path_44" data-name="&lt;Path&gt;" class="cls-44" d="M211.7,105.42c3.12-1.3-.94-7.25-2.31-6.64C207.77,99.49,208.23,106.86,211.7,105.42Z"/></g><g id="_Group_28" data-name="&lt;Group&gt;"><path id="_Path_45" data-name="&lt;Path&gt;" class="cls-44" d="M217,88.59c2.58-2.18-3.08-6.63-4.2-5.64C211.43,84.12,214.08,91,217,88.59Z"/></g><g id="_Group_29" data-name="&lt;Group&gt;"><path id="_Path_46" data-name="&lt;Path&gt;" class="cls-43" d="M168.28,139.76c3-1.62-1.7-7.1-3-6.35C163.75,134.29,165,141.57,168.28,139.76Z"/></g><g id="_Group_30" data-name="&lt;Group&gt;"><path id="_Path_47" data-name="&lt;Path&gt;" class="cls-43" d="M160.52,125.24c3.38-1.28-1.2-7.42-2.48-6.89C157,118.79,157,126.58,160.52,125.24Z"/></g><path id="_Path_48" data-name="&lt;Path&gt;" class="cls-45" d="M172.44,62.61s.66,2,1.26,3.65,3.37,1.19,3-.27-1-3.36-1-3.36S167.5,38.52,178.48,32c8.35-4.95,13.72,1.27,17.62,6.52l3.92-5.7s-9-13.4-21.07-8.35C170,28.21,162.68,38.42,172.44,62.61Z"/><path class="cls-46" d="M226.49,112.12c15.19-6.73,34.13.75,42.49,15.43,7.76,13.63,5.64,32.13-6.54,42.09-14.5,11.86-38.34,7.56-49-8.6C202.31,144.26,208.84,119.93,226.49,112.12Z"/><path class="cls-47" d="M270.09,149.14a46.62,46.62,0,0,1-19,10.5l-12.43,1.67a35.27,35.27,0,0,1-18-4,35,35,0,0,1-8.12-3.86c-1,0-1.93-.07-2.88-.14a32.54,32.54,0,0,0,3.74,7.75c10.69,16.16,34.53,20.46,49,8.6a30.88,30.88,0,0,0,10.87-20.86C272.25,148.94,271.17,149.06,270.09,149.14Z"/><path class="cls-48" d="M218,125.13c.66-6.7,10.82-11.94,18.64-12.85,7.45-.87,18.29,3.48,19.21,8,1.41,7-8,16.44-17.77,17.82C228,139.56,217.3,132.42,218,125.13Z"/><path class="cls-49" d="M241,128.69s-5.83-6.41-2.1-10.16S249,119,249,119s6.1-7.19,12.29-2.53,3.22,12.86,3.22,12.86,6.65,3.19,6,7.47c-.74,5.17-8.58,3.83-8.58,3.83s.5,7-4.44,7.74-7.67-6.08-7.67-6.08S234.91,143.83,241,128.69Z"/><path class="cls-50" d="M244.2,125.86c2.63-3.26,9.65-2.48,13.33,1.28s4.37,10.42,1.13,13.06c-3,2.48-8.62.44-11.63-2.45C243.85,134.7,241.73,128.93,244.2,125.86Z"/><path class="cls-51" d="M245,125.08c2.63-3.27,9.66-2.49,13.34,1.27s4.37,10.42,1.13,13.06c-3,2.48-8.62.45-11.63-2.44C244.66,133.91,242.53,128.15,245,125.08Z"/><path class="cls-52" d="M255.64,129.61c-2.95-2.91-7.67-4.48-11-4a5.87,5.87,0,0,1,.39-.58c2.63-3.27,9.66-2.49,13.34,1.27,3.4,3.48,4.28,9.88,1.48,12.72A14.79,14.79,0,0,0,255.64,129.61Z"/><path class="cls-53" d="M250.32,134.46c1.05.95,2.45,1.12,3.11.39s.36-2.11-.69-3.06-2.44-1.13-3.11-.39S249.27,133.51,250.32,134.46Z"/><path class="cls-50" d="M237.64,121.92a4.61,4.61,0,0,1,1.08-3.62c3.73-3.76,10.11.29,10.11.29s6.07-7.1,12.26-2.44a7.5,7.5,0,0,1,2.24,2.47c-1.82-1.42-6.26-7.28-14.29,1.46C249,120.08,239.59,113.73,237.64,121.92Z"/><path class="cls-54" d="M237.3,113.37c.07-2.54-9.74-.1-9.17,2C228.77,117.75,237.23,115.87,237.3,113.37Z"/><path class="cls-54" d="M223.91,119.12a1.73,1.73,0,1,0-.79-2.44A1.81,1.81,0,0,0,223.91,119.12Z"/><path class="cls-55" d="M132.72,123.26C121.57,149,149.17,169.32,173,164c33.45-7.48,30.4-55.49-2.06-62C155,98.8,138.75,109.35,132.72,123.26Z"/><path class="cls-47" d="M185.82,155a45,45,0,0,1-25.65-7.88c-1,0-2.08.07-3.14,0h-.52a46.53,46.53,0,0,1-23.59-6.38l-2.43-1.88c2.8,17.63,23.81,29.26,42.52,25.07a30,30,0,0,0,16.11-9.11C188,155,186.92,155,185.82,155Z"/><path class="cls-48" d="M167.42,119.48c-9.22,7-10.37-3.21-10.37-3.21l1.89-.8a3.5,3.5,0,0,1,0-1.55c.26-1.27-1.32-4.37-1.65-5.56a20.3,20.3,0,0,1-.71-3.67c-9.73.63-16.52,7.17-16.58,13.24-.06,7.3,9.58,11.83,15.32,13,11.82,2.48,20.34-5.6,21.44-6.65A20.6,20.6,0,0,1,167.42,119.48Z"/><path class="cls-56" d="M138.12,122.55c-2.44-.7,2.86-9.27,4.71-8.08C144.87,115.79,140.52,123.25,138.12,122.55Z"/><path class="cls-56" d="M147.65,111.6a1.72,1.72,0,1,1-2.07-1.49A1.8,1.8,0,0,1,147.65,111.6Z"/><path class="cls-57" d="M161.2,101.44s1.9-5.89,6.87-5.59a9.62,9.62,0,0,1,8.63,7.85s9.93-.79,10.75,3.46c1,5.12-6,6.61-6,6.61s2.53,6.76-1.19,8c-6.19,2.09-13-5.36-13-5.36s-7.67,6.15-12.28,2.33c-3.41-2.84-.17-9.15-.17-9.15s-6.19-3.75-3.49-7.74S161.2,101.44,161.2,101.44Z"/><path class="cls-58" d="M159.83,108.32c.36-3.44,5-6.83,11.08-5.84,3.57.59,7.3,4.31,6.68,7.55s-5.36,5-8.64,5.06C164.42,115.11,159.48,111.66,159.83,108.32Z"/><path class="cls-59" d="M159.23,108.79c.34-3.33,5-6.58,11-5.58,3.56.6,7.32,4.23,6.73,7.36s-5.32,4.86-8.59,4.85C163.86,115.4,158.9,112,159.23,108.79Z"/><path class="cls-60" d="M170.65,105.43a11.53,11.53,0,0,1,6.27,3.54c-.61-2.66-3.7-5.26-6.67-5.76-5.89-1-10.43,2.09-11,5.33C161.07,106.18,165.34,104.5,170.65,105.43Z"/><path class="cls-51" d="M169.81,111.28a1.25,1.25,0,1,1-1-1.5A1.27,1.27,0,0,1,169.81,111.28Z"/><g id="_Group_31" data-name="&lt;Group&gt;"><g id="_Group_32" data-name="&lt;Group&gt;"><path id="_Path_49" data-name="&lt;Path&gt;" class="cls-22" d="M139.89,243.9c-5.13-.38-9.51,4.37-10.24,9.31-.7,4.75,1.86,10.45,6.79,11.72,5.38,1.38,11-3.16,12-8.64C149.49,250.64,145.48,244.32,139.89,243.9Z"/><path id="_Path_50" data-name="&lt;Path&gt;" class="cls-22" d="M153.86,265.42c5-1.37,7.48-7.33,6.49-12.22-.94-4.71-5.28-9.21-10.35-8.74-5.53.52-9.32,6.7-8.4,12.2C142.55,262.33,148.46,266.92,153.86,265.42Z"/><path id="_Compound_Path_3" data-name="&lt;Compound Path&gt;" class="cls-47" d="M106.36,239a8.33,8.33,0,0,0-.63,4.88c.79,4.3,5,7.13,9.33,7.56a6,6,0,0,0,.1.94c.89,5.07,6.57,8.15,11.54,7.64a11.23,11.23,0,0,0,9.12-6.57l.11-.09a8.28,8.28,0,0,0,1.57,4.2c3.08,4.12,9.54,4.31,13.74,1.62a11.53,11.53,0,0,0,2.47-2.17c2.08,2.44,5.13,4.09,8.34,3.54,3.95-.67,6.67-4.39,7.33-8.41,4.87,1.52,10.9-.64,12.58-5.36a9,9,0,0,0-1.4-8.16c2.9-1.9,4.89-5.07,4.57-8.46a9.11,9.11,0,0,0-4.84-6.86c2.76-2.89,4.07-7.27,2.18-10.92a9.33,9.33,0,0,0-8.21-4.68c.23-4.47-2.19-9.07-6.38-10.37a8.37,8.37,0,0,0-5.48.24,11,11,0,0,0-4.51-4.5A11.24,11.24,0,0,0,146,194.18a11.35,11.35,0,0,0-8.25-4.55,11.14,11.14,0,0,0-10.82,7c-5-2.26-11.86-.27-13.84,4.77a8.57,8.57,0,0,0,.12,6.3c-4,0-8,2-9.45,5.69-1.27,3.24-.2,6.84,2,9.5a9.28,9.28,0,0,0-4.86,7.23C100.69,233.86,103.13,237.15,106.36,239Z"/><path id="_Path_51" data-name="&lt;Path&gt;" class="cls-61" d="M165.59,232c-2.69-.69-6,1-6.36,3.62s2.35,5.21,5.09,5.37c2,.12,4.51-1,5.11-3.24C170.1,235.19,168,232.59,165.59,232Z"/><path id="_Path_52" data-name="&lt;Path&gt;" class="cls-61" d="M134.19,230.5c-2.76.44-5.6,2.88-5.35,5.64.26,3,4,5.12,7.21,4.48,3-.61,5.64-3.7,4.89-6.57C140.23,231.34,136.82,230.08,134.19,230.5Z"/><path id="_Path_53" data-name="&lt;Path&gt;" class="cls-61" d="M147.58,204.94c-2-2.14-5.76-2.51-7.61-.44s-.9,5.88,1.4,7.57c1.7,1.25,4.52,1.67,6.31.07C149.68,210.33,149.35,206.87,147.58,204.94Z"/><path id="_Path_54" data-name="&lt;Path&gt;" class="cls-61" d="M150.7,224.49c-2.69-.7-5.95,1-6.35,3.61s2.34,5.21,5.08,5.37c2,.12,4.51-1,5.11-3.24C155.21,227.73,153.13,225.12,150.7,224.49Z"/><path id="_Path_55" data-name="&lt;Path&gt;" class="cls-61" d="M129.77,216.49c-1.2,2.41.43,5.54,2.79,6.75s6.22.59,7.36-2c1-2.37-.57-5.26-2.74-6.45C134.74,213.47,131,214,129.77,216.49Z"/><path id="_Path_56" data-name="&lt;Path&gt;" class="cls-62" d="M165.38,200.12a5.28,5.28,0,0,0-6.09,2.68c-1.33,2.52-.51,6.21,2.23,7.38s5.88-.62,6.83-3.34C169.24,204.28,168,201,165.38,200.12Z"/><path id="_Path_57" data-name="&lt;Path&gt;" class="cls-63" d="M174.18,212.17a4,4,0,0,0-2.74,4.84,4.15,4.15,0,0,0,5.77,2.22,4,4,0,0,0,1.94-4.51A4,4,0,0,0,174.18,212.17Z"/><path id="_Path_58" data-name="&lt;Path&gt;" class="cls-63" d="M175.51,226.72a4,4,0,0,0-2.74,4.83,4.17,4.17,0,0,0,5.78,2.23,3.85,3.85,0,0,0-3-7.06Z"/><path id="_Path_59" data-name="&lt;Path&gt;" class="cls-61" d="M159.55,245.91a4,4,0,0,0-2.74,4.83,4.15,4.15,0,0,0,5.78,2.22,4,4,0,0,0,1.94-4.51A4,4,0,0,0,159.55,245.91Z"/><path id="_Path_60" data-name="&lt;Path&gt;" class="cls-61" d="M145.49,246.2a4,4,0,0,0-2.74,4.83,4.15,4.15,0,0,0,5.78,2.22,4,4,0,0,0,1.94-4.51A4,4,0,0,0,145.49,246.2Z"/><path id="_Path_61" data-name="&lt;Path&gt;" class="cls-61" d="M122.87,242.68c-2.25.23-4.65,2-4.69,4.1,0,2.54,3.44,4.77,6.38,4.27,2-.35,4.23-2.08,4.23-4.17C128.78,244.39,125.6,242.41,122.87,242.68Z"/><path id="_Path_62" data-name="&lt;Path&gt;" class="cls-61" d="M119.8,226.58c-2.39-.38-5.5.77-6.19,3.45s1.48,5.41,3.92,6.07c3.23.88,7-1.76,7-4.75C124.54,229,122.21,227,119.8,226.58Z"/><path id="_Path_63" data-name="&lt;Path&gt;" class="cls-64" d="M119.63,212.47a3.41,3.41,0,1,0-1.51,6.65c1.94.58,4.4-.56,4.77-2.57A3.76,3.76,0,0,0,119.63,212.47Z"/><path id="_Path_64" data-name="&lt;Path&gt;" class="cls-64" d="M128.56,201.34c-1.56-.5-3.79-.12-4.63,1.49-.93,1.78.32,4.19,2.14,5,2,.94,4.79.1,5.44-1.85S130.49,202,128.56,201.34Z"/><path id="_Path_65" data-name="&lt;Path&gt;" class="cls-64" d="M137.8,193.48c-1.63-1-4.18-.56-4.93,1.08s.61,3.92,2.46,4.47a3.33,3.33,0,0,0,3.85-1.39A3.38,3.38,0,0,0,137.8,193.48Z"/><path id="_Path_66" data-name="&lt;Path&gt;" class="cls-65" d="M154.48,194.4c-1.48-1.15-4-1.45-5.17-.21-1.47,1.5-.66,4.84,1.4,6.22,1.42,1,3.74,1.17,4.93-.09C157.06,198.82,156.28,195.8,154.48,194.4Z"/><path id="_Path_67" data-name="&lt;Path&gt;" class="cls-61" d="M109.57,211.49c-1.33-.37-3.06,1.12-3.62,2.74-.45,1.27-.43,3.38.93,4.12s3.22-.3,4-1.6C112,214.87,111.13,211.93,109.57,211.49Z"/><path id="_Path_68" data-name="&lt;Path&gt;" class="cls-61" d="M119.52,199c-1.33-.72-3.55.52-4.2,2.28-.56,1.49-.1,3.63,1.27,4.14s3.09-.89,3.7-2.31S120.71,199.59,119.52,199Z"/><path id="_Path_69" data-name="&lt;Path&gt;" class="cls-61" d="M105,227.64c-1.19.18-2,1.62-2.09,2.86-.1,1.84,1.45,3.85,3,3.67,1.23-.13,2.16-1.59,2.23-2.89C108.23,229.39,106.52,227.4,105,227.64Z"/><path id="_Path_70" data-name="&lt;Path&gt;" class="cls-61" d="M110.1,240.44c-1.12.26-1.8,2.33-1.19,3.83.49,1.18,1.89,2.27,2.93,1.87s1.25-2.13.94-3.27C112.42,241.54,111.14,240.2,110.1,240.44Z"/></g></g><path class="cls-66" d="M94.77,463.71a266.47,266.47,0,0,0,272.7,0c-15.42-11.63-64.05-45.23-134.85-45.7C160,417.53,110,452.22,94.77,463.71Z"/><path class="cls-67" d="M169,201.27,250.36,482h21.86L192,204.29C184,203.51,176.26,202.5,169,201.27Z"/><g id="_Group_33" data-name="&lt;Group&gt;"><path id="_Path_71" data-name="&lt;Path&gt;" class="cls-68" d="M221,164.45s6.29-1.26,10.32,3.81-.26,10.83-.26,10.83a11.53,11.53,0,0,1,8,7.06c2.08,5.83-3.69,9.23-3.69,9.23s5.68,6.9,2.14,12.86a15.4,15.4,0,0,1-10,7s1.63,7.76-4.56,11.11-10.26.46-10.26.46-1.75,5.73-7,7.32a10.56,10.56,0,0,1-9.24-1.72s-3,4.37-7.55,4.62a7.75,7.75,0,0,1-6.75-3.3s-4.37,4.65-9.14,4.11a9.88,9.88,0,0,1-7-4.65s-8.88,0-9-10.36c0,0-10.66-1.77-5.8-12.51,0,0-8.69-6.48-1.22-15.17,0,0-3.77-11.18,7.2-16,0,0-.63-10.72,10-11.9,0,0-.1-10.29,10.38-8.76,0,0,2.83-9.2,12.25-4.88,0,0,3.65-5.06,9.45-4s8.13,6.53,8.13,6.53a7.29,7.29,0,0,1,8.74-.64C221,158.53,221,164.45,221,164.45Z"/><path id="_Path_72" data-name="&lt;Path&gt;" class="cls-69" d="M173,237.8c4.77.54,9.14-4.11,9.14-4.11a7.75,7.75,0,0,0,6.75,3.3c4.53-.25,7.55-4.62,7.55-4.62a10.56,10.56,0,0,0,9.24,1.72c5.23-1.59,7-7.32,7-7.32s4.06,2.88,10.26-.46,4.56-11.11,4.56-11.11a15.4,15.4,0,0,0,10-7c3.54-6-2.14-12.86-2.14-12.86s-4.82,1.52-11.89-2l-12.93-2-6.11,13s-3.83,18-18,10.13c0,0-4,11.31-13.67,6.8,0,0,3,9.42-6.82,11.83A9.88,9.88,0,0,0,173,237.8Z"/><path id="_Path_73" data-name="&lt;Path&gt;" class="cls-17" d="M228.62,170.18c-1.58-2.19-5.29-2.39-7.6-.65s-3.21,5.57-1.33,7.74c1.58,1.81,4.47,1.84,6.38.84C228.85,176.67,230.4,172.64,228.62,170.18Z"/><path id="_Path_74" data-name="&lt;Path&gt;" class="cls-17" d="M235.21,187.87c.07-2.23-3.24-4.48-6.13-4-2.21.38-4.58,2.44-4.25,4.56s3.18,3.19,5.24,3.12C232.42,191.48,235.14,189.85,235.21,187.87Z"/><path id="_Path_75" data-name="&lt;Path&gt;" class="cls-17" d="M231.24,202.87c.56-1.6-1.3-3.76-3.21-4.53-2.24-.91-5.42-.28-6,1.4s1.49,3.88,3.64,4.58S230.66,204.52,231.24,202.87Z"/><path id="_Path_76" data-name="&lt;Path&gt;" class="cls-68" d="M221.93,213.69c1.07-.71.52-4-1.06-6-1.31-1.74-3.74-3.23-4.76-2.52s-.43,3.51.71,5.34C218.16,212.64,220.86,214.4,221.93,213.69Z"/><path id="_Path_77" data-name="&lt;Path&gt;" class="cls-68" d="M212.35,213c.46-2.44-.94-5.45-2.65-5.57-1.37-.09-2.73,1.68-3.11,3.26-.65,2.64,1.14,5.85,2.86,5.88C210.81,216.62,212.05,214.67,212.35,213Z"/><path id="_Path_78" data-name="&lt;Path&gt;" class="cls-17" d="M198.81,201.91c-1.44-1.08-4.31.25-5.76,2-1.61,2-2.17,5.32-.74,6.44s4.56-.22,6.07-2.28C199.77,206.19,200.25,203,198.81,201.91Z"/><path id="_Path_79" data-name="&lt;Path&gt;" class="cls-17" d="M190.74,194c-1.73-2.59-6.09-2.74-8.87-1-3,1.85-4.78,6.24-2.87,9,1.74,2.51,5.82,2.57,8.43,1.13C190.61,201.33,192.62,196.8,190.74,194Z"/><path id="_Path_80" data-name="&lt;Path&gt;" class="cls-20" d="M185.91,181.27c-.63-3.05-4.65-4.91-7.91-4.78-4.13.16-8.69,3.56-8.3,7.3.35,3.32,4.48,5.71,8,5.59C182.22,189.23,186.66,185,185.91,181.27Z"/><path id="_Path_81" data-name="&lt;Path&gt;" class="cls-17" d="M178.31,215.26c1.2-2.37-.5-5.35-2.76-6.46-2-1-4.86-.74-6.17,1.16-1.51,2.18-.26,5.62,2.16,6.94C173.79,218.12,177.14,217.59,178.31,215.26Z"/><path id="_Path_82" data-name="&lt;Path&gt;" class="cls-68" d="M187,222.76a3.93,3.93,0,0,0-2.25,4.35c.43,2.44,3.39,4.3,5.42,3.36,1.68-.77,2.38-3.28,1.59-5.19C191,223.53,189,222.07,187,222.76Z"/><path id="_Path_83" data-name="&lt;Path&gt;" class="cls-68" d="M180.29,229.83a3.08,3.08,0,0,0-3.25-2.5,3.23,3.23,0,0,0,.69,6.32C179.41,233.56,180.65,231.56,180.29,229.83Z"/><path id="_Path_84" data-name="&lt;Path&gt;" class="cls-17" d="M167.42,219.65a3.22,3.22,0,1,0-.21,4.69A3.24,3.24,0,0,0,167.42,219.65Z"/><path id="_Path_85" data-name="&lt;Path&gt;" class="cls-20" d="M158.29,213.14a2.35,2.35,0,0,0-3.29-.92,2.4,2.4,0,0,0-.19,3.48,2.26,2.26,0,0,0,2.58.52A2.33,2.33,0,0,0,158.29,213.14Z"/><path id="_Path_86" data-name="&lt;Path&gt;" class="cls-20" d="M170.11,193.67c-1.17-1.68-3.56-3.28-5.09-2.54-1.78.86-2.07,4.69-.46,7.09,1.32,2,4.17,3.32,5.7,2.35S171.64,195.88,170.11,193.67Z"/><path id="_Path_87" data-name="&lt;Path&gt;" class="cls-20" d="M162.5,204.8c-1-1.44-3.08-2.79-4.24-2.17-1.43.76-1.54,4.54.37,6.59,1.1,1.19,3.14,2.08,4.24,1.33C164.19,209.66,163.82,206.64,162.5,204.8Z"/><path id="_Path_88" data-name="&lt;Path&gt;" class="cls-20" d="M166.85,171.83c-1.41-.87-4.17.64-5.35,2.67-1.58,2.7-.65,6.75,1,7.25,1.5.45,3.62-1.92,4.51-4C167.86,175.89,168.31,172.73,166.85,171.83Z"/><path id="_Path_89" data-name="&lt;Path&gt;" class="cls-20" d="M157.23,183.92c-1.42-.2-2.89,1.63-3.46,3.11-1.09,2.8.15,6.62,1.9,6.93,1.51.27,3.49-2.06,3.91-4.36S158.91,184.16,157.23,183.92Z"/><path id="_Path_90" data-name="&lt;Path&gt;" class="cls-20" d="M153.1,197.3c-1.22-.26-2.8,1.64-3.14,3.48s.38,4,1.6,4.24,2.66-1.65,3-3.38S154.31,197.56,153.1,197.3Z"/><path id="_Path_91" data-name="&lt;Path&gt;" class="cls-20" d="M199.34,154.22c-2.45-.08-4.85,3.17-5.23,6.18-.49,3.88,2.24,8.38,5.18,8.35,2.33,0,4.26-2.89,4.8-5.26C205,159.4,202.33,154.32,199.34,154.22Z"/><path id="_Path_92" data-name="&lt;Path&gt;" class="cls-20" d="M215.84,159.67c-1.78-.92-4.6.75-6,2.71-2,2.9-1.65,7.62.47,8.61,1.8.84,4.71-1.11,6-3.35C218,164.94,217.88,160.72,215.84,159.67Z"/><path id="_Path_93" data-name="&lt;Path&gt;" class="cls-20" d="M187.62,170.48c.86-1.78-1.51-4.92-4.12-6.29s-6.64-1.54-7.62.26,1.15,5,3.63,6.39C182.39,172.51,186.72,172.34,187.62,170.48Z"/><path id="_Path_94" data-name="&lt;Path&gt;" class="cls-15" d="M205,170.86s1.17,9.5,8.49,4.85c0,0,.15,7.13,6.7,7.72a7.28,7.28,0,0,0,3.23,9.9s-6,1.89-4.67,6.89c0,0-5.67-1.3-6,4.8,0,0-3.81-4.8-8.33-.63,0,0-.42-10.39-9.79-6.14,0,0,2.7-10.83-7.33-10.69,0,0,6.71-5,.25-10.63,0,0,7.47,1,6.19-7.53C193.72,169.4,198.86,178.07,205,170.86Z"/><path id="_Path_95" data-name="&lt;Path&gt;" class="cls-68" d="M205.86,220.72c-1.08-2-3.68-3.55-5.93-2.66-2.46,1-3.24,4.41-2.2,6.83s4,4.12,6.3,3.13C206.53,227,207.21,223.19,205.86,220.72Z"/><path id="_Path_96" data-name="&lt;Path&gt;" class="cls-69" d="M227.46,215.2a15.4,15.4,0,0,0,10-7,8.88,8.88,0,0,0,.87-6.73c-2.09,9.38-13.58,12.6-13.58,12.6s1.35,5.54-2.64,9.47-9.8.15-9.8.15c-6.87,15.37-15,4.8-15,4.8-7.2,12.07-14.69,2-14.69,2-7.78,11-13.78,1.53-13.78,1.53s-3.42.18-7.14-3.23a9.12,9.12,0,0,1-2.93-7.84c-9.85-1.85-7.63-10.71-7.63-10.71-4.86,10.74,5.8,12.51,5.8,12.51.13,10.33,9,10.36,9,10.36a9.88,9.88,0,0,0,7,4.65c4.77.54,9.14-4.11,9.14-4.11a7.75,7.75,0,0,0,6.75,3.3c4.53-.25,7.55-4.62,7.55-4.62a10.56,10.56,0,0,0,9.24,1.72c5.23-1.59,7-7.32,7-7.32s4.06,2.88,10.26-.46S227.46,215.2,227.46,215.2Z"/></g><g id="_Group_34" data-name="&lt;Group&gt;"><path id="_Path_97" data-name="&lt;Path&gt;" class="cls-12" d="M314.11,174.38s10.66-6,12.68-2.95c2.74,4.13-4.18,10.39-4.18,10.39s8.51,1.28,8.71,5.19c.18,3.75-7.95,5.18-7.95,5.18s4.34,5,3.41,6.2S313,193.44,313,193.44Z"/><path class="cls-47" d="M317.7,200.73c7.28-11.12,4.6-29.51-8.7-37.5-13-7.84-28.59-1.27-35.66,7.52-8.29,10.32-6.36,28.5,3.4,37.19C289.52,219.32,308.82,214.28,317.7,200.73Z"/></g><path class="cls-70" d="M278.55,50.79c0,.43-.08.85-.15,1.28.46-.32.92-.68,1.39-1Z"/><path class="cls-71" d="M205.43,58.54c.15-.31.29-.63.46-.91a7.39,7.39,0,0,1,.87-1.1A7.16,7.16,0,0,1,209,55a9,9,0,0,1,1.49-.49,10.8,10.8,0,0,1,2.56-.28,10.53,10.53,0,0,1-.18-1.94,10.09,10.09,0,0,1,.06-1.09,9.85,9.85,0,0,1,.37-1.76,8.4,8.4,0,0,1,1.37-2.59c.15-.19.33-.36.49-.53a250.2,250.2,0,0,0-41.9,5.35,67.2,67.2,0,0,0,2.1,9.66,4.63,4.63,0,0,0,1.48-.36,28.31,28.31,0,0,1,15.47-8.37,54.57,54.57,0,0,1-4.57,8.3C193.51,59.92,199.44,59.12,205.43,58.54Z"/><path class="cls-72" d="M333.15,134.28c-20.1,13.85-43.42,19.17-67.36,22.57-15.1,2.14-32.28,3.66-47.54,2.5-15.05-1.15-29.41-1.45-44.19-4.54-31.42-6.56-67.66-22.55-82.87-51.41,0,4.65.24,47.11,11.8,67.76,12.24,21.85,65.56,35,128.5,35S340.32,185.58,347.75,176c7.08-9.15,15.27-42.89,15.31-67.59A188.27,188.27,0,0,1,333.15,134.28Z"/><path class="cls-73" d="M333.15,134.28a102.28,102.28,0,0,1-10.8,6.49c0,.37-16.25.92-16.2,1.29-1.85,32-7.85,55.24-9,56.27,27.68-6.84,46.1-16.58,50.57-22.37,7.08-9.15,15.27-42.89,15.31-67.59A188.27,188.27,0,0,1,333.15,134.28Z"/><path class="cls-74" d="M153,69.42q2.06-.67,4.17-1.32a27.11,27.11,0,0,1-4.26-2.36c9-4.64,14.62-1.32,14.62-1.32a19,19,0,0,1-5.58-9.1,15.47,15.47,0,0,1,8.94,3.08c-.71-2-1.28-4-1.73-5.83-6.75,1.58-13.27,3.4-19.46,5.44Z"/><path class="cls-75" d="M293.49,54c-.72,3.09-2.64,7.79-7.74,9.92,39.41,9.34,64.56,26.94,63.8,40.63-1.28,23-71.46,45.06-123.34,45.75-59.63.8-123-22.09-122.34-46.14.23-8.92,11.58-18.65,29.16-26.9l-3.31-11.42c-23.21,10.77-38.41,24.73-38.37,38.67.09,29.86,54.64,57.33,140.79,58.4C290.61,163.63,363,135.47,363,104.7,363,83.14,334.58,64.17,293.49,54Z"/><path class="cls-76" d="M283.77,51.8c-.83,1.05-1.71,2.12-2.68,3.19a17,17,0,0,0,9-1.82C288,52.69,285.9,52.24,283.77,51.8Z"/><path class="cls-77" d="M365.2,230.13c-9-22-18.47-37.39-26.05-47.52-17.41,10.21-57,23.51-107.66,23.51-47.91,0-90.23-7.6-113.11-20.87-6.57,6.79-26.55,30.57-31.92,73.05-6.46,51.05,4.3,176.1,8.31,205.41.8,5.85,1.6,11.41,2.38,16.58,24.91,16.94,71,33.77,131.8,33.71,61.23-.06,110.27-16.75,135.8-33.74l2.72-16.55S385.6,280.2,365.2,230.13Z"/><path class="cls-78" d="M346.44,177.38C336,187.46,291.5,206.12,231.49,206.12c-54.15,0-101.15-9.71-121-26.34a124,124,0,0,0-13.82,20.81c36.15,7.47,71.55,19.34,104,37.06a246.75,246.75,0,0,1,92,87c21,33.92,35.44,72.7,42.84,111.84a453,453,0,0,1,6.94,55.69c14.32-6.29,25.39-13.24,32.49-19.84a5.44,5.44,0,0,0,.24-1.57s9.19-64.25,10-165.19C385.72,230.19,359.65,191.91,346.44,177.38Z"/><path class="cls-79" d="M120.29,203.06s-41.62,39.19-14.12,222.48c0,0,67.24-17.43,98.72-75.66,29.71-55,24.51-127.76,24.51-127.76S166.5,222.4,120.29,203.06Z"/><path class="cls-80" d="M116.75,201.16c6.79.49-11.36,60.36-16.1,56.88C94.07,253.22,109.16,200.62,116.75,201.16Z"/><path class="cls-80" d="M99.83,269.75c6.17.31,5.19,23.2-.87,22.42C92.74,291.36,93.48,269.43,99.83,269.75Z"/><g class="cls-81"><path class="cls-82" d="M230.23,179.08c45.52-.67,87.73-10.86,116.75-25a71.87,71.87,0,0,0,4.13-14.39s-44.89,31.77-125.64,30.81c-86.24-1-122.87-32.79-122.87-32.79s-.26,6.37,3.33,16.24A293,293,0,0,0,230.23,179.08Z"/><path class="cls-82" d="M231.25,187.12c-1.49,0-3,0-4.47,0-45.67,0-86.63-9.26-115.68-23.19,3.12,4.58,7.09,8.43,13.13,12.66C149.54,194.34,263.9,206,328.31,177.8c0,0,6.58-3,13.55-13.84C316.2,178.49,274.07,186.5,231.25,187.12Z"/></g></g></g></svg>