<svg xmlns="http://www.w3.org/2000/svg" xmlns:xlink="http://www.w3.org/1999/xlink" viewBox="0 0 516 516"><defs><style>.cls-1{isolation:isolate;}.cls-2{fill:url(#linear-gradient);}.cls-3{fill:#ffe3e8;}.cls-4{fill:#e1171b;}.cls-5,.cls-8{fill:#ff595f;}.cls-45,.cls-47,.cls-5,.cls-9{opacity:0.5;}.cls-6{fill:#fe757c;}.cls-7{fill:url(#linear-gradient-2);}.cls-31,.cls-8{opacity:0.7;}.cls-9{fill:#f5363c;}.cls-10{fill:url(#linear-gradient-3);}.cls-11{fill:url(#linear-gradient-4);}.cls-12{fill:url(#linear-gradient-5);}.cls-13,.cls-33,.cls-41,.cls-46{opacity:0.2;}.cls-14{fill:#636;}.cls-15{fill:url(#linear-gradient-6);}.cls-16{opacity:0.1;}.cls-17{fill:#a5574d;opacity:0.05;}.cls-17,.cls-19,.cls-30,.cls-31,.cls-32{mix-blend-mode:multiply;}.cls-18,.cls-47{fill:#fff;}.cls-18,.cls-23,.cls-25,.cls-26,.cls-30,.cls-32,.cls-34,.cls-36,.cls-37,.cls-40,.cls-44{opacity:0.3;}.cls-19{fill:#d9bdbd;opacity:0.4;}.cls-20{fill:#fce6da;}.cls-21{fill:url(#linear-gradient-7);}.cls-22{fill:url(#linear-gradient-8);}.cls-23{fill:url(#linear-gradient-9);}.cls-24{fill:url(#New_Gradient_Swatch_2);}.cls-25{fill:url(#linear-gradient-10);}.cls-26{fill:#b80019;}.cls-27{fill:url(#linear-gradient-11);}.cls-28{fill:url(#linear-gradient-12);}.cls-29{fill:url(#linear-gradient-14);}.cls-30,.cls-31{fill:#f27479;}.cls-32{fill:#b13d38;}.cls-33{fill:url(#linear-gradient-15);}.cls-34{fill:#2b346a;}.cls-35{fill:url(#linear-gradient-16);}.cls-36{fill:url(#linear-gradient-17);}.cls-37{fill:#132236;}.cls-38{fill:#2e3d54;}.cls-39{fill:url(#linear-gradient-18);}.cls-40{fill:url(#linear-gradient-20);}.cls-41{fill:url(#linear-gradient-21);}.cls-42{fill:url(#linear-gradient-22);}.cls-43{fill:url(#linear-gradient-23);}.cls-44{fill:url(#linear-gradient-24);}.cls-45{fill:#fe3a44;}.cls-46{fill:#b51f1b;}.cls-48{fill:#a9bfd9;}</style><linearGradient id="linear-gradient" x1="184.88" y1="498.81" x2="308.35" y2="43.31" gradientUnits="userSpaceOnUse"><stop offset="0" stop-color="#f2e2dc"/><stop offset="0.51" stop-color="#ebcfc4"/><stop offset="0.66" stop-color="#e6c3ba"/><stop offset="0.91" stop-color="#daa3a1"/><stop offset="1" stop-color="#d59797"/></linearGradient><linearGradient id="linear-gradient-2" x1="185.78" y1="305.09" x2="244.58" y2="445.42" gradientUnits="userSpaceOnUse"><stop offset="0" stop-color="#fe3a44"/><stop offset="1" stop-color="#e1171b"/></linearGradient><linearGradient id="linear-gradient-3" x1="275.89" y1="304.93" x2="310.67" y2="420.03" xlink:href="#linear-gradient-2"/><linearGradient id="linear-gradient-4" x1="113.22" y1="292.63" x2="164.7" y2="426.07" xlink:href="#linear-gradient-2"/><linearGradient id="linear-gradient-5" x1="251.05" y1="141.74" x2="374.16" y2="296.96" gradientUnits="userSpaceOnUse"><stop offset="0" stop-color="#a7b5cc"/><stop offset="1" stop-color="#8d91ba"/></linearGradient><linearGradient id="linear-gradient-6" x1="104.09" y1="138.48" x2="214.55" y2="317.32" gradientUnits="userSpaceOnUse"><stop offset="0" stop-color="#ffe0ea"/><stop offset="1" stop-color="#ff9fa8"/></linearGradient><linearGradient id="linear-gradient-7" x1="-1282.64" y1="2241.25" x2="-1336.52" y2="2227.88" gradientTransform="matrix(-0.1, -0.99, 0.79, -0.13, -1779.27, -922.03)" gradientUnits="userSpaceOnUse"><stop offset="0.16" stop-color="#506082"/><stop offset="0.35" stop-color="#404d68"/><stop offset="1" stop-color="#2e3d54"/></linearGradient><linearGradient id="linear-gradient-8" x1="-710.3" y1="1618.66" x2="-695.89" y2="1677.71" gradientTransform="translate(-1217.54 -1051.3) rotate(-72.55)" gradientUnits="userSpaceOnUse"><stop offset="0" stop-color="#616b8e"/><stop offset="1" stop-color="#2e3d54"/></linearGradient><linearGradient id="linear-gradient-9" x1="102.85" y1="89.05" x2="140.43" y2="122.14" gradientUnits="userSpaceOnUse"><stop offset="0" stop-color="#87a0bd"/><stop offset="1" stop-color="#2e3d54"/></linearGradient><linearGradient id="New_Gradient_Swatch_2" x1="250.06" y1="175.12" x2="229.02" y2="-10.54" gradientUnits="userSpaceOnUse"><stop offset="0.01" stop-color="#f5222c"/><stop offset="0.17" stop-color="#f62c34"/><stop offset="0.45" stop-color="#f8484b"/><stop offset="0.8" stop-color="#fc7470"/><stop offset="1" stop-color="#ff9087"/></linearGradient><linearGradient id="linear-gradient-10" x1="189.28" y1="-14.63" x2="227.82" y2="94.55" gradientUnits="userSpaceOnUse"><stop offset="0" stop-color="#fff"/><stop offset="0.07" stop-color="#fff" stop-opacity="0.88"/><stop offset="0.25" stop-color="#fff" stop-opacity="0.57"/><stop offset="0.4" stop-color="#fff" stop-opacity="0.32"/><stop offset="0.54" stop-color="#fff" stop-opacity="0.15"/><stop offset="0.64" stop-color="#fff" stop-opacity="0.04"/><stop offset="0.7" stop-color="#fff" stop-opacity="0"/></linearGradient><linearGradient id="linear-gradient-11" x1="71.54" y1="203.23" x2="444.05" y2="203.23" gradientUnits="userSpaceOnUse"><stop offset="0" stop-color="#e3b5ad"/><stop offset="1" stop-color="#e3c7b8"/></linearGradient><linearGradient id="linear-gradient-12" x1="326.18" y1="40.95" x2="330.26" y2="267.3" xlink:href="#linear-gradient-5"/><linearGradient id="linear-gradient-14" x1="-2820.43" y1="85.48" x2="-2775.94" y2="278.25" gradientTransform="matrix(-1, 0, 0, 1, -2465.97, 0)" xlink:href="#linear-gradient-5"/><linearGradient id="linear-gradient-15" x1="311.68" y1="177.21" x2="435.26" y2="321.08" gradientUnits="userSpaceOnUse"><stop offset="0" stop-color="#532b6a" stop-opacity="0.3"/><stop offset="0.22" stop-color="#532b6a" stop-opacity="0.4"/><stop offset="0.59" stop-color="#532b6a" stop-opacity="0.65"/><stop offset="1" stop-color="#532b6a"/></linearGradient><linearGradient id="linear-gradient-16" x1="30.44" y1="-530.1" x2="31.33" y2="-437.2" gradientTransform="translate(13.73 549.53) rotate(25.1)" xlink:href="#linear-gradient-8"/><linearGradient id="linear-gradient-17" x1="259.79" y1="76.89" x2="268.34" y2="125.16" gradientUnits="userSpaceOnUse"><stop offset="0" stop-color="#87a0bd"/><stop offset="0.16" stop-color="#7f97b4"/><stop offset="0.43" stop-color="#6b809b"/><stop offset="0.77" stop-color="#495b74"/><stop offset="1" stop-color="#2e3d54"/></linearGradient><linearGradient id="linear-gradient-18" x1="141.15" y1="115.59" x2="251.61" y2="294.42" xlink:href="#linear-gradient-6"/><linearGradient id="linear-gradient-20" x1="106.39" y1="125.19" x2="174.36" y2="199.05" gradientUnits="userSpaceOnUse"><stop offset="0" stop-color="#fff"/><stop offset="1" stop-color="#fff" stop-opacity="0"/></linearGradient><linearGradient id="linear-gradient-21" x1="184.94" y1="189.76" x2="281.68" y2="285.23" gradientUnits="userSpaceOnUse"><stop offset="0" stop-color="#532b6a" stop-opacity="0.2"/><stop offset="0.2" stop-color="#532b6a" stop-opacity="0.3"/><stop offset="0.54" stop-color="#532b6a" stop-opacity="0.55"/><stop offset="0.97" stop-color="#532b6a" stop-opacity="0.97"/><stop offset="1" stop-color="#532b6a"/></linearGradient><linearGradient id="linear-gradient-22" x1="111.79" y1="856.9" x2="57.91" y2="843.53" gradientTransform="matrix(0.97, -0.23, 0.24, 0.76, -92.49, -410.94)" xlink:href="#linear-gradient-7"/><linearGradient id="linear-gradient-23" x1="151.6" y1="227.12" x2="164.94" y2="281.78" gradientTransform="matrix(1, 0, 0, 1, 0, 0)" xlink:href="#linear-gradient-8"/><linearGradient id="linear-gradient-24" x1="140.44" y1="230.99" x2="180.86" y2="244.25" xlink:href="#linear-gradient-9"/></defs><title>Artboard 12</title><g class="cls-1"><g id="Layer_1" data-name="Layer 1"><path class="cls-2" d="M129,483.34C136,494.82,186.12,514.83,264.44,514c68.57-.75,122.05-21,130.33-32,10.31-13.63,52.16-156.73,68.13-272.19,3.58-25.82-158.65,39.06-207,42.39-42.25,2.91-205.54-75.64-202.84-42.78C64.28,346,123.78,474.64,129,483.34Z"/><path class="cls-3" d="M142,470.91c6.27,10.39,51.61,28.48,122.42,27.7,62-.68,110.34-19,117.83-28.9,9.32-12.32,46.22-159.27,61.59-246.07C447.9,200.43,300.36,259,256.65,262c-38.19,2.63-188.1-70.23-185.11-40.57C85.13,356.67,137.2,463.06,142,470.91Z"/><path class="cls-4" d="M355.44,387c.25,19.76,19.74,29.7,43.88,31.16,6.48-23.54,13.87-52.8,21-83.08C398.37,338.26,355.08,357.75,355.44,387Z"/><path class="cls-5" d="M418,344.81c-15.09,2.27-54.87,21.4-52.83,40.79,1.73,16.41,25.68,19.93,37.21,21.26C407.36,388.27,412.72,367,418,344.81Z"/><path class="cls-6" d="M413.46,363.56c-6.48-3.14-17.18-7.94-18.62-6.14-2.72,3.43,7.48,11.33,7.48,11.33s-21.07-2.72-22,.23,6.34,6.12,13.14,6.8c-10,1.77-19.75,5.85-19.3,8.54.6,3.52,7.75,2.45,17.72,2-4.08,3.4-11.3,7.69-9.18,9.18,4,2.84,19-3.06,19-3.06s-4,7.75-1,10.09c.56.43,1.57.31,2.85-.17C406.77,390.29,410.1,377.21,413.46,363.56Z"/><path class="cls-6" d="M410.93,350.85c-1.89,1.47.64,6,3.26,9.75.71-2.92,1.43-5.85,2.14-8.81C413.91,350.64,411.85,350.14,410.93,350.85Z"/><path class="cls-3" d="M382.29,331.32c0,10.38,14.23,19.13,33.7,21.9,3.53-14.6,7.05-29.68,10.43-44.68C401.81,309.24,382.29,319.17,382.29,331.32Z"/><path class="cls-7" d="M197.2,350.29s-30.54,51-6.42,77.53a82,82,0,0,1,18.57-2c18.4,0,33.71,5.44,37,12.63,14.5-5,27.21-14.22,34-23.4C280.37,415,227.25,369.39,197.2,350.29Z"/><path class="cls-8" d="M273.18,408.93c-13.83-11.65-44.81-37.32-67.88-53.26-9.83,14.62-26.26,54.38-2.69,71.45C227.58,445.2,264.5,423.25,273.18,408.93Z"/><path class="cls-6" d="M221.13,367.15c-8.38,3.17-20.61,8.28-20.25,11,.7,5.42,17.33,3.06,17.33,3.06s-21,12.06-18.63,17.26c1.58,3.47,12.07,3.14,19.31-4-7.15,10.55-11.12,23.58-8.31,25.52,3.68,2.53,12-4.78,20.89-15.66.69,4-.8,19,2.38,18.35,6.06-1.15,10.53-24.81,10.53-24.81s3.79,17.65,8.5,17c2.76-.39,3.71-10.59,4-19.48C246.28,386.7,233.42,376.39,221.13,367.15Z"/><path class="cls-9" d="M242.16,383.48c-3.42-2.73-6.92-5.49-10.45-8.23-5.94,11.38-11.13,25-8.57,26.53S235.08,393.49,242.16,383.48Z"/><ellipse class="cls-3" cx="281.56" cy="380.46" rx="46.9" ry="34.09"/><path class="cls-10" d="M263.87,375.1c9.18-16,75.12-11.9,81.91,5.78,3.28,8.51-4.18,81.73-50.26,75.48C259.31,451.45,256.75,387.49,263.87,375.1Z"/><path class="cls-5" d="M271.05,377c-7.18,6.34-6.9,68.78,28.06,69.72s41.86-53,39-63.43S284.59,365,271.05,377Z"/><path class="cls-6" d="M321.14,426.76c3.48-3.51-5.95-20.39-5.95-20.39s10.79,9.53,13.6,7-12.24-21.08-12.24-21.08,12.84,8.24,15.64,5.95S316.8,378.5,316.8,378.5s13.8,6.37,14.39,3.09c.45-2.48-10.56-11.25-24.66-11.59-3.35-.08-10.4,0-11.39.17-8.3,1.37-21.1,5.95-20,10.07.74,2.84,7.62,2.42,11.82,1.88-6.33,4.75-15.29,12.06-13.95,14.55,2,3.78,16.91-3.38,16.91-3.38s-16.82,18.11-14.6,20.59c2.93,3.25,13.92-4.89,13.92-4.89s-7,17.62-3.09,20c2.61,1.57,6.63-2,8.16-10,.07,10.19,6.11,19.21,8.84,19.21,3.57,0,5.17-8.25,8.16-19.21C313.56,421.26,319.32,428.6,321.14,426.76Z"/><path id="_Path_" data-name="&lt;Path&gt;" class="cls-9" d="M303,374.1c14,1.09,1.93,46.33-.67,46.48C299.21,420.76,289.15,373,303,374.1Z"/><ellipse class="cls-3" cx="209.35" cy="441.36" rx="37.7" ry="15.56"/><ellipse class="cls-3" cx="331.42" cy="451.52" rx="46.9" ry="29.25" transform="translate(-128.54 131.92) rotate(-18.93)"/><path class="cls-11" d="M118.11,416.23c13.72,13,25,12.29,36.57,15.06,6-36.89,13.84-106.23,13.84-106.23-6.66-.86-55.38,8.85-68.69,37C106,382.57,112.27,400.8,118.11,416.23Z"/><path class="cls-8" d="M113,402.42c11.41,11,30.36,16.32,43.34,17.89,4.15-27.91,8.73-66,10.89-84.39-17.06.93-56.83,11.89-63.45,39.09C106.91,384.76,110,393.92,113,402.42Z"/><path class="cls-6" d="M165.1,354.11c-3.52-4.38-6.94-7.77-8.62-7-4.22,2,2.86,18.56,2.86,18.56s-18.89-19.18-21.69-16.87c-3.68,3,4.64,15.37,4.64,15.37s-18.83-8.47-21.58-4.32c-1.84,2.76,1.89,7.31,10.51,9.36-11.09-.42-21.19,5.72-21.32,8.68-.17,3.88,8.72,6,20.49,9.8-2.63,2.36-10.89,8.28-9,10.35,3.65,3.95,22.47-5.48,22.47-5.48S133,403.86,135.65,407s23.51-12.29,23.51-12.29-9.58,13.56-7.22,16.72c.72,1,3.09-.15,6-2.16C160.54,391,163.13,370.39,165.1,354.11Z"/><path class="cls-9" d="M128.83,378.24c.06,1.69,18.13,7.62,32.2,8.39.62-4.82,1.23-9.61,1.82-14.28C148.54,371.76,128.76,376.19,128.83,378.24Z"/><path class="cls-4" d="M400.43,341.81s10.81-5.14,15.14-5.14l-3.52,8.92S402.86,343.7,400.43,341.81Z"/><path class="cls-4" d="M301.17,455.77s27.85-.91,35-25.76Z"/><path class="cls-4" d="M203.64,437.57s10.64,9.27,29.53,3.78C233.17,441.35,218.4,434.82,203.64,437.57Z"/><path class="cls-4" d="M227.62,356.52l-19.49-13.14S228.81,334.45,227.62,356.52Z"/><path class="cls-12" d="M438.36,227.21a104.6,104.6,0,0,1-39.94,72.64c-7.22,5.55-16,10.31-25,9-9.47-1.41-17.07-9.26-26.56-10.51-18-2.39-30.44,18.81-48.1,23-12,2.87-24.82-2.89-33.55-11.66s-14.2-20.19-19.51-31.37c0,0,34.69,6.27,98.16-7.49S438.36,227.21,438.36,227.21Z"/><g class="cls-13"><path class="cls-14" d="M438.36,227.21a104.6,104.6,0,0,1-39.94,72.64c-7.22,5.55-16,10.31-25,9-9.47-1.41-17.07-9.26-26.56-10.51-18-2.39-30.44,18.81-48.1,23-12,2.87-24.82-2.89-33.55-11.66s-14.2-20.19-19.51-31.37c0,0,34.69,6.27,98.16-7.49S438.36,227.21,438.36,227.21Z"/></g><path class="cls-15" d="M256.65,262c-38.19,2.63-188.1-70.23-185.11-40.57,2,20.44,5,40.21,8.5,59.1a28.14,28.14,0,0,1,19.24-3.56c9.2,1.74,17,8,21.86,15.86,6.19,10.06,4.27,20.16,3.82,31.52-.17,4.25-.32,8.62,1.09,12.64,2.78,7.87,12.06,12.81,20.14,10.7S160,336.7,158.54,328.47c-.55-3.21-2-6.25-2.23-9.5-.95-16,25.51-16.23,35.47-12.94,34.45,11.38,69.43,1.69,89.31-29.61a47.31,47.31,0,0,0,7.26-20.55C275.47,259.14,264.42,261.43,256.65,262Z"/><g class="cls-16"><path class="cls-14" d="M256.65,262c-38.19,2.63-188.1-70.23-185.11-40.57,2,20.44,5,40.21,8.5,59.1a28.14,28.14,0,0,1,19.24-3.56c9.2,1.74,17,8,21.86,15.86,6.19,10.06,4.27,20.16,3.82,31.52-.17,4.25-.32,8.62,1.09,12.64,2.78,7.87,12.06,12.81,20.14,10.7S160,336.7,158.54,328.47c-.55-3.21-2-6.25-2.23-9.5-.95-16,25.51-16.23,35.47-12.94,34.45,11.38,69.43,1.69,89.31-29.61a47.31,47.31,0,0,0,7.26-20.55C275.47,259.14,264.42,261.43,256.65,262Z"/></g><path class="cls-17" d="M338.84,241.6c-1.2,46.41-5.57,172.6-18.77,251.55,33.63-6.35,57.1-16.79,62.13-23.44,9.32-12.32,46.22-159.27,61.59-246.07C446.32,209.38,391.57,226,338.84,241.6Z"/><path class="cls-18" d="M320.67,246.94c-26.3,7.65-50.28,14.08-64,15-16.26,1.12-52.78-11.45-89.13-24-24-3.56-47.53-10.11-67.76-21.19a88.5,88.5,0,0,0-17.26-2.52c4.59,38.31,25,183.26,78.93,268.87,20.65,8.28,56.26,16,102.94,15.45a322.3,322.3,0,0,0,40.12-2.94C315.26,412.79,319.47,290,320.67,246.94Z"/><path class="cls-18" d="M125.29,228.18a137.16,137.16,0,0,1-25.53-11.37,88.5,88.5,0,0,0-17.26-2.52c4.59,38.31,25,183.26,78.93,268.87q2.53,1,5.36,2C141.92,406.92,131.23,342.2,125.29,228.18Z"/><path class="cls-19" d="M246.26,481.1c-70.25,8-117.13-27.42-140-50.66,11.54,30.18,20.84,49.69,22.78,52.9C136,494.82,186.12,514.83,264.44,514c68.57-.75,122.05-21,130.33-32,5.89-7.78,22.05-57.76,37.81-120.7C412.56,392.12,338.69,471.6,246.26,481.1Z"/><path class="cls-20" d="M53.07,209.43c-.67-48.32,114.22-89.24,215.76-86.85,89.16,2.1,193.94,42.73,193.7,83.41-.25,41.13-104.63,82-197.15,82C141.39,288,53.65,251.5,53.07,209.43Z"/><path class="cls-21" d="M102.44,87s-7.64-4.59-10.24-1.8c-2.29,2.45,4.16,9.33,4.16,9.33-4.3,1.15-8,4.09-7.19,6.58.75,2.34,6.63,2.65,8.74,1.72,1.08,4,3.83,6.38,6.11,6,2.69-.48,4.64-3.63,4.89-7.47,3.41.83,8-.5,8.58-3.26,1-4.54-5.77-6.77-5.77-6.77s-.84-12.69-4.78-13.54C101.21,76.49,102.44,87,102.44,87Z"/><path class="cls-22" d="M124.22,79.23c-19,2.2-33.17,22.65-30.31,41.19,2.43,15.81,16.9,27.56,35.71,25.84,19.89-1.83,30.13-24.12,29.6-36.46C158.56,94.46,146.56,76.63,124.22,79.23Z"/><path class="cls-23" d="M101.37,121.23c6.7,7.77,23.38,4.47,32.42-4.07,7.82-7.38,12.47-21.07,7-28-6.4-8.22-25.79-5.75-35.29,5C99.06,101.44,95.54,114.46,101.37,121.23Z"/><path class="cls-24" d="M214.42,5.82c-54.65,15-89.2,71.44-77.5,125.18,13.26,60.86,81.39,97.88,140.52,77.49C331,190,363.94,129,344.71,73.09,326.44,19.94,267.87-8.87,214.42,5.82Z"/><path class="cls-25" d="M259.62,14.32C215-.36,163.84,32.8,149.91,78.54,135.66,125.3,162,179.93,202.89,192c50.16,14.8,110.54-37.78,111.86-93.66C315.54,65.06,295.48,26.12,259.62,14.32Z"/><ellipse class="cls-26" cx="204.84" cy="115.53" rx="56.08" ry="31.1"/><ellipse class="cls-26" cx="307.23" cy="112.17" rx="56.08" ry="31.1" transform="translate(-3.44 9.91) rotate(-1.84)"/><path class="cls-27" d="M71.55,206.54C70.7,172.05,171.78,136.15,267.83,136c81.13-.14,176.44,34.72,176.22,67.77-.22,33.42-98.16,64.79-179.35,66.65C176.88,272.4,72.39,240.71,71.55,206.54Z"/><path class="cls-28" d="M329.38,85.86c-62.67-.22-118.42,53-115,116.67,1.44,26.6,12.94,49.94,30.19,67.75,6.75.22,13.47.26,20.09.11C341,268.65,432.06,240.84,443,209.76c.22-1.83.41-3.67.54-5.52C447.73,141.84,393.31,86.09,329.38,85.86Z"/><path class="cls-28" d="M329.38,85.86c-62.67-.22-118.42,53-115,116.67,1.44,26.6,12.94,49.94,30.19,67.75,6.75.22,13.47.26,20.09.11C341,268.65,432.06,240.84,443,209.76c.22-1.83.41-3.67.54-5.52C447.73,141.84,393.31,86.09,329.38,85.86Z"/><path class="cls-29" d="M329.38,85.86c-62.67-.22-118.42,53-115,116.67,1.44,26.6,12.94,49.94,30.19,67.75,6.75.22,13.47.26,20.09.11C341,268.65,432.06,240.84,443,209.76c.22-1.83.41-3.67.54-5.52C447.73,141.84,393.31,86.09,329.38,85.86Z"/><path class="cls-30" d="M423.85,197.89a2.89,2.89,0,0,0-3.61-.51,7.57,7.57,0,0,0-2.61,3.86,5.39,5.39,0,0,0,1.21,5.51,2.63,2.63,0,0,0,2.67.74,5,5,0,0,0,3.55-4.08A6.58,6.58,0,0,0,423.85,197.89Z"/><path class="cls-30" d="M315.39,129.9c-3.33-3.45,7.33-13.59,10.41-11S318.31,132.91,315.39,129.9Z"/><path class="cls-31" d="M368,200.06c.2-5.36,14.12-4.52,14.31,0C382.54,204.74,367.87,204.75,368,200.06Z"/><path class="cls-30" d="M397.86,154.5c-2.91-5.05,9.19-11.48,11.94-7.4C412.65,151.34,400.41,158.92,397.86,154.5Z"/><path class="cls-30" d="M356.1,107.89c-2.45.37-4,3.06-3.86,5.45s2.13,5,4.76,5,4.68-2.86,4.55-5.45C361.41,110.08,358.81,107.47,356.1,107.89Z"/><path class="cls-31" d="M337.78,237.16a4.22,4.22,0,0,1-3.48-4.4,4.4,4.4,0,0,1,4.3-4,4.29,4.29,0,0,1,4.09,4.4A4.51,4.51,0,0,1,337.78,237.16Z"/><path class="cls-32" d="M326.34,153c-2.58.46-4.78,3.59-4.19,5.65,1,3.4,9.67,4.27,10.94,2C334.21,158.65,330.49,152.27,326.34,153Z"/><path class="cls-31" d="M377.11,144.62c2.63.44,5.79-1.79,5.93-4,.23-3.58-7.77-7.38-9.75-5.65C371.53,136.55,372.9,143.91,377.11,144.62Z"/><path class="cls-33" d="M424.69,137.31c8.17,83.94-107.74,127.11-165.27,74.3C240.36,194.12,232.12,168.09,231,143c0-.91,0-1.8,0-2.71a105.09,105.09,0,0,0-16.56,62.25c1.44,26.6,12.94,49.94,30.19,67.75,6.75.22,13.47.26,20.09.11C341,268.65,432.06,240.84,443,209.76c.22-1.83.41-3.67.54-5.52C445.14,180,437.91,156.69,424.69,137.31Z"/><path class="cls-34" d="M323.62,220.65c0-52.87-34.51-96.06-78-98.95-20.47,21.1-32.92,49.71-31.23,80.83,1.44,26.6,12.94,49.94,30.19,67.75,6.76.22,13.47.26,20.09.11A398.05,398.05,0,0,0,314.48,266,114.93,114.93,0,0,0,323.62,220.65Z"/><path class="cls-35" d="M284.18,94.06c-5.95-12.57-20.38-20.2-33.75-18.23-12.4,1.83-22.12,8.75-26.61,21.34a32.48,32.48,0,0,0,19.65,41.57c16.45,5.88,35.67-3.16,41.58-19.66A32.37,32.37,0,0,0,284.18,94.06Z"/><path class="cls-36" d="M282.38,102c2.9-6.29-6.37-18.08-17.09-22.12-7.49-2.81-19.15-3.17-22.25,2.58s3.69,16,11.26,20.62C264.25,109.18,279.47,108.29,282.38,102Zm-21.26-5.37c-4.33-1.32-7.66-5.93-6.67-7.86s5.48-1.23,8.1-.44c3.64,1.1,8,4,7.55,6.2S264.86,97.76,261.12,96.62Z"/><path class="cls-37" d="M249.07,129.23a38.9,38.9,0,0,1-24.72-8.73,32.42,32.42,0,0,0,19.12,18.24c16.45,5.88,35.67-3.16,41.58-19.66a34,34,0,0,0,1.83-15.7C280.91,118.3,265.26,129.23,249.07,129.23Z"/><path class="cls-38" d="M262.38,91.48c1.26.43,2.05,1.46,1.76,2.31s-1.55,1.18-2.81.74-2.05-1.46-1.76-2.31S261.11,91,262.38,91.48Z"/><path class="cls-39" d="M306.39,206.79c-1.63-73.71-65-125.18-136.21-112.16-59.6,10.89-97.13,56.72-98.63,111.91h0c.84,34.17,105.33,65.86,193.15,63.85,7.49-.17,15.13-.59,22.81-1.25A106.14,106.14,0,0,0,306.39,206.79Z"/><path class="cls-39" d="M306.39,206.79c-1.63-73.71-65-125.18-136.21-112.16-59.6,10.89-97.13,56.72-98.63,111.91h0c.84,34.17,105.33,65.86,193.15,63.85,7.49-.17,15.13-.59,22.81-1.25A106.14,106.14,0,0,0,306.39,206.79Z"/><path class="cls-40" d="M196.47,111.19c-44.58-14.68-95.78,18.48-109.72,64.22-5.36,17.61-5,36.34-.22,53.49,24.34,18.48,75.09,33.69,127.87,39.28,21.31-18.27,36.54-45.21,37.2-73C252.38,161.93,232.32,123,196.47,111.19Z"/><path class="cls-41" d="M297.89,164.19c-.45.92-.9,1.83-1.38,2.74-14.05,43.2-62,71.46-106.24,71.46-31.5,0-56-5.86-78.78-26.74-12.62-11.58-26.22-33.37-30.14-49.53a118.21,118.21,0,0,0-9.8,44.42c.84,34.17,105.33,65.86,193.15,63.85,7.49-.17,15.13-.59,22.81-1.25a106.14,106.14,0,0,0,18.88-62.35A122.46,122.46,0,0,0,297.89,164.19Z"/><path class="cls-42" d="M180,216.8s3.52-8.18.42-10.38c-2.74-1.95-8.7,5.37-8.7,5.37-1.71-4.11-5.12-7.36-7.47-6.25s-1.74,6.92-.55,8.89c-3.86,1.61-5.81,4.65-5.1,6.86.83,2.6,4.21,4.11,8.05,3.84-.36,3.5,1.57,7.85,4.38,8.07,4.63.36,5.94-6.63,5.94-6.63s12.47-2.52,12.78-6.54C190.2,214.19,180,216.8,180,216.8Z"/><path class="cls-43" d="M179.4,219.88c-10.5-9.94-27.12-14.58-41.89-7.32-12.33,6.07-19.2,19.63-16.47,34.38,17.34,6.68,38,12.33,60.1,16.41C195.15,248.31,191,230.86,179.4,219.88Z"/><path class="cls-37" d="M188,232.27c-1.43,11.89-9,22.34-19.18,28.6q6.1,1.32,12.37,2.48C190.62,253.17,191.78,241.9,188,232.27Z"/><path class="cls-44" d="M159.36,250.6c9.79-10.14,9.38-29.73-.72-35.92-8.92-5.47-23.67.59-30,11-3.86,6.4-5.47,16-2.32,23.24,7.57,2.72,15.69,5.25,24.23,7.54A26.41,26.41,0,0,0,159.36,250.6Z"/><path class="cls-45" d="M167,117.8c-1.28-4.68,14.33-6.2,14.68-1.25C181.91,119.83,168.38,122.85,167,117.8Z"/><path class="cls-45" d="M251.68,144.69c2.06-4.3,11.62,2.29,8.85,6.4C258.7,153.82,249.45,149.33,251.68,144.69Z"/><path class="cls-45" d="M190,186.24c-3.42-3.91,6.29-10.29,9.27-5.79C201.21,183.44,193.64,190.45,190,186.24Z"/><path class="cls-46" d="M250,191.71c-2.59.47-4.79,3.6-4.2,5.65,1,3.41,9.67,4.27,10.94,2C257.86,197.35,254.13,191,250,191.71Z"/><path class="cls-30" d="M210.53,124.34c-4.23-2.26,1.32-11.79,5-10.13S214.23,126.32,210.53,124.34Z"/><path class="cls-30" d="M103.89,182.7c-.28-4.79,10.75-5,11.26-1C115.67,185.87,104.13,186.89,103.89,182.7Z"/><path class="cls-30" d="M244.75,248.73c-.27-4.79,6.9-5,7.41-1S245,252.92,244.75,248.73Z"/><path class="cls-47" d="M112.9,131.65a89.67,89.67,0,0,0-17.83,20.86c-4.17,6.71,6.16,12.7,10.57,6.18,4-5.9,10.32-12.56,15.91-18.39S118.86,126.56,112.9,131.65Z"/><path class="cls-47" d="M136.15,119.61a6.11,6.11,0,0,0-8.66,0,6.36,6.36,0,0,0-1.79,4.32v.32a6.32,6.32,0,0,0,1.79,4.33,6.13,6.13,0,0,0,8.66,0,6.36,6.36,0,0,0,1.79-4.33v-.32A6.29,6.29,0,0,0,136.15,119.61Z"/><path class="cls-18" d="M175.16,34.57a89.63,89.63,0,0,0-17.77,20.91c-4.16,6.72,6.19,12.68,10.58,6.15,4-5.91,10.29-12.58,15.87-18.43S181.11,29.47,175.16,34.57Z"/><path class="cls-18" d="M198.38,22.47A6.24,6.24,0,0,0,194,20.69a6.18,6.18,0,0,0-4.32,1.8,6.42,6.42,0,0,0-1.78,4.33v.32a6.31,6.31,0,0,0,1.81,4.32,6.12,6.12,0,0,0,8.65,0,6.4,6.4,0,0,0,1.78-4.33v-.32A6.35,6.35,0,0,0,198.38,22.47Z"/><path class="cls-48" d="M130.87,225.61c-2.58-1.22,4.85-9.81,6.7-8.15C139.6,219.29,133.42,226.82,130.87,225.61Z"/><path class="cls-48" d="M129.55,230.51a1.95,1.95,0,1,1-2.17-1.89A2,2,0,0,1,129.55,230.51Z"/></g></g></svg>