<?xml version="1.0" encoding="utf-8"?>
<!-- Generator: Adobe Illustrator 23.0.1, SVG Export Plug-In . SVG Version: 6.00 Build 0)  -->
<svg version="1.1" id="Layer_1" xmlns="http://www.w3.org/2000/svg" xmlns:xlink="http://www.w3.org/1999/xlink" x="0px" y="0px"
	 viewBox="0 0 82 82" style="enable-background:new 0 0 82 82;" xml:space="preserve">
<style type="text/css">
	.st0{fill:#FFE27A;}
	.st1{fill:#636892;}
	.st2{fill:#424C7E;}
	.st3{fill:#B0C4D9;}
	.st4{fill:#310E31;}
	.st5{fill:#71AC43;}
	.st6{fill:#94C14A;}
	.st7{fill:#BBD976;}
	.st8{fill:#9AC75E;}
	.st9{fill:#FFCB5B;}
	.st10{fill:#F6B545;}
	.st11{fill:#F19920;}
	.st12{fill:#E78825;}
	.st13{fill:#3689C9;}
	.st14{fill:#70B7E5;}
	.st15{fill:#4C9CD6;}
	.st16{fill:#FFE278;}
	.st17{fill:#2D3B6D;}
	.st18{fill:#82A7C4;}
	.st19{fill:#F79548;}
	.st20{fill:#53B7E8;}
	.st21{fill:#1C9AD6;}
	.st22{fill:#FFFFFF;}
	.st23{fill:#F37321;}
</style>
<g>
	<path class="st0" d="M36.07,64.32l-5.15-10.8c0.52-0.12,1.04-0.25,1.55-0.41c0.22-0.07,0.39-0.23,0.48-0.44s0.07-0.45-0.04-0.64
		l-5.87-10.77c0.51-0.11,1.01-0.24,1.51-0.41c0.21-0.07,0.39-0.23,0.47-0.43c0.09-0.2,0.08-0.43-0.02-0.63l-9.05-18.48
		c-0.34-0.68-1.05-1.13-1.83-1.13c-0.77,0-1.49,0.44-1.83,1.13L7.26,39.78c-0.1,0.2-0.1,0.43-0.02,0.63
		c0.09,0.2,0.26,0.36,0.47,0.43c0.5,0.16,1,0.29,1.51,0.41L3.36,52.02c-0.11,0.2-0.12,0.43-0.04,0.64c0.09,0.21,0.26,0.37,0.48,0.44
		c0.51,0.17,1.03,0.3,1.55,0.41L0.2,64.31c-0.09,0.2-0.1,0.43-0.01,0.63c0.09,0.2,0.26,0.35,0.47,0.42C2.3,65.9,4,66.17,5.73,66.17
		h9.39v2.53c0,2.94-0.68,5.84-2,8.47h10c-1.32-2.63-2-5.53-2-8.47v-2.53h9.39c1.73,0,3.43-0.27,5.07-0.81
		c0.21-0.07,0.38-0.22,0.47-0.42C36.16,64.75,36.16,64.52,36.07,64.32z"/>
</g>
<g>
	<path class="st0" d="M80.05,61.76l-6.57-14.09c0.67-0.15,1.33-0.32,1.98-0.54c0.28-0.09,0.5-0.3,0.61-0.58
		c0.11-0.27,0.09-0.58-0.05-0.84l-7.49-14.05c0.65-0.15,1.29-0.32,1.93-0.53c0.27-0.09,0.49-0.29,0.6-0.56
		c0.11-0.26,0.1-0.56-0.02-0.82L59.47,5.65c-0.43-0.89-1.34-1.47-2.33-1.47s-1.91,0.58-2.33,1.47l-11.57,24.1
		c-0.12,0.26-0.13,0.56-0.02,0.82s0.33,0.47,0.6,0.56c0.63,0.21,1.28,0.38,1.93,0.53l-7.49,14.05c-0.14,0.26-0.16,0.57-0.05,0.84
		s0.33,0.49,0.61,0.58c0.65,0.22,1.32,0.39,1.98,0.54l-6.57,14.09c-0.12,0.26-0.12,0.56-0.01,0.82s0.33,0.46,0.6,0.55
		c2.09,0.7,4.27,1.05,6.48,1.05h11.84v4.53c0,2.94-0.68,5.84-2,8.47h12c-1.32-2.63-2-5.53-2-8.47v-4.53h11.84
		c2.21,0,4.38-0.35,6.48-1.05c0.27-0.09,0.49-0.29,0.6-0.55C80.17,62.31,80.17,62.02,80.05,61.76z"/>
</g>
<g>
	<rect x="43.14" y="41.18" class="st1" width="20" height="36"/>
</g>
<g>
	<path class="st2" d="M46.14,42.18h-4v11h5v-8c0-1.1,0.9-2,2-2h13v-1H46.14z"/>
</g>
<g>
	<rect x="52.14" y="42.18" class="st3" width="4" height="25"/>
</g>
<g>
	<path class="st2" d="M43.14,59.18h7c0.55,0,1-0.45,1-1v-4c0-0.55-0.45-1-1-1h-7V59.18z"/>
</g>
<g>
	<rect x="46.14" y="59.18" class="st2" width="4" height="8"/>
</g>
<g>
	<rect x="43.14" y="37.18" class="st2" width="21" height="4"/>
</g>
<path class="st4" d="M64.14,36.18h-21c-0.55,0-1,0.45-1,1v4v36c0,0.55,0.45,1,1,1h20c0.55,0,1-0.45,1-1v-35c0.55,0,1-0.45,1-1v-4
	C65.14,36.63,64.69,36.18,64.14,36.18z M44.14,38.18h19v2h-19V38.18z M62.14,76.18h-18v-34h18V76.18z"/>
<g>
	<g>
		<rect x="50.14" y="23.18" class="st5" width="10" height="14"/>
	</g>
	<g>
		<polygon class="st6" points="50.14,27.18 50.14,30.18 57.14,23.18 54.14,23.18 		"/>
	</g>
	<g>
		<polygon class="st6" points="60.14,26.18 60.14,23.18 50.14,33.18 50.14,36.18 		"/>
	</g>
	<g>
		<polygon class="st6" points="60.14,32.18 60.14,29.18 52.14,37.18 55.14,37.18 		"/>
	</g>
	<g>
		<rect x="22.14" y="23.18" class="st7" width="28" height="14"/>
	</g>
	<g>
		<g>
			<polygon class="st8" points="25.14,37.18 28.14,37.18 42.14,23.18 39.14,23.18 			"/>
		</g>
		<g>
			<polygon class="st8" points="31.14,37.18 34.14,37.18 48.14,23.18 45.14,23.18 			"/>
		</g>
		<g>
			<polygon class="st8" points="37.14,37.18 40.14,37.18 50.14,27.18 50.14,24.18 			"/>
		</g>
		<g>
			<polygon class="st8" points="22.14,34.18 22.14,37.18 36.14,23.18 33.14,23.18 			"/>
		</g>
		<g>
			<polygon class="st8" points="22.14,28.18 22.14,31.18 30.14,23.18 27.14,23.18 			"/>
		</g>
		<g>
			<polygon class="st8" points="50.14,33.18 50.14,30.18 43.14,37.18 46.14,37.18 			"/>
		</g>
	</g>
	<path class="st4" d="M60.14,22.18h-10h-28c-0.55,0-1,0.45-1,1v14c0,0.55,0.45,1,1,1h28h10c0.55,0,1-0.45,1-1v-14
		C61.14,22.63,60.69,22.18,60.14,22.18z M23.14,24.18h26v12h-26V24.18z M59.14,36.18h-8v-12h8V36.18z"/>
</g>
<g>
	<g>
		<rect x="10.14" y="58.18" class="st9" width="22" height="19"/>
	</g>
	<g>
		<rect x="32.14" y="58.18" class="st10" width="14" height="19"/>
	</g>
	<g>
		<polygon class="st10" points="19.14,76.18 16.14,76.18 11.14,71.18 11.14,68.18 		"/>
	</g>
	<g>
		<polygon class="st10" points="25.14,76.18 22.14,76.18 11.14,65.18 11.14,62.18 		"/>
	</g>
	<g>
		<polygon class="st10" points="31.14,76.18 28.14,76.18 11.14,59.18 14.14,59.18 		"/>
	</g>
	<g>
		<polygon class="st10" points="31.14,70.18 31.14,73.18 17.14,59.18 20.14,59.18 		"/>
	</g>
	<g>
		<polygon class="st10" points="31.14,64.18 31.14,67.18 23.14,59.18 26.14,59.18 		"/>
	</g>
	<g>
		<polygon class="st10" points="31.14,61.18 29.14,59.18 31.14,59.18 		"/>
	</g>
	<g>
		<polygon class="st10" points="11.14,74.18 13.14,76.18 11.14,76.18 		"/>
	</g>
	<g>
		<polygon class="st11" points="44.14,76.18 41.14,76.18 33.14,68.18 33.14,65.18 		"/>
	</g>
	<g>
		<polygon class="st11" points="45.14,71.18 45.14,74.18 33.14,62.18 33.14,59.18 		"/>
	</g>
	<g>
		<polygon class="st11" points="45.14,65.18 45.14,68.18 36.14,59.18 39.14,59.18 		"/>
	</g>
	<g>
		<polygon class="st11" points="45.14,62.18 42.14,59.18 45.14,59.18 		"/>
	</g>
	<g>
		<polygon class="st11" points="33.14,74.18 33.14,71.18 38.14,76.18 35.14,76.18 		"/>
	</g>
	<g>
		<rect x="11.14" y="59.18" class="st10" width="20" height="1"/>
	</g>
	<g>
		<polygon class="st11" points="29.14,59.18 30.14,60.18 31.14,60.18 31.14,59.18 		"/>
	</g>
	<g>
		<polygon class="st11" points="15.14,60.18 14.14,59.18 11.14,59.18 12.14,60.18 		"/>
	</g>
	<g>
		<polygon class="st11" points="21.14,60.18 20.14,59.18 17.14,59.18 18.14,60.18 		"/>
	</g>
	<g>
		<polygon class="st11" points="27.14,60.18 26.14,59.18 23.14,59.18 24.14,60.18 		"/>
	</g>
	<g>
		<polygon class="st12" points="40.14,60.18 39.14,59.18 36.14,59.18 37.14,60.18 		"/>
	</g>
	<g>
		<polygon class="st12" points="45.14,60.18 45.14,59.18 42.14,59.18 43.14,60.18 		"/>
	</g>
	<g>
		<polygon class="st11" points="43.14,60.18 42.14,59.18 39.14,59.18 40.14,60.18 		"/>
	</g>
	<g>
		<polygon class="st11" points="37.14,60.18 36.14,59.18 33.14,59.18 34.14,60.18 		"/>
	</g>
	<g>
		<polygon class="st12" points="34.14,60.18 33.14,59.18 33.14,60.18 		"/>
	</g>
</g>
<g>
	<g>
		<rect x="9.14" y="54.18" class="st11" width="23" height="4"/>
	</g>
	<g>
		<rect x="32.14" y="54.18" class="st12" width="15" height="4"/>
	</g>
</g>
<path class="st4" d="M47.14,53.18h-15h-23c-0.55,0-1,0.45-1,1v4c0,0.55,0.45,1,1,1v18c0,0.55,0.45,1,1,1h22h14c0.55,0,1-0.45,1-1
	v-18c0.55,0,1-0.45,1-1v-4C48.14,53.63,47.69,53.18,47.14,53.18z M46.14,57.18h-13v-2h13V57.18z M10.14,55.18h21v2h-21
	C10.14,57.18,10.14,55.18,10.14,55.18z M11.14,76.18v-17h20v17H11.14z M45.14,76.18h-12v-17h12V76.18z"/>
<g>
	<g>
		<rect x="25.14" y="34.18" class="st13" width="18" height="20"/>
	</g>
	<g>
		<rect x="15.14" y="34.18" class="st14" width="10" height="20"/>
	</g>
	<g>
		<rect x="15.14" y="43.18" class="st0" width="10" height="2"/>
	</g>
	<g>
		<rect x="25.14" y="43.18" class="st10" width="18" height="2"/>
	</g>
	<g>
		<rect x="33.14" y="34.18" class="st10" width="2" height="20"/>
	</g>
	<path class="st4" d="M43.14,33.18h-18h-10c-0.55,0-1,0.45-1,1v20c0,0.55,0.45,1,1,1h10h18c0.55,0,1-0.45,1-1v-20
		C44.14,33.63,43.69,33.18,43.14,33.18z M16.14,35.18h8v18h-8V35.18z M42.14,53.18h-16v-18h16V53.18z"/>
</g>
<g>
	<path class="st4" d="M81.14,78.18h-80c-0.55,0-1-0.45-1-1s0.45-1,1-1h80c0.55,0,1,0.45,1,1S81.69,78.18,81.14,78.18z"/>
</g>
<g>
	<g>
		<rect x="43.14" y="68.18" class="st15" width="33" height="9"/>
	</g>
	<g>
		<path class="st4" d="M76.14,78.18h-33c-0.55,0-1-0.45-1-1v-9c0-0.55,0.45-1,1-1h33c0.55,0,1,0.45,1,1v9
			C77.14,77.73,76.69,78.18,76.14,78.18z M44.14,76.18h31v-7h-31V76.18z"/>
	</g>
	<g>
		<g>
			<circle class="st16" cx="61.64" cy="70.68" r="0.5"/>
		</g>
		<g>
			<circle class="st16" cx="63.64" cy="72.68" r="0.5"/>
		</g>
		<g>
			<circle class="st16" cx="61.64" cy="74.68" r="0.5"/>
		</g>
		<g>
			<circle class="st16" cx="65.64" cy="70.68" r="0.5"/>
		</g>
		<g>
			<circle class="st16" cx="67.64" cy="72.68" r="0.5"/>
		</g>
		<g>
			<circle class="st16" cx="65.64" cy="74.68" r="0.5"/>
		</g>
		<g>
			<circle class="st16" cx="69.64" cy="70.68" r="0.5"/>
		</g>
		<g>
			<circle class="st16" cx="71.64" cy="72.68" r="0.5"/>
		</g>
		<g>
			<circle class="st16" cx="69.64" cy="74.68" r="0.5"/>
		</g>
		<g>
			<circle class="st16" cx="73.64" cy="70.68" r="0.5"/>
		</g>
		<g>
			<circle class="st16" cx="73.64" cy="74.68" r="0.5"/>
		</g>
		<g>
			<circle class="st16" cx="59.64" cy="72.68" r="0.5"/>
		</g>
		<g>
			<circle class="st16" cx="57.64" cy="70.68" r="0.5"/>
		</g>
		<g>
			<circle class="st16" cx="57.64" cy="74.68" r="0.5"/>
		</g>
		<g>
			<circle class="st16" cx="55.64" cy="72.68" r="0.5"/>
		</g>
		<g>
			<circle class="st16" cx="53.64" cy="70.68" r="0.5"/>
		</g>
		<g>
			<circle class="st16" cx="53.64" cy="74.68" r="0.5"/>
		</g>
		<g>
			<circle class="st16" cx="51.64" cy="72.68" r="0.5"/>
		</g>
		<g>
			<circle class="st16" cx="49.64" cy="70.68" r="0.5"/>
		</g>
		<g>
			<circle class="st16" cx="49.64" cy="74.68" r="0.5"/>
		</g>
		<g>
			<circle class="st16" cx="45.64" cy="70.68" r="0.5"/>
		</g>
		<g>
			<circle class="st16" cx="45.64" cy="74.68" r="0.5"/>
		</g>
		<g>
			<circle class="st16" cx="47.64" cy="72.68" r="0.5"/>
		</g>
	</g>
</g>
<g>
	<g>
		<rect x="54.14" y="54.18" class="st7" width="16" height="14"/>
	</g>
	<path class="st4" d="M70.14,53.18h-4l0,0V52.2c0-0.57-0.55-1.02-1.23-1.02c-0.24,0-0.48,0.06-0.68,0.17l-2.09,1.16l-2.09-1.16
		c-0.2-0.11-0.44-0.17-0.68-0.17c-0.68,0-1.23,0.46-1.23,1.02v0.98l0,0h-4c-0.55,0-1,0.45-1,1v14c0,0.55,0.45,1,1,1h16
		c0.55,0,1-0.45,1-1v-14C71.14,53.63,70.69,53.18,70.14,53.18z M69.14,67.18h-14v-12h14V67.18z"/>
	<g>
		<rect x="60.14" y="55.18" class="st5" width="4" height="12"/>
	</g>
</g>
<g>
	<g>
		<rect x="37.14" y="9.18" class="st9" width="16" height="14"/>
	</g>
	<g>
		<path class="st4" d="M53.14,24.18h-16c-0.55,0-1-0.45-1-1v-14c0-0.55,0.45-1,1-1h16c0.55,0,1,0.45,1,1v14
			C54.14,23.73,53.69,24.18,53.14,24.18z M38.14,22.18h14v-12h-14V22.18z"/>
	</g>
	<g>
		<rect x="43.14" y="10.18" class="st15" width="4" height="12"/>
	</g>
</g>
<g>
	<rect x="52.14" y="38.18" class="st3" width="4" height="2"/>
</g>
<g>
	<rect x="44.14" y="38.18" class="st17" width="2" height="2"/>
</g>
<g>
	<rect x="52.14" y="42.18" class="st18" width="4" height="1"/>
</g>
<g>
	<circle class="st19" cx="68.14" cy="63.18" r="5"/>
</g>
<g>
	<circle class="st20" cx="33.14" cy="18.18" r="5"/>
</g>
<path class="st4" d="M33.14,12.18c-0.78,0-1.52,0.15-2.21,0.43c-0.03-0.04-0.05-0.09-0.09-0.13c-0.39-0.39-1.02-0.39-1.41,0
	l-0.29,0.29l-0.29-0.29c-0.39-0.39-1.02-0.39-1.41,0s-0.39,1.02,0,1.41l0.29,0.29l-0.29,0.29c-0.39,0.39-0.39,1.02,0,1.41
	c0.04,0.04,0.09,0.06,0.13,0.09c-0.27,0.68-0.43,1.43-0.43,2.21c0,3.31,2.69,6,6,6s6-2.69,6-6S36.45,12.18,33.14,12.18z
	 M33.14,22.18c-2.21,0-4-1.79-4-4s1.79-4,4-4s4,1.79,4,4S35.35,22.18,33.14,22.18z"/>
<path class="st4" d="M73.85,59.47l-0.29-0.29l0.29-0.29c0.39-0.39,0.39-1.02,0-1.41s-1.02-0.39-1.41,0l-0.29,0.29l-0.29-0.29
	c-0.39-0.39-1.02-0.39-1.41,0c-0.04,0.04-0.06,0.09-0.09,0.13c-0.68-0.27-1.43-0.43-2.21-0.43c-3.31,0-6,2.69-6,6c0,3.31,2.69,6,6,6
	s6-2.69,6-6c0-0.78-0.15-1.52-0.43-2.21c0.04-0.03,0.09-0.05,0.13-0.09C74.24,60.5,74.24,59.86,73.85,59.47z M68.14,67.18
	c-2.21,0-4-1.79-4-4s1.79-4,4-4s4,1.79,4,4S70.35,67.18,68.14,67.18z"/>
<g>
	<path class="st21" d="M36.96,17.04c-0.2-0.68-1.11-0.81-1.48-0.21c-0.42,0.69-0.97,1.39-1.63,2.05s-1.36,1.21-2.05,1.63
		C31.19,20.89,31.32,21.8,32,22c1.36,0.41,2.89,0.08,3.97-0.99C37.04,19.93,37.37,18.4,36.96,17.04z"/>
</g>
<g>
	<circle class="st22" cx="31.64" cy="16.68" r="0.5"/>
</g>
<g>
	<path class="st23" d="M71.96,62.04c-0.2-0.68-1.11-0.81-1.48-0.21c-0.42,0.69-0.97,1.39-1.63,2.05c-0.66,0.66-1.36,1.21-2.05,1.63
		C66.19,65.89,66.32,66.8,67,67c1.36,0.41,2.89,0.08,3.97-0.99C72.04,64.93,72.37,63.4,71.96,62.04z"/>
</g>
<g>
	<circle class="st22" cx="66.64" cy="61.68" r="0.5"/>
</g>
<g>
	<path class="st10" d="M34.14,44.18l3.6-2.7c0.26-0.19,0.58-0.3,0.9-0.3l0,0c0.83,0,1.5,0.67,1.5,1.5v3c0,0.83-0.67,1.5-1.5,1.5l0,0
		c-0.32,0-0.64-0.11-0.9-0.3L34.14,44.18z"/>
	<path class="st10" d="M34.14,44.18l-3.6-2.7c-0.26-0.19-0.58-0.3-0.9-0.3l0,0c-0.83,0-1.5,0.67-1.5,1.5v3c0,0.83,0.67,1.5,1.5,1.5
		l0,0c0.32,0,0.64-0.11,0.9-0.3L34.14,44.18z"/>
	<g>
		<circle class="st10" cx="34.14" cy="44.18" r="2"/>
		<path class="st4" d="M38.64,40.68c-0.43,0-0.86,0.14-1.2,0.4l-1.65,1.24c-0.44-0.39-1.02-0.64-1.65-0.64
			c-0.64,0-1.21,0.25-1.65,0.64l-1.65-1.24c-0.34-0.26-0.77-0.4-1.2-0.4c-1.1,0-2,0.9-2,2v3c0,1.1,0.9,2,2,2
			c0.43,0,0.86-0.14,1.2-0.4l1.65-1.24c0.44,0.39,1.02,0.64,1.65,0.64c0.64,0,1.21-0.25,1.65-0.64l1.65,1.24
			c0.34,0.26,0.77,0.4,1.2,0.4c1.1,0,2-0.9,2-2v-3C40.64,41.58,39.74,40.68,38.64,40.68z M30.24,46.48c-0.17,0.13-0.39,0.2-0.6,0.2
			c-0.55,0-1-0.45-1-1v-3c0-0.55,0.45-1,1-1c0.22,0,0.43,0.07,0.6,0.2l1.65,1.24c-0.11,0.23-0.18,0.48-0.21,0.74l-1.76,0.88
			c-0.25,0.12-0.35,0.42-0.22,0.67c0.09,0.17,0.26,0.28,0.45,0.28c0.08,0,0.15-0.02,0.22-0.05l1.4-0.7
			c0.03,0.11,0.07,0.22,0.12,0.32L30.24,46.48z M34.14,45.68c-0.83,0-1.5-0.67-1.5-1.5s0.67-1.5,1.5-1.5s1.5,0.67,1.5,1.5
			S34.97,45.68,34.14,45.68z M39.64,45.68c0,0.55-0.45,1-1,1c-0.21,0-0.43-0.07-0.6-0.2l-1.65-1.24c0.05-0.1,0.09-0.21,0.12-0.32
			l1.4,0.7c0.07,0.04,0.15,0.05,0.22,0.05c0.18,0,0.36-0.1,0.45-0.28c0.12-0.25,0.02-0.55-0.22-0.67l-1.76-0.88
			c-0.03-0.26-0.11-0.51-0.21-0.74l1.65-1.24c0.17-0.13,0.39-0.2,0.6-0.2c0.55,0,1,0.45,1,1C39.64,42.66,39.64,45.68,39.64,45.68z"
			/>
	</g>
</g>
<g>
	<path class="st14" d="M45.14,9.18l3.6-2.7c0.26-0.19,0.58-0.3,0.9-0.3l0,0c0.83,0,1.5,0.67,1.5,1.5v3c0,0.83-0.67,1.5-1.5,1.5l0,0
		c-0.32,0-0.64-0.11-0.9-0.3L45.14,9.18z"/>
	<path class="st14" d="M45.14,9.18l-3.6-2.7c-0.26-0.19-0.58-0.3-0.9-0.3l0,0c-0.83,0-1.5,0.67-1.5,1.5v3c0,0.83,0.67,1.5,1.5,1.5
		l0,0c0.32,0,0.64-0.11,0.9-0.3L45.14,9.18z"/>
	<g>
		<circle class="st14" cx="45.14" cy="9.18" r="2"/>
		<path class="st4" d="M49.64,5.68c-0.44,0-0.85,0.14-1.2,0.4l-1.65,1.24c-0.44-0.39-1.02-0.64-1.65-0.64
			c-0.64,0-1.21,0.25-1.65,0.64l-1.65-1.24c-0.34-0.26-0.77-0.4-1.2-0.4c-1.1,0-2,0.9-2,2v3c0,1.1,0.9,2,2,2
			c0.43,0,0.86-0.14,1.2-0.4l1.65-1.24c0.44,0.39,1.02,0.64,1.65,0.64c0.64,0,1.21-0.25,1.65-0.64l1.65,1.24
			c0.34,0.26,0.77,0.4,1.2,0.4c1.1,0,2-0.9,2-2v-3C51.64,6.58,50.74,5.68,49.64,5.68z M41.24,11.48c-0.17,0.13-0.39,0.2-0.6,0.2
			c-0.55,0-1-0.45-1-1v-3c0-0.55,0.45-1,1-1c0.22,0,0.43,0.07,0.6,0.2l1.65,1.24c-0.11,0.23-0.18,0.48-0.21,0.74l-1.76,0.88
			c-0.25,0.12-0.35,0.42-0.22,0.67c0.09,0.18,0.26,0.28,0.45,0.28c0.08,0,0.15-0.02,0.22-0.05l1.4-0.7
			c0.03,0.11,0.07,0.22,0.12,0.32L41.24,11.48z M45.14,10.68c-0.83,0-1.5-0.67-1.5-1.5s0.67-1.5,1.5-1.5s1.5,0.67,1.5,1.5
			S45.97,10.68,45.14,10.68z M50.64,10.68c0,0.55-0.45,1-1,1c-0.22,0-0.43-0.07-0.6-0.2l-1.65-1.23c0.05-0.1,0.09-0.21,0.12-0.32
			l1.4,0.7c0.07,0.04,0.15,0.05,0.22,0.05c0.18,0,0.36-0.1,0.45-0.28c0.12-0.25,0.02-0.55-0.22-0.67L47.6,8.85
			c-0.03-0.26-0.11-0.51-0.21-0.74l1.65-1.24c0.17-0.13,0.38-0.2,0.6-0.2c0.55,0,1,0.45,1,1C50.64,7.67,50.64,10.68,50.64,10.68z"/>
	</g>
</g>
<g>
	<path class="st22" d="M71.64,41.68L71.64,41.68c-0.55,0-1-0.45-1-1l0,0c0-0.28-0.22-0.5-0.5-0.5s-0.5,0.22-0.5,0.5l0,0
		c0,0.55-0.45,1-1,1l0,0c-0.28,0-0.5,0.22-0.5,0.5s0.22,0.5,0.5,0.5l0,0c0.55,0,1,0.45,1,1l0,0c0,0.28,0.22,0.5,0.5,0.5
		s0.5-0.22,0.5-0.5l0,0c0-0.55,0.45-1,1-1l0,0c0.28,0,0.5-0.22,0.5-0.5S71.92,41.68,71.64,41.68z"/>
</g>
<g>
	<path class="st0" d="M6.64,70.68L6.64,70.68c-0.55,0-1-0.45-1-1l0,0c0-0.28-0.22-0.5-0.5-0.5s-0.5,0.22-0.5,0.5l0,0
		c0,0.55-0.45,1-1,1l0,0c-0.28,0-0.5,0.22-0.5,0.5s0.22,0.5,0.5,0.5l0,0c0.55,0,1,0.45,1,1l0,0c0,0.28,0.22,0.5,0.5,0.5
		s0.5-0.22,0.5-0.5l0,0c0-0.55,0.45-1,1-1l0,0c0.28,0,0.5-0.22,0.5-0.5S6.92,70.68,6.64,70.68z"/>
</g>
<g>
	<path class="st0" d="M68.64,6.68L68.64,6.68c-0.55,0-1-0.45-1-1l0,0c0-0.28-0.22-0.5-0.5-0.5s-0.5,0.22-0.5,0.5l0,0
		c0,0.55-0.45,1-1,1l0,0c-0.28,0-0.5,0.22-0.5,0.5c0,0.28,0.22,0.5,0.5,0.5l0,0c0.55,0,1,0.45,1,1l0,0c0,0.28,0.22,0.5,0.5,0.5
		s0.5-0.22,0.5-0.5l0,0c0-0.55,0.45-1,1-1l0,0c0.28,0,0.5-0.22,0.5-0.5C69.14,6.9,68.92,6.68,68.64,6.68z"/>
</g>
<g>
	<circle class="st0" cx="29.64" cy="6.68" r="0.5"/>
</g>
<g>
	<circle class="st0" cx="66.64" cy="12.68" r="0.5"/>
</g>
<g>
	<circle class="st0" cx="22.64" cy="9.68" r="0.5"/>
</g>
<g>
	<circle class="st0" cx="1.64" cy="73.68" r="0.5"/>
</g>
<g>
	<circle class="st0" cx="72.64" cy="34.68" r="0.5"/>
</g>
<g>
	<circle class="st0" cx="5.64" cy="32.68" r="0.5"/>
</g>
<g>
	<circle class="st0" cx="71.64" cy="21.68" r="0.5"/>
</g>
<g>
	<circle class="st22" cx="73.64" cy="52.68" r="0.5"/>
</g>
<g>
	<circle class="st0" cx="79.64" cy="67.68" r="0.5"/>
</g>
<g>
	<circle class="st22" cx="67.64" cy="48.68" r="0.5"/>
</g>
<g>
	<circle class="st22" cx="65.64" cy="25.68" r="0.5"/>
</g>
<g>
	<circle class="st22" cx="11.64" cy="47.68" r="0.5"/>
</g>
<g>
	<circle class="st22" cx="16.64" cy="28.68" r="0.5"/>
</g>
<g>
	<circle class="st22" cx="57.64" cy="10.68" r="0.5"/>
</g>
<g>
	<circle class="st0" cx="23.14" cy="15.18" r="1"/>
</g>
<g>
	<circle class="st0" cx="70.14" cy="17.18" r="1"/>
</g>
<g>
	<circle class="st0" cx="10.14" cy="26.18" r="1"/>
</g>
<g>
	<circle class="st22" cx="57.14" cy="16.18" r="1"/>
</g>
<g>
	<circle class="st22" cx="8.14" cy="50.18" r="1"/>
</g>
</svg>
