<?xml version="1.0" encoding="utf-8"?>
<!-- Generator: Adobe Illustrator 23.0.1, SVG Export Plug-In . SVG Version: 6.00 Build 0)  -->
<svg version="1.1" id="Layer_1" xmlns="http://www.w3.org/2000/svg" xmlns:xlink="http://www.w3.org/1999/xlink" x="0px" y="0px"
	 viewBox="0 0 80 80" style="enable-background:new 0 0 80 80;" xml:space="preserve">
<style type="text/css">
	.st0{fill:#F2F7E7;}
	.st1{fill:#E8F1D3;}
	.st2{fill:#DBEAB7;}
	.st3{fill:#9AC75E;}
	.st4{fill:#71AC43;}
	.st5{fill:#310E31;}
	.st6{fill:#EF3B3D;}
	.st7{fill:#FFCB5B;}
	.st8{fill:#FFEDA9;}
	.st9{fill:#F19920;}
	.st10{fill:#D56D27;}
	.st11{fill:#BA5D28;}
	.st12{fill:#E78825;}
	.st13{fill:#F6B545;}
	.st14{fill:#D12727;}
	.st15{fill:#EF3824;}
	.st16{fill:#F16046;}
	.st17{fill:#A21E21;}
	.st18{fill:#C92625;}
	.st19{fill:#D2202C;}
</style>
<g>
	<circle class="st0" cx="40" cy="39" r="34"/>
</g>
<g>
	<circle class="st1" cx="40" cy="39" r="32"/>
</g>
<g>
	<circle class="st2" cx="40" cy="39" r="30"/>
</g>
<g>
	<path class="st3" d="M71,44.19c-4.99-3.21-7.55-9.25-5.72-13.48c-3.77,1.63-8.97-0.23-12.33-4.18c0.34-0.2,0.68-0.39,1.05-0.53
		c-4.42-1.75-6.96-8.02-5.66-14c-4.27,1.08-8.09-1.32-9.34-5c-1.25,3.68-5.07,6.08-9.34,5c1.3,5.98-1.24,12.25-5.66,14
		c0.82,0.32,1.57,0.8,2.25,1.41c-3.35,3.35-8.05,4.82-11.53,3.31c1.83,4.23-0.73,10.27-5.72,13.48c3.67,2.19,4.64,6.45,2.98,9.83
		c3.38-1.67,7.64-0.69,9.83,2.98c3.21-4.99,9.25-7.55,13.48-5.72c-1.22-2.82-0.48-6.45,1.62-9.5c0.94,0.87,1.67,1.97,2.09,3.22
		c0.6-1.78,1.81-3.25,3.37-4.18c2.65,3.23,3.7,7.34,2.35,10.46c4.23-1.83,10.27,0.73,13.48,5.72c2.19-3.67,6.45-4.64,9.83-2.98
		C66.36,50.65,67.33,46.38,71,44.19z"/>
	<g>
		<path class="st4" d="M42,29c-1.18-1.75-1.35-6.02-1-12c-0.48,0.45-0.85-0.59-1.14-2.23c-0.29-1.63-2.37-2.03-3.3-0.67
			C35.97,14.96,35.4,15.38,35,15c0.35,5.98-1.82,10.25-3,12c1.18,1.75,4,8-1,10c0.2,0.81,1.51,1.68,3.01,2.67
			c0.1,0.34,0.17,0.61,0.18,0.63l0.02,0.06c0.2,0.74,0.03,1.52-0.43,2.13c-1.17,1.56-1.71,3.11-1.24,4.67
			c-3.38-1.01-8.1,4.05-11.52,8.73c0.28,0.34,0.55,0.7,0.79,1.1c3.21-4.99,9.25-7.55,13.48-5.72c-0.95-2.2,0.03-6.28,1.17-8.8
			c0.1-0.22,2.41,1.01,2.54,2.52c0.33-3.68,1-2,2.49-5C41.14,34.02,40.82,30.75,42,29z"/>
		<path class="st4" d="M29.11,41c0.09-0.46,0.29-0.93,0.61-1.42c0.01-0.01,0.01-0.01,0.02-0.02c0.87-4.69-0.58-9.49-3.42-12.08
			c-0.66,1.14-0.58,2.61,0.36,3.59c0.03,0.03,0.06,0.06,0.09,0.1c0.91,0.92,0.62,2.46-0.59,2.92c-2.26,0.86-4.29,1.24-5.29,1.43
			c-0.39,2.01-1.83,6.42-6.17,10.28c0.53,0.01,0.64,0.69,0.45,1.68c-0.3,1.57,1.41,2.72,2.72,1.81c1.32-0.92,2.3-1.38,2.31-0.75
			C24.06,44.2,27.11,41.39,29.11,41z"/>
		<path class="st4" d="M47.46,47.17c0.47-1.56-0.07-3.11-1.24-4.67c-0.46-0.61-0.63-1.4-0.43-2.13l0.02-0.06
			c0.06-0.21,0.15-0.39,0.24-0.56c-1.36,0.04-2.61,0.43-3.7,1.08c0.49,0.7,1.71,2.56,1.93,3.05c1.14,2.52,1.38,5.21,0.43,7.4
			c4.23-1.83,10.27,0.73,13.48,5.72c0.24-0.4,0.5-0.76,0.79-1.1C55.56,51.22,50.84,46.16,47.46,47.17z"/>
		<path class="st4" d="M54,26c-4.42-1.75-6.96-8.02-5.66-14c-0.46,0.12-0.92,0.19-1.37,0.22C46.04,18.14,45.8,25.27,49,27
			c-3.2,1.73-2.96,6.86-2.03,12.78c0.45,0.04,0.91,0.11,1.37,0.22c0,0,2.46,0.54,2.55,1c2.01,0.39,5.05,3.2,8.91,7.54
			c0.02-0.64,0.99-0.18,2.31,0.75c1.31,0.91,3.02-0.24,2.72-1.81c-0.19-0.99-0.08-1.66,0.45-1.68c-4.34-3.86-5.78-8.28-6.17-10.28
			c-1-0.2-3.03-0.57-5.29-1.43c-1.21-0.46-1.5-2-0.59-2.92c0.03-0.03,0.06-0.06,0.09-0.1c1.1-1.15,1.02-2.99-0.05-4.17
			c-0.11-0.12-0.21-0.25-0.31-0.37L54,26z"/>
	</g>
	<path class="st5" d="M71.54,43.35c-4.59-2.95-6.98-8.44-5.34-12.24c0.16-0.38,0.08-0.81-0.21-1.1c-0.29-0.29-0.73-0.37-1.1-0.21
		c-3.08,1.33-7.27,0.01-10.32-2.99C54.83,26.63,55,26.33,55,26c0-0.41-0.25-0.78-0.63-0.93c-3.98-1.58-6.25-7.35-5.05-12.86
		c0.07-0.34-0.03-0.69-0.28-0.93c-0.25-0.24-0.61-0.34-0.94-0.25c-3.56,0.9-6.99-0.93-8.15-4.35C39.81,6.27,39.43,6,39,6
		s-0.81,0.27-0.95,0.68c-1.16,3.42-4.59,5.25-8.15,4.35c-0.33-0.09-0.69,0.01-0.94,0.25c-0.25,0.24-0.36,0.59-0.28,0.93
		c1.2,5.51-1.07,11.28-5.05,12.86C23.25,25.22,23,25.59,23,26s0.25,0.78,0.63,0.93c0.37,0.15,0.72,0.34,1.06,0.56
		c-2.96,2.51-6.74,3.54-9.58,2.31c-0.37-0.16-0.81-0.08-1.1,0.21c-0.29,0.29-0.37,0.73-0.21,1.1c1.64,3.8-0.75,9.29-5.34,12.24
		C8.17,43.54,7.99,43.87,8,44.21c0.01,0.35,0.19,0.67,0.49,0.84c3.04,1.81,4.13,5.4,2.59,8.53c-0.19,0.38-0.11,0.85,0.19,1.15
		c0.3,0.3,0.76,0.38,1.15,0.19c3.13-1.54,6.72-0.45,8.53,2.59c0.18,0.3,0.5,0.48,0.84,0.49c0.01,0,0.01,0,0.02,0
		c0.34,0,0.66-0.17,0.84-0.46c2.95-4.59,8.44-6.99,12.24-5.34c0.38,0.16,0.81,0.08,1.1-0.21c0.29-0.29,0.37-0.73,0.21-1.1
		c-0.95-2.2-0.54-4.95,0.86-7.46c0.41,0.56,0.76,1.19,1,1.9C38.19,45.73,38.57,46,39,46s0.81-0.27,0.95-0.68
		c0.44-1.3,1.22-2.36,2.2-3.14c2.01,2.81,2.76,6.14,1.65,8.7c-0.16,0.38-0.08,0.81,0.21,1.1s0.73,0.37,1.1,0.21
		c3.8-1.65,9.29,0.75,12.24,5.34c0.18,0.29,0.5,0.46,0.84,0.46c0.01,0,0.01,0,0.02,0c0.35-0.01,0.67-0.19,0.84-0.49
		c1.81-3.04,5.4-4.13,8.53-2.59c0.38,0.19,0.85,0.11,1.15-0.19c0.3-0.3,0.38-0.76,0.19-1.15c-1.54-3.13-0.45-6.71,2.59-8.53
		c0.3-0.18,0.48-0.5,0.49-0.84C72.01,43.87,71.83,43.54,71.54,43.35z M68.87,43.85c-4.13,2.14-8.36,1.99-10.77-0.46l-5.82-5.82
		c0.15,0.01,0.3,0.03,0.46,0.03c2.74,0,6.66-1.74,11.02-4.96C63.34,36.44,65.32,40.85,68.87,43.85z M52.13,27.11
		c2.79,3.32,6.82,5.27,10.44,5.18c-5.48,3.88-10.27,5.36-12,3.57c0,0,0,0,0,0l-6.96-6.96c2.15-0.97,5.03-1.76,8.4-2.25
		C52.05,26.8,52.09,26.95,52.13,27.11z M51.41,25.6c0.03,0.03,0.05,0.07,0.08,0.1c-5.87,0.89-10.15,2.63-11.99,4.8V22c0,0,0,0,0,0
		c-0.03-3.57,2.98-6.78,7.59-8.22C46.68,18.5,48.39,23.12,51.41,25.6z M45.68,13.21c-2.83,1.11-5,2.89-6.18,5.01V9.95
		C41.01,11.85,43.24,13.03,45.68,13.21z M38.5,9.95v8.27c-1.18-2.12-3.35-3.89-6.18-5C34.76,13.03,36.99,11.85,38.5,9.95z
		 M26.96,28.11c-0.21-0.23-0.24-1.01-0.08-1.34c3.73,0.61,6.81,1.6,8.86,2.79l-6.29,6.29c0,0,0,0,0,0c-1.73,1.79-6.53,0.32-12-3.56
		C20.67,32.37,24.24,30.82,26.96,28.11z M16.23,32.65c4.36,3.21,8.29,4.96,11.02,4.96c0.16,0,0.31-0.02,0.46-0.03l-5.83,5.83
		c-2.41,2.45-6.64,2.59-10.76,0.45C14.68,40.85,16.66,36.44,16.23,32.65z M11.74,45.24c1.72,0.74,3.44,1.11,5.05,1.11
		c0.87,0,1.7-0.11,2.48-0.32l-5.57,5.57C13.94,49.31,13.24,47.02,11.74,45.24z M15.3,52.24c-0.29,0-0.59,0.02-0.88,0.05l5.56-5.56
		c-0.61,2.23-0.35,4.88,0.79,7.53C19.22,52.96,17.28,52.24,15.3,52.24z M22.15,54.87c-2.14-4.13-1.99-8.36,0.46-10.77c0,0,0,0,0,0
		l0,0c0,0,0,0,0,0c0,0,0,0,0,0l5.8-5.8c-0.21,2.75,1.53,6.87,4.92,11.47C29.55,49.35,25.14,51.33,22.15,54.87z M38.5,42.05
		c-0.31-0.38-0.63-0.75-1-1.07c-0.21,0.26-1.1,0.36-1.37,0.17c-1.61,2.32-2.48,4.97-2.42,7.42c-3.89-5.48-5.36-10.28-3.57-12.01
		c0,0,0,0,0,0l6.44-6.44c1.24,0.89,1.93,1.87,1.91,2.87c0,0,0,0,0,0V42.05z M26.47,25.7c3.09-2.45,4.86-7.14,4.45-11.92
		c4.61,1.44,7.62,4.65,7.59,8.22c0,0,0,0,0,0v8.51C36.66,28.33,32.36,26.58,26.47,25.7z M43.28,40.36
		c-0.31,0.13-1.33-0.04-1.56-0.28c-0.84,0.52-1.59,1.18-2.21,1.96v-9.04c0,0,0,0,0,0c-0.02-1.3,1.13-2.55,3.15-3.63l7.2,7.2
		c0,0,0,0,0,0c1.79,1.73,0.32,6.53-3.56,12C46.36,45.83,45.26,42.85,43.28,40.36z M47.67,49.7c-0.34,0-0.68,0.02-1.01,0.06
		c3.4-4.61,5.13-8.72,4.92-11.47l5.8,5.8c0,0,0,0,0,0c0,0,0,0,0,0l0,0c0,0,0,0,0,0c2.45,2.41,2.6,6.65,0.45,10.78
		C55.11,51.65,51.22,49.7,47.67,49.7z M59.24,54.26c1.14-2.65,1.4-5.31,0.79-7.53l5.57,5.57C63.31,52.06,61.02,52.76,59.24,54.26z
		 M66.31,51.6l-5.57-5.57c0.78,0.22,1.61,0.32,2.48,0.32c1.61,0,3.33-0.38,5.05-1.11C66.76,47.02,66.06,49.31,66.31,51.6z"/>
</g>
<g>
	
		<ellipse transform="matrix(0.7071 -0.7071 0.7071 0.7071 -41.9386 51.7513)" class="st3" cx="41.5" cy="76.5" rx="1.98" ry="4.95"/>
</g>
<g>
	
		<ellipse transform="matrix(0.7071 -0.7071 0.7071 0.7071 -45.7462 42.5589)" class="st3" cx="28.5" cy="76.5" rx="4.95" ry="1.98"/>
</g>
<g>
	<g>
		<circle class="st6" cx="37" cy="70" r="1"/>
	</g>
	<g>
		<circle class="st6" cx="33" cy="70" r="1"/>
	</g>
	<g>
		<circle class="st6" cx="35" cy="73" r="1"/>
	</g>
</g>
<g>
	<g>
		<path class="st7" d="M39.56,49.6l-3.62-9.02c-0.87-2.16-0.72-4.6,0.42-6.64c0.68-1.23,1.68-2.25,2.9-2.95l1.48-0.86
			c1.22-0.7,2.6-1.06,4-1.04c2.33,0.04,4.52,1.13,5.96,2.96l6,7.64c3.15,4.02,7.36,7.08,12.15,8.84l0,0l1,1.73
			c1.1,1.91-4.2,7.05-11.86,11.46c-7.65,4.42-14.75,6.45-15.86,4.54l-1-1.73C42.01,59.52,41.46,54.34,39.56,49.6z"/>
	</g>
	<g>
		<path class="st8" d="M67.47,52.63c-0.2-0.19-0.52-0.17-0.71,0.03c-0.26,0.29-0.6,0.64-1.03,1.05c-0.71,0.67-1.82,0.66-2.52-0.02
			c-2.22-2.2-6.9-6.91-9.01-9.7c-0.52-0.69-1.61-0.4-1.74,0.45c-0.3,1.96,0.13,3.96,1.23,5.62c1.93,2.92,3.92,5.76,5.4,7.58l1.5,2.6
			l4.7-3.87l-0.36-0.62c1.21-1.01,2.04-1.84,2.57-2.42C67.69,53.13,67.68,52.82,67.47,52.63z"/>
	</g>
	<path class="st9" d="M68.99,50.78l-0.82-1.42c-4.83-1.85-9.06-4.96-12.25-9.03c0,0-2.83-4.7-2.48-4.78l-2.73-3.48
		c-0.72-0.91-1.62-1.64-2.64-2.15C47,30,43.69,29.48,43.53,29.19c-0.68,0.1-2.47,0.93-3.51,1.43L40,30.57l-0.74,0.43
		c-1.22,0.7-2.22,1.72-2.9,2.95c-0.19,0.35-0.87,2.49-0.87,2.49c-0.07,0.4,0.09,3.25,0.45,4.15l3.62,9.02
		c1.9,4.74,2.45,9.91,1.58,14.94l1,1.73c1.1,1.91,8.2-0.12,15.86-4.54L45.5,40.1c-0.82-1.42,0.08-3.21,1.71-3.4
		c0.61-0.07,1.2-0.15,1.71-0.24c1.78-0.3,3.58,0.4,4.68,1.83l1.79,2.33c3.15,4.09,7.58,7.84,12.22,9.79l0.92,1.6
		C68.96,51.4,69.1,50.97,68.99,50.78z"/>
	<g>
		<g>
			<path class="st10" d="M36.87,40.21c0.93-0.54,2.12-0.15,2.56,0.83l3.12,7c2.1,4.7,3.99,11.07,3.92,15.74l0.93,1.61
				c-2.6,0.75-4.17,0.77-4.4,0.39l-0.82-1.42c0.82-5.11,0.23-10.33-1.7-15.13L36.87,40.21L36.87,40.21z"/>
		</g>
	</g>
	<g>
		<path class="st5" d="M44.08,67.99c-1.31,0-2.31-0.35-2.81-1.21l-1-1.73c-0.12-0.2-0.16-0.44-0.12-0.67
			c0.84-4.85,0.31-9.83-1.52-14.4c0,0,0,0,0,0l-3.62-9.02c-0.98-2.45-0.81-5.19,0.47-7.5c0.77-1.39,1.9-2.54,3.27-3.33l1.48-0.85
			c1.37-0.79,2.91-1.19,4.52-1.17c2.65,0.04,5.1,1.26,6.73,3.34l6,7.64c3.04,3.87,7.09,6.82,11.71,8.52
			c0.22,0.08,0.4,0.24,0.52,0.44l1,1.73c1.98,3.42-7.13,9.89-12.22,12.83C54.68,64.82,48.01,67.99,44.08,67.99z M42.19,64.36
			l0.82,1.42c0.43,0.75,6.05-0.03,14.49-4.9c8.44-4.87,11.93-9.34,11.49-10.1l-0.82-1.42c-4.83-1.85-9.06-4.96-12.25-9.03l-6-7.64
			c-1.26-1.6-3.15-2.54-5.19-2.58c-1.22-0.03-2.43,0.29-3.49,0.9l-1.48,0.85c-1.06,0.61-1.93,1.5-2.52,2.57
			c-0.99,1.78-1.12,3.89-0.36,5.79l3.62,9.02C42.42,54.03,43,59.25,42.19,64.36z"/>
	</g>
</g>
<g>
	<g>
		<path class="st7" d="M47.9,44.27l-1.37-9.62c-0.33-2.31-1.68-4.35-3.68-5.55c-1.2-0.72-2.58-1.1-3.98-1.1h-1.71
			c-1.4,0-2.78,0.38-3.98,1.1c-2,1.2-3.35,3.24-3.68,5.55l-1.37,9.62C27.38,49.32,25.27,54.08,22,58v2c0-2.21,7.16-4,16-4
			s16,1.79,16,4v-2C50.73,54.08,48.62,49.32,47.9,44.27z"/>
	</g>
	<g>
		<path class="st9" d="M46.91,44.41l-1.37-9.62c-0.04-0.25-0.09-0.49-0.15-0.74c0.35,0.1,0.71,0.2,1.08,0.3
			c-0.4-2.19-1.71-4.1-3.62-5.25c-1.2-0.72-2.58-1.1-3.98-1.1h-1.71c-2.71,0-5.33,1.43-6.78,3.98c0,0.01-0.01,0.02-0.01,0.03
			c-0.76,1.4,0.6,3.03,2.14,2.63c1.16-0.3,2.26-0.61,3.19-0.88c0.46-0.13,0.94-0.04,1.33,0.25c0.54,0.41,1.17,0.71,1.85,0.87
			c0.69,0.16,1.18,0.77,1.22,1.48l0.48,8.06c0.07,1.63,0.18,3.23,0.32,4.78c0.32,3.33,2.87,5.97,6.17,6.51
			c1.81,0.3,3.52,0.71,4.88,1.25C49.28,53.25,47.55,48.95,46.91,44.41z"/>
	</g>
	<g>
		<ellipse class="st10" cx="38" cy="60" rx="16" ry="4"/>
	</g>
	<g>
		<g>
			<path class="st9" d="M43,62.8c-0.26,0-0.47-0.2-0.5-0.46c-0.02-0.27,0.18-0.52,0.46-0.54c3.19-0.27,6.06-0.83,7.86-1.52
				c0.63-0.24,1.74-0.95,1.93-1.13c0.2-0.19,0.52-0.18,0.71,0.02c0.19,0.2,0.18,0.52-0.02,0.71c-0.31,0.29-1.54,1.06-2.25,1.33
				c-1.89,0.73-4.86,1.3-8.14,1.58C43.03,62.79,43.01,62.8,43,62.8z"/>
		</g>
	</g>
	<g>
		<path class="st8" d="M34.4,34.79c-0.71,0-1.31,0.54-1.38,1.26l-0.77,8.36c-0.21,2.29-0.6,4.52-1.16,6.64
			c-0.53,2.01-2.14,3.56-4.17,4l-0.03,0.01c-0.27,0.06-0.44,0.33-0.38,0.6c0.05,0.23,0.26,0.39,0.49,0.39c0.04,0,0.07,0,0.11-0.01
			c0.81-0.18,1.65-0.33,2.48-0.45c-0.19,0.46-0.39,0.92-0.59,1.37c1.41-0.88,3.39-1.39,5.3-1.67c0.01-0.05,0.02-0.11,0.03-0.17
			C36.13,55.01,37.53,55,38,55c0.3,0,1.01,0,1.98,0.04c0.3,0.02,0.51-0.21,0.52-0.48c0.01-0.28-0.21-0.51-0.48-0.52
			C39.03,54,38.31,54,38,54l-0.46,0c-1.59,0-2.81-1.38-2.62-2.96c0.25-2.12,0.44-4.34,0.53-6.63l0.34-8.18
			C35.81,35.44,35.18,34.79,34.4,34.79L34.4,34.79z"/>
	</g>
	<g>
		<path class="st11" d="M32,62c0-2.21,5.6-4,12.5-4c3.67,0,6.96,0.51,9.25,1.32C52.45,57.43,45.9,56,38,56c-8.84,0-16,1.79-16,4
			c0,1.81,4.8,3.34,11.39,3.83C32.51,63.28,32,62.66,32,62z"/>
	</g>
	<g>
		<path class="st10" d="M46.97,44.45l-1.37-9.62c-0.04-0.28-0.1-0.56-0.17-0.83v0c-0.74,1.97-1.01,4.09-0.77,6.19l0.48,4.26
			c0.34,3.04,1.08,5.96,2.15,8.68c0.68,1.71,2.1,2.98,3.85,3.56c0.3,0.1,0.59,0.2,0.86,0.31C49.35,53.29,47.62,48.99,46.97,44.45z"
			/>
	</g>
	<g>
		<path class="st12" d="M40,57c0,2.21-1.79,4-4,4s-4-1.79-4-4H40z"/>
	</g>
	<g>
		<circle class="st13" cx="35" cy="57" r="2"/>
	</g>
	<g>
		<circle class="st7" cx="35" cy="57" r="1"/>
	</g>
	<path class="st5" d="M54.77,57.36c-3.15-3.78-5.19-8.36-5.88-13.23l-1.37-9.62c-0.38-2.62-1.89-4.9-4.16-6.26
		C42,27.43,40.44,27,38.85,27h-1.71c-1.58,0-3.14,0.43-4.5,1.25c-2.27,1.36-3.78,3.64-4.16,6.26l-1.37,9.62
		c-0.7,4.87-2.73,9.45-5.88,13.23C21.08,57.54,21,57.77,21,58v2c0,3.96,11.12,5,17,5s17-1.04,17-5v-2
		C55,57.77,54.92,57.54,54.77,57.36z M29.09,44.41l1.37-9.62c0.29-2.02,1.46-3.78,3.21-4.83c1.05-0.63,2.25-0.96,3.47-0.96h1.71
		c1.22,0,2.42,0.33,3.47,0.96c1.75,1.05,2.92,2.81,3.21,4.83l1.37,9.62c0.65,4.54,2.38,8.84,5.03,12.55C48.21,55.47,41.93,55,38,55
		c-3.93,0-10.21,0.47-13.93,1.96C26.72,53.25,28.45,48.95,29.09,44.41z M39,57.01C38.99,58.66,37.65,60,36,60
		c-1.59,0-2.87-1.24-2.98-2.8c1.5-0.13,3.16-0.2,4.98-0.2C38.34,57,38.67,57.01,39,57.01z M38,63c-9.74,0-15-2.13-15-3
		c0-0.63,2.79-1.93,8.04-2.59C31.26,59.97,33.38,62,36,62c2.73,0,4.95-2.2,4.99-4.93C48.81,57.45,53,59.22,53,60
		C53,60.87,47.74,63,38,63z"/>
</g>
<g>
	<path class="st14" d="M19,30c0-2,2-3,5-3c2.92,0,9.5,1.92,12,2.69v-5.38c0.62-0.19,1-0.31,1-0.31s-9.35-3-13-3c-3,0-5,1-5,3
		c0,0,0,0,0,0V30z"/>
	<path class="st15" d="M42,29.69C44.5,28.92,51.08,27,54,27c3,0,5,1,5,3v-6c0,0,0,0,0,0c0-2-2-3-5-3c-3.65,0-13,3-13,3
		s0.38,0.12,1,0.31V29.69z"/>
	<g>
		<path class="st15" d="M24,21c0,0,2,0,2,0l-0.51,3.04C25.21,25.75,23.73,27,22,27h0l-3,2v-5c0,0,0,0,0,0C19,22,21,21,24,21z"/>
	</g>
	<g>
		<rect x="20" y="22" class="st16" width="1" height="5"/>
	</g>
	<g>
		<path class="st14" d="M46,29h-3v-6h0c1.1,0,2,0.9,2,2v1.59C45,27.49,45.36,28.36,46,29L46,29z"/>
	</g>
	<g>
		<path class="st15" d="M32,29h3v-6h0c-1.1,0-2,0.9-2,2v1.59C33,27.49,32.64,28.36,32,29L32,29z"/>
	</g>
	<g>
		<path class="st14" d="M55,21C55,21,55,21,55,21l0,2.76c0,1.37-0.77,2.62-2,3.24l0,0l6,2v-5c0,0,0,0,0,0C59,22,57.4,21,55,21z"/>
	</g>
	<g>
		<path class="st17" d="M54,27c3,0,5,1,5,3c0,2-2,3-5,3c-3.65,0-13-3-13-3S50.35,27,54,27z"/>
	</g>
	<g>
		<path class="st18" d="M58.3,28.85c-0.9-0.65-2.11-0.27-2.77,0.62C54.78,30.49,53.14,31,51,31c-1.99,0-5.66-0.3-8.6-0.57
			C45.15,31.26,51.22,33,54,33c3,0,5-1,5-3C59,29.52,58.71,29.14,58.3,28.85z"/>
	</g>
	<g>
		<path class="st17" d="M24,27c-3,0-5,1-5,3c0,2,2,3,5,3c3.65,0,13-3,13-3S27.64,27,24,27z"/>
	</g>
	<g>
		<path class="st18" d="M35.52,30.57c-2.03-0.87-6.7-1.57-8.19-1.57C25.33,29,24,30,24,32c0,0.36,0.06,0.67,0.14,0.96
			c0.25,0.02,0.51,0.04,0.78,0.04C26.97,33,32.71,31.44,35.52,30.57z"/>
	</g>
	<g>
		<path class="st15" d="M39,22L39,22c-2.21,0-4,1.79-4,4v2c0,2.21,1.79,4,4,4h0c2.21,0,4-1.79,4-4v-2C43,23.79,41.21,22,39,22z"/>
	</g>
	<g>
		<path class="st19" d="M40,24.95v0.58c0,1.18-0.55,2.32-1.53,2.98c-0.9,0.61-1.64,0.55-2.32,0.35c0.39,1.29,1.61,2.22,3.05,2.13
			c1.61-0.1,2.81-1.55,2.81-3.16L42,26c0-0.55-0.15-1.07-0.41-1.51C41.15,23.75,40,24.09,40,24.95z"/>
	</g>
	<path class="st5" d="M54,20c-2.78,0-8.51,1.6-11.46,2.48C41.64,21.57,40.38,21,39,21s-2.64,0.57-3.54,1.48
		C32.51,21.6,26.78,20,24,20c-1.71,0-3.1,0.3-4.12,0.88C18.67,21.57,18,22.68,18,24v6c0,0,0,0,0,0c0,1.32,0.67,2.43,1.88,3.12
		C20.9,33.7,22.29,34,24,34c0,0,0,0,0,0c2.78,0,8.51-1.6,11.46-2.48C36.36,32.43,37.62,33,39,33c1.38,0,2.64-0.57,3.54-1.48
		C45.49,32.4,51.22,34,54,34c0,0,0,0,0,0c1.71,0,3.1-0.3,4.12-0.88C59.33,32.43,60,31.32,60,30v-6C60,21.5,57.76,20,54,20z M24,32
		C24,32,24,32,24,32c-1.34,0-2.42-0.21-3.13-0.62C20.09,30.94,20,30.38,20,30c0-1.8,2.8-2,4-2c2.15,0,6.52,1.14,9.53,2
		C30.52,30.86,26.15,32,24,32z M24,26c-1.65,0-2.99,0.31-4,0.84L20,24c0-1.81,2.8-2,4-2c2.35,0,7.36,1.36,10.34,2.24
		C34.13,24.79,34,25.38,34,26v2c0,0.02,0.01,0.04,0.01,0.06C30.9,27.16,26.38,26,24,26z M39,31c-1.65,0-3-1.35-3-3v-2
		c0-1.65,1.35-3,3-3s3,1.35,3,3v2C42,29.65,40.65,31,39,31z M57.13,31.38C56.42,31.79,55.34,32,54,32c0,0,0,0,0,0
		c-2.15,0-6.52-1.14-9.53-2c3.01-0.86,7.38-2,9.53-2c1.2,0,4,0.2,4,2C58,30.38,57.91,30.94,57.13,31.38z M58,26.84
		C56.99,26.31,55.66,26,54,26c-2.38,0-6.9,1.16-10.01,2.06c0-0.02,0.01-0.04,0.01-0.06v-2c0-0.62-0.13-1.21-0.34-1.77
		C46.64,23.36,51.65,22,54,22c1.2,0,4,0.19,4,2V26.84z"/>
	<g>
		<path class="st16" d="M37.5,27L37.5,27c-0.28,0-0.5-0.22-0.5-0.5v-1c0-0.28,0.22-0.5,0.5-0.5l0,0c0.28,0,0.5,0.22,0.5,0.5v1
			C38,26.78,37.78,27,37.5,27z"/>
	</g>
</g>
<g>
	<ellipse class="st3" cx="60" cy="5" rx="2" ry="5"/>
</g>
<g>
	<ellipse transform="matrix(0.7071 -0.7071 0.7071 0.7071 6.3959 52.4411)" class="st3" cx="66.5" cy="18.5" rx="1.98" ry="4.95"/>
</g>
<g>
	<g>
		<circle class="st6" cx="62" cy="12" r="1"/>
	</g>
	<g>
		<circle class="st6" cx="58" cy="12" r="1"/>
	</g>
	<g>
		<circle class="st6" cx="60" cy="15" r="1"/>
	</g>
</g>
<g>
	<ellipse class="st3" cx="14" cy="12" rx="2" ry="5"/>
</g>
<g>
	<ellipse transform="matrix(0.7071 -0.7071 0.7071 0.7071 -15.8345 12.7721)" class="st3" cx="7.5" cy="25.5" rx="4.95" ry="1.98"/>
</g>
<g>
	<g>
		<circle class="st6" cx="12" cy="19" r="1"/>
	</g>
	<g>
		<circle class="st6" cx="16" cy="19" r="1"/>
	</g>
	<g>
		<circle class="st6" cx="14" cy="22" r="1"/>
	</g>
</g>
<g>
	<ellipse class="st3" cx="64" cy="67" rx="2" ry="5"/>
</g>
<g>
	<ellipse class="st3" cx="75" cy="35" rx="5" ry="2"/>
</g>
<g>
	<ellipse class="st3" cx="17" cy="65" rx="2" ry="5"/>
</g>
<g>
	<ellipse transform="matrix(0.7071 -0.7071 0.7071 0.7071 -40.7046 24.7304)" class="st3" cx="9.5" cy="61.5" rx="4.95" ry="1.98"/>
</g>
<g>
	<ellipse transform="matrix(0.7071 -0.7071 0.7071 0.7071 -24.0772 12.8726)" class="st3" cx="3.5" cy="35.5" rx="1.98" ry="4.95"/>
</g>
<g>
	
		<ellipse transform="matrix(0.7071 -0.7071 0.7071 0.7071 -24.2523 68.4497)" class="st3" cx="70.5" cy="63.5" rx="1.98" ry="4.95"/>
</g>
<g>
	<ellipse transform="matrix(0.7071 -0.7071 0.7071 0.7071 -8.3528 66.8345)" class="st3" cx="76.5" cy="43.5" rx="1.98" ry="4.95"/>
</g>
<g>
	<ellipse transform="matrix(0.7071 -0.7071 0.7071 0.7071 0.7513 20.8137)" class="st3" cx="25.5" cy="9.5" rx="4.95" ry="1.98"/>
</g>
<g>
	<circle class="st6" cx="51" cy="71" r="1"/>
</g>
<g>
	<circle class="st6" cx="70" cy="28" r="1"/>
</g>
<g>
	<circle class="st6" cx="48" cy="6" r="1"/>
</g>
<g>
	<circle class="st6" cx="4" cy="42" r="1"/>
</g>
<g>
	<circle class="st6" cx="59" cy="68" r="1"/>
</g>
<g>
	<circle class="st6" cx="22" cy="69" r="1"/>
</g>
</svg>
