<?xml version="1.0" encoding="utf-8"?>
<!-- Generator: Adobe Illustrator 24.0.0, SVG Export Plug-In . SVG Version: 6.00 Build 0)  -->
<svg version="1.1" id="图层_1" xmlns="http://www.w3.org/2000/svg" xmlns:xlink="http://www.w3.org/1999/xlink" x="0px" y="0px"
	 viewBox="0 0 100 100" style="enable-background:new 0 0 100 100;" xml:space="preserve">
<style type="text/css">
	.st0{display:none;}
	.st1{display:inline;}
	.st2{fill:none;stroke:#000000;stroke-width:3;stroke-linecap:round;stroke-linejoin:round;stroke-miterlimit:10;}
	.st3{display:inline;fill:url(#SVGID_1_);}
	.st4{display:inline;fill:url(#SVGID_2_);}
	.st5{display:inline;fill:url(#SVGID_3_);}
	.st6{display:inline;fill:url(#SVGID_4_);}
	.st7{display:inline;fill:url(#SVGID_5_);}
	.st8{display:inline;fill:url(#SVGID_6_);}
	.st9{display:inline;fill:url(#SVGID_7_);}
	.st10{display:inline;fill:none;stroke:#000000;stroke-width:3;stroke-linecap:round;stroke-linejoin:round;stroke-miterlimit:10;}
	.st11{display:inline;fill:url(#SVGID_8_);}
	.st12{display:inline;fill:url(#SVGID_9_);}
	.st13{display:inline;fill:url(#SVGID_10_);}
	.st14{display:inline;fill:url(#SVGID_11_);}
	.st15{display:inline;fill:url(#SVGID_12_);}
	.st16{display:inline;fill:url(#SVGID_13_);}
	
		.st17{display:inline;fill:none;stroke:url(#SVGID_14_);stroke-width:3;stroke-linecap:round;stroke-linejoin:round;stroke-miterlimit:10;}
	.st18{display:inline;fill:url(#SVGID_15_);}
	.st19{display:inline;fill:url(#SVGID_16_);}
	.st20{display:inline;fill:url(#SVGID_17_);}
	.st21{display:inline;fill:url(#SVGID_18_);}
	.st22{display:inline;fill:url(#SVGID_19_);}
	
		.st23{display:inline;fill:none;stroke:url(#SVGID_20_);stroke-width:3;stroke-linecap:round;stroke-linejoin:round;stroke-miterlimit:10;}
	.st24{display:inline;fill:url(#SVGID_21_);}
	.st25{display:inline;fill:url(#SVGID_22_);}
	
		.st26{display:inline;fill:url(#SVGID_23_);stroke:#000000;stroke-width:3;stroke-linecap:round;stroke-linejoin:round;stroke-miterlimit:10;}
	.st27{display:inline;fill:url(#SVGID_24_);}
	.st28{display:inline;fill:url(#SVGID_25_);}
	.st29{display:inline;fill:url(#SVGID_26_);}
	.st30{clip-path:url(#SVGID_28_);fill:url(#SVGID_29_);}
	.st31{display:inline;fill:url(#SVGID_30_);}
	.st32{display:inline;fill:url(#SVGID_31_);}
	.st33{display:inline;fill:url(#SVGID_32_);}
	
		.st34{clip-path:url(#SVGID_34_);fill:none;stroke:url(#SVGID_35_);stroke-width:3;stroke-linecap:round;stroke-linejoin:bevel;stroke-miterlimit:10;}
	
		.st35{clip-path:url(#SVGID_34_);fill:none;stroke:url(#SVGID_36_);stroke-width:3;stroke-linecap:round;stroke-linejoin:round;stroke-miterlimit:10;}
	
		.st36{clip-path:url(#SVGID_34_);fill:none;stroke:url(#SVGID_37_);stroke-width:3;stroke-linecap:round;stroke-linejoin:round;stroke-miterlimit:10;}
	.st37{display:inline;fill:url(#SVGID_38_);}
	.st38{display:inline;fill:url(#SVGID_39_);}
	.st39{display:inline;fill:url(#SVGID_40_);}
	.st40{display:inline;fill:url(#SVGID_41_);}
	
		.st41{display:inline;fill:none;stroke:url(#SVGID_42_);stroke-width:3;stroke-linecap:round;stroke-linejoin:round;stroke-miterlimit:10;}
	
		.st42{display:inline;fill:none;stroke:url(#SVGID_43_);stroke-width:3;stroke-linecap:round;stroke-linejoin:round;stroke-miterlimit:10;}
	.st43{display:inline;fill:url(#SVGID_44_);}
	.st44{display:inline;fill:url(#SVGID_45_);}
	.st45{display:inline;fill:url(#SVGID_46_);}
	.st46{display:inline;fill:url(#SVGID_47_);}
	.st47{display:inline;fill:url(#SVGID_48_);}
	.st48{display:inline;fill:url(#SVGID_49_);}
	.st49{display:inline;fill:url(#SVGID_50_);}
	.st50{display:inline;fill:url(#SVGID_51_);}
	
		.st51{clip-path:url(#SVGID_54_);fill:none;stroke:url(#SVGID_55_);stroke-width:3;stroke-linecap:round;stroke-linejoin:round;stroke-miterlimit:10;}
	
		.st52{clip-path:url(#SVGID_54_);fill:none;stroke:url(#SVGID_56_);stroke-width:3;stroke-linecap:round;stroke-linejoin:round;stroke-miterlimit:10;}
	
		.st53{clip-path:url(#SVGID_54_);fill:none;stroke:url(#SVGID_57_);stroke-width:3;stroke-linecap:round;stroke-linejoin:round;stroke-miterlimit:10;}
	.st54{display:inline;fill:url(#SVGID_58_);}
	.st55{display:inline;fill:url(#SVGID_59_);}
	.st56{fill:url(#SVGID_60_);}
	.st57{fill:url(#SVGID_61_);}
	.st58{fill:url(#SVGID_62_);}
	.st59{fill:url(#SVGID_63_);}
	.st60{fill:url(#SVGID_64_);}
	.st61{fill:url(#SVGID_65_);}
	.st62{fill:url(#SVGID_66_);}
	.st63{clip-path:url(#SVGID_68_);fill:url(#SVGID_69_);}
	.st64{fill:url(#SVGID_70_);}
</style>
<g class="st0">
	<g class="st1">
		<path d="M79.99,51.57H21.56c-3.03,0-5.49-2.81-5.49-6.26c0-3.53,2.52-6.4,5.61-6.4h0.98c0.83,0,1.5,0.67,1.5,1.5
			s-0.67,1.5-1.5,1.5h-0.98c-1.44,0-2.61,1.53-2.61,3.4c0,1.77,1.14,3.26,2.49,3.26h58.43c1.34,0,2.47-1.48,2.47-3.23v-0.19
			c0-1.75-1.13-3.24-2.47-3.24h-0.74c-0.83,0-1.5-0.67-1.5-1.5s0.67-1.5,1.5-1.5h0.74c3.02,0,5.47,2.8,5.47,6.24v0.19
			C85.46,48.77,83.01,51.57,79.99,51.57z"/>
	</g>
	<g class="st1">
		<path d="M48.43,58.4H20.66c-2.53,0-4.59-2.06-4.59-4.59v-0.57c0-2.58,2.1-4.67,4.68-4.67h27.6c2.58,0,4.68,2.1,4.68,4.67v0.57
			C53.02,56.34,50.96,58.4,48.43,58.4z M20.74,51.57c-0.92,0-1.68,0.75-1.68,1.67v0.57c0,0.87,0.71,1.59,1.59,1.59h27.77
			c0.87,0,1.59-0.71,1.59-1.59v-0.57c0-0.92-0.75-1.67-1.68-1.67H20.74z"/>
	</g>
	<g class="st1">
		<path d="M81.01,58.4H54.65c-2.55,0-4.63-2.08-4.63-4.63V53.2c0-2.55,2.08-4.63,4.63-4.63h26.36c2.55,0,4.63,2.08,4.63,4.63v0.57
			C85.64,56.32,83.56,58.4,81.01,58.4z M54.65,51.57c-0.9,0-1.63,0.73-1.63,1.63v0.57c0,0.9,0.73,1.63,1.63,1.63h26.36
			c0.9,0,1.63-0.73,1.63-1.63V53.2c0-0.9-0.73-1.63-1.63-1.63H54.65z"/>
	</g>
	<g class="st1">
		<path d="M74.33,46.87c-0.98,0-1.92-0.45-2.58-1.25l-2.67-3.18c-0.36-0.42-0.83-0.42-1.18,0l-2.36,2.82
			c-0.74,0.89-1.8,1.4-2.89,1.4c0,0,0,0,0,0c-1.09,0-2.15-0.51-2.89-1.4l-2.36-2.82c-0.36-0.42-0.83-0.42-1.18,0l-2.36,2.82
			c-0.74,0.89-1.8,1.4-2.89,1.4c-1.09,0-2.15-0.51-2.89-1.4l-2.36-2.82c-0.36-0.42-0.83-0.42-1.18,0l-2.36,2.82
			c-0.74,0.89-1.8,1.4-2.89,1.4s-2.15-0.51-2.89-1.4l-2.36-2.82c-0.35-0.42-0.83-0.42-1.18,0l-2.36,2.82
			c-0.74,0.89-1.8,1.4-2.89,1.4c0,0,0,0,0,0c-1.09,0-2.15-0.51-2.89-1.4c-0.94-1.28-2.43-3.16-2.97-3.59
			c-0.2-0.16-0.37-0.24-0.59-0.3c-0.01,0.01-0.35,0.02-0.62,0.04c-0.04,0-0.08,0-0.11,0c-1.1,0-2.15-0.46-2.95-1.3
			c-0.94-0.98-1.44-2.37-1.38-3.82c0.11-2.43,1.95-4.13,4.48-4.13h60.58c1.24,0,2.36,0.46,3.16,1.29c0.82,0.85,1.22,2.01,1.16,3.33
			c-0.11,2.6-2.08,4.63-4.48,4.63c-0.04,0-0.08,0-0.11,0c-0.01,0-0.08-0.01-0.16-0.01c-0.16,0.06-0.38,0.17-0.51,0.27
			c-0.6,0.48-2.24,2.56-3.22,3.88C76.25,46.42,75.31,46.87,74.33,46.87z M68.49,39.12c1.09,0,2.15,0.51,2.89,1.4l2.67,3.18
			c0.19,0.22,0.38,0.22,0.57,0c0.37-0.51,2.58-3.48,3.71-4.37c0.49-0.39,1.18-0.73,1.77-0.87c0.09-0.02,0.33-0.08,0.92-0.04
			c0.67-0.03,1.4-0.73,1.44-1.76c0.02-0.34-0.03-0.81-0.33-1.13c-0.23-0.24-0.58-0.37-0.99-0.37H20.56c-0.65,0-1.44,0.22-1.49,1.26
			c-0.03,0.63,0.18,1.23,0.55,1.62c0.16,0.16,0.41,0.36,0.74,0.37c0.66-0.05,1.15-0.03,1.47,0.04c0.65,0.15,1.23,0.44,1.77,0.87
			c1.04,0.83,3.06,3.55,3.46,4.08c0.12,0.14,0.32,0.25,0.53,0.25h0c0.21,0,0.41-0.11,0.59-0.32l2.36-2.82
			c0.74-0.89,1.8-1.4,2.89-1.4c1.09,0,2.15,0.51,2.89,1.4l2.36,2.82c0.36,0.42,0.83,0.42,1.18,0l2.36-2.82
			c0.74-0.89,1.8-1.4,2.89-1.4s2.15,0.51,2.89,1.4l2.36,2.82c0.36,0.42,0.83,0.42,1.18,0l2.36-2.82c0.74-0.89,1.8-1.4,2.89-1.4
			s2.15,0.51,2.89,1.4l2.36,2.82c0.35,0.42,0.82,0.43,1.18,0l2.36-2.82C66.34,39.63,67.4,39.12,68.49,39.12z M80.79,41.37
			C80.79,41.37,80.79,41.38,80.79,41.37C80.79,41.38,80.79,41.37,80.79,41.37z"/>
	</g>
	<g class="st1">
		<path d="M81.45,35.16H20.47c-2.67,0-4.4-1.64-4.4-4.18v-0.21c0-10.33,7.16-18.74,15.95-18.74h37.87c8.73,0,15.57,8.23,15.57,18.74
			v0.21C85.46,33.6,83.96,35.16,81.45,35.16z M32.02,15.03c-7.14,0-12.95,7.06-12.95,15.74v0.21c0,0.47,0,1.18,1.4,1.18h60.98
			c0.72,0,1.01-0.05,1.01-1.18v-0.21c0-8.83-5.52-15.74-12.57-15.74H32.02z"/>
	</g>
	<g class="st1">
		<path d="M30.23,71.95h-9.61c-2.6,0-4.55-2.1-4.55-4.89c0-2.92,2.04-5.29,4.55-5.29c0.83,0,1.5,0.67,1.5,1.5s-0.67,1.5-1.5,1.5
			c-0.8,0-1.55,1.12-1.55,2.29c0,1.11,0.64,1.89,1.55,1.89h9.61c0.83,0,1.5,0.67,1.5,1.5S31.06,71.95,30.23,71.95z"/>
	</g>
	<g class="st1">
		<path class="st2" d="M34.54,70.45"/>
	</g>
	<g class="st1">
		<path class="st2" d="M36.78,70.45"/>
	</g>
	<g class="st1">
		<path d="M54.08,71.95H41.07c-0.83,0-1.5-0.67-1.5-1.5s0.67-1.5,1.5-1.5h13.01c0.83,0,1.5,0.67,1.5,1.5S54.91,71.95,54.08,71.95z"
			/>
	</g>
	<g class="st1">
		<path d="M66.04,71.95h-6.25c-0.83,0-1.5-0.67-1.5-1.5s0.67-1.5,1.5-1.5h6.25c0.83,0,1.5,0.67,1.5,1.5S66.87,71.95,66.04,71.95z"/>
	</g>
	<g class="st1">
		<path d="M80.91,71.95H70.6c-0.83,0-1.5-0.67-1.5-1.5s0.67-1.5,1.5-1.5h10.31c0.92,0,1.55-0.78,1.55-1.89
			c0-1.29-0.84-2.29-1.55-2.29c-0.83,0-1.5-0.67-1.5-1.5s0.67-1.5,1.5-1.5c2.51,0,4.55,2.38,4.55,5.29
			C85.46,69.85,83.51,71.95,80.91,71.95z"/>
	</g>
	<g class="st1">
		<path d="M75.19,87.03h-49.7c-5.43,0-9.85-5.14-9.85-11.46v-1.88c0-2.7,1.91-4.74,4.43-4.74c0.83,0,1.5,0.67,1.5,1.5
			s-0.67,1.5-1.5,1.5c-0.84,0-1.43,0.72-1.43,1.74v1.88c0,4.66,3.07,8.46,6.85,8.46h49.7c3.78,0,6.85-3.79,6.85-8.46v-1.88
			c0-1.03-0.59-1.74-1.43-1.74c-0.83,0-1.5-0.67-1.5-1.5s0.67-1.5,1.5-1.5c2.53,0,4.43,2.04,4.43,4.74v1.88
			C85.03,81.89,80.62,87.03,75.19,87.03z"/>
	</g>
	<g class="st1">
		<path d="M56.94,78.42c-2.4,0-4.35-2.2-4.35-4.9v-8.89h-4.66L36.8,77.88c-0.57,0.68-1.73,0.68-2.3,0L23.41,64.65l-3.17,0.12
			c0,0,0,0,0,0c-2.32,0-4.17-2.14-4.17-4.76c0-2.54,1.84-4.61,4.11-4.61h61.17c2.27,0,4.11,2.07,4.11,4.61
			c0,2.63-1.84,4.76-4.11,4.76l-8.64-0.13v2.89c0,2.71-1.95,4.91-4.35,4.91S64,70.24,64,67.54v-1.3c0-0.89-0.61-1.62-1.35-1.62
			c-0.75,0-1.35,0.72-1.35,1.61l0,7.28C61.29,76.22,59.34,78.42,56.94,78.42z M47.66,61.62h5.43c1.38,0,2.5,1.16,2.5,2.58v9.31
			c0,1.03,0.62,1.9,1.35,1.9s1.35-0.87,1.35-1.91l0-7.28c0-2.54,1.96-4.61,4.35-4.61c2.4,0,4.35,2.07,4.35,4.62v1.3
			c0,1.03,0.62,1.9,1.35,1.9s1.35-0.87,1.35-1.91v-3.31c0-0.71,0.28-1.39,0.78-1.87c0.47-0.47,1.11-0.71,1.76-0.71l9.13,0.13
			c0.48,0,1.09-0.79,1.09-1.76c0-0.86-0.52-1.61-1.11-1.61H20.18c-0.59,0-1.11,0.75-1.11,1.61c0,0.98,0.61,1.76,1.11,1.76l3.85-0.15
			c0.46-0.02,0.91,0.18,1.21,0.54l10.42,12.42l10.12-12.07C46.24,61.95,46.93,61.62,47.66,61.62z"/>
	</g>
	<g class="st1">
		<path d="M29.5,26.4c-0.68,0-1.32-0.25-1.84-0.73c-1.15-1.06-1.3-2.88-0.33-4.13c0.49-0.63,1.18-1.01,1.95-1.08
			c0.75-0.06,1.49,0.19,2.07,0.72c1.15,1.06,1.3,2.88,0.33,4.13c-0.49,0.63-1.18,1.01-1.95,1.08C29.65,26.4,29.58,26.4,29.5,26.4z
			 M29.51,22.46c-0.02,0-0.04,0-0.06,0c-0.2,0.02-0.39,0.13-0.53,0.31c-0.33,0.42-0.28,1.08,0.1,1.43c0.2,0.19,0.41,0.21,0.54,0.2
			c0.2-0.02,0.39-0.13,0.53-0.31c0,0,0,0,0,0c0.33-0.42,0.28-1.08-0.1-1.43C29.82,22.5,29.64,22.46,29.51,22.46z"/>
	</g>
	<g class="st1">
		<path d="M41.33,22.92c-0.07,0-0.14,0-0.21-0.01c0,0,0,0,0,0c-1.54-0.12-2.7-1.55-2.59-3.17c0.05-0.81,0.43-1.58,1.03-2.09
			c0.56-0.48,1.27-0.72,1.99-0.66c1.54,0.12,2.7,1.55,2.59,3.17c-0.05,0.81-0.43,1.58-1.03,2.09C42.6,22.69,41.98,22.92,41.33,22.92
			z M41.28,20.92c0.24,0.02,0.41-0.09,0.52-0.18c0.19-0.17,0.32-0.43,0.34-0.71c0.04-0.53-0.31-1.01-0.75-1.05
			c-0.23-0.02-0.41,0.09-0.52,0.18c-0.2,0.17-0.32,0.43-0.34,0.71C40.49,20.4,40.83,20.88,41.28,20.92L41.28,20.92z"/>
	</g>
	<g class="st1">
		<path d="M49.52,27.74c-0.07,0-0.14,0-0.22-0.01l0,0c-1.54-0.12-2.7-1.55-2.59-3.17c0.05-0.81,0.43-1.58,1.03-2.09
			c0.56-0.48,1.27-0.71,1.99-0.66c1.54,0.12,2.7,1.55,2.59,3.17c-0.06,0.81-0.43,1.58-1.03,2.09
			C50.78,27.51,50.16,27.74,49.52,27.74z M49.51,23.8c-0.21,0-0.37,0.1-0.46,0.18c-0.2,0.17-0.32,0.43-0.34,0.71
			c-0.04,0.53,0.31,1.01,0.75,1.05c0,0,0,0,0,0c0.24,0.02,0.41-0.09,0.52-0.18c0.2-0.17,0.32-0.43,0.34-0.71
			c0.04-0.53-0.31-1.01-0.75-1.05C49.55,23.8,49.53,23.8,49.51,23.8z"/>
	</g>
	<g class="st1">
		<path d="M60.03,27.02c-0.07,0-0.14,0-0.22-0.01l0,0c-1.54-0.12-2.7-1.55-2.59-3.17c0.06-0.81,0.43-1.58,1.03-2.09
			c0.56-0.48,1.26-0.71,1.99-0.66c1.54,0.12,2.7,1.55,2.59,3.17c-0.06,0.81-0.43,1.58-1.03,2.09C61.3,26.79,60.68,27.02,60.03,27.02
			z M60.03,23.08c-0.21,0-0.37,0.1-0.46,0.18c-0.2,0.17-0.32,0.43-0.34,0.71c-0.04,0.53,0.31,1.01,0.75,1.05l0,0
			c0.24,0.02,0.41-0.09,0.52-0.18c0.2-0.17,0.32-0.43,0.34-0.71c0.04-0.53-0.31-1.01-0.75-1.05C60.06,23.08,60.05,23.08,60.03,23.08
			z"/>
	</g>
	<g class="st1">
		<path d="M71.66,22.92c-0.07,0-0.14,0-0.21-0.01l0,0c-1.54-0.12-2.7-1.55-2.59-3.17c0.06-0.81,0.43-1.58,1.03-2.09
			c0.56-0.48,1.26-0.72,1.99-0.66c1.54,0.12,2.7,1.55,2.59,3.17c-0.06,0.81-0.43,1.58-1.03,2.09C72.92,22.69,72.3,22.92,71.66,22.92
			z M71.6,20.92c0.22,0.02,0.41-0.09,0.52-0.18c0.2-0.17,0.32-0.43,0.34-0.71c0.04-0.53-0.31-1.01-0.75-1.05
			c-0.24-0.01-0.41,0.09-0.52,0.18c-0.2,0.17-0.32,0.43-0.34,0.71C70.81,20.4,71.16,20.88,71.6,20.92L71.6,20.92z"/>
	</g>
</g>
<g class="st0">
	<linearGradient id="SVGID_1_" gradientUnits="userSpaceOnUse" x1="51.1552" y1="73.3748" x2="51.2578" y2="64.9667">
		<stop  offset="0" style="stop-color:#CE312A"/>
		<stop  offset="0.0364" style="stop-color:#D1362D"/>
		<stop  offset="0.3" style="stop-color:#E5563E"/>
		<stop  offset="0.5542" style="stop-color:#F36D4B"/>
		<stop  offset="0.7927" style="stop-color:#FC7B52"/>
		<stop  offset="0.9996" style="stop-color:#FF8055"/>
	</linearGradient>
	<path class="st3" d="M54.69,72.99H41.01h-11.4h-10.1c-1.77,0-3.21-1.46-3.21-3.6v0c0-2.14,1.44-4.03,3.21-4.03H82.9
		c1.77,0,3.21,1.89,3.21,4.03v0c0,2.14-1.44,3.6-3.21,3.6H72.06h-4.8h-6.57H54.69z"/>
	<linearGradient id="SVGID_2_" gradientUnits="userSpaceOnUse" x1="51.2039" y1="88.6961" x2="51.2039" y2="72.9884">
		<stop  offset="1.198743e-03" style="stop-color:#F0B05B"/>
		<stop  offset="1" style="stop-color:#EDB462"/>
	</linearGradient>
	<path class="st4" d="M83.03,72.99c1.7,0,3.08,1.36,3.08,3.38v1.96c0,5.73-3.93,10.37-8.78,10.37H25.07
		c-4.85,0-8.78-4.64-8.78-10.37v-1.96c0-2.01,1.38-3.38,3.08-3.38"/>
	<linearGradient id="SVGID_3_" gradientUnits="userSpaceOnUse" x1="51.0963" y1="41.5946" x2="51.127" y2="51.8456">
		<stop  offset="0.2523" style="stop-color:#744318"/>
		<stop  offset="0.2884" style="stop-color:#744318"/>
		<stop  offset="1" style="stop-color:#75461D"/>
	</linearGradient>
	<path class="st5" d="M81.07,41.69h0.77c2.31,0,4.17,2.21,4.17,4.93v0.2c0,2.71-1.88,4.93-4.17,4.93H20.4c-2.31,0-4.2-2.23-4.2-4.96
		v0c0-2.82,1.93-5.11,4.32-5.11h1.03"/>
	<linearGradient id="SVGID_4_" gradientUnits="userSpaceOnUse" x1="34.1149" y1="59.1169" x2="33.9862" y2="51.5062">
		<stop  offset="0" style="stop-color:#E6593F"/>
		<stop  offset="0.3383" style="stop-color:#F36D4A"/>
		<stop  offset="0.6921" style="stop-color:#FC7B52"/>
		<stop  offset="0.9996" style="stop-color:#FF8055"/>
	</linearGradient>
	<path class="st6" d="M48.81,58.87H19.29c-1.7,0-3.09-1.38-3.09-3.09v-0.85c0-1.75,1.43-3.17,3.17-3.17h29.35
		c1.75,0,3.17,1.43,3.17,3.17v0.85C51.9,57.49,50.52,58.87,48.81,58.87z"/>
	<linearGradient id="SVGID_5_" gradientUnits="userSpaceOnUse" x1="68.9913" y1="59.0901" x2="69.1114" y2="51.5315">
		<stop  offset="0" style="stop-color:#E6593F"/>
		<stop  offset="0.3383" style="stop-color:#F36D4A"/>
		<stop  offset="0.6921" style="stop-color:#FC7B52"/>
		<stop  offset="0.9996" style="stop-color:#FF8055"/>
	</linearGradient>
	<path class="st7" d="M83.07,58.87H55.03c-1.73,0-3.13-1.4-3.13-3.13v-0.85c0-1.72,1.41-3.13,3.13-3.13h28.04
		c1.72,0,3.13,1.41,3.13,3.13v0.85C86.2,57.47,84.8,58.87,83.07,58.87z"/>
	<linearGradient id="SVGID_6_" gradientUnits="userSpaceOnUse" x1="51.1116" y1="46.8634" x2="51.1116" y2="34.6678">
		<stop  offset="0.2523" style="stop-color:#98B821"/>
		<stop  offset="0.6353" style="stop-color:#97BD2D"/>
		<stop  offset="1" style="stop-color:#96BF32"/>
	</linearGradient>
	<path class="st8" d="M83.04,34.67h-63.7c-1.61,0-3.05,0.91-3.14,2.81c-0.09,2.03,1.27,3.7,2.97,3.7c0,0,0.86-0.07,1.14,0
		c0.46,0.11,0.85,0.3,1.24,0.61c0.98,0.78,3.35,3.96,3.35,3.96c1.01,1.19,2.65,1.19,3.66,0l2.48-2.94c1.01-1.19,2.65-1.19,3.66,0
		l2.48,2.94c1.01,1.19,2.65,1.19,3.66,0l2.48-2.94c1.01-1.19,2.65-1.19,3.66,0l2.48,2.94c1.01,1.19,2.65,1.19,3.66,0l2.48-2.94
		c1.01-1.19,2.65-1.19,3.66,0l2.48,2.94c1.01,1.19,2.65,1.19,3.66,0l2.48-2.94c1.01-1.19,2.65-1.19,3.66,0l2.8,3.31
		c0.83,0.99,2.19,0.99,3.02,0c0,0,2.59-3.49,3.67-4.34c0.33-0.26,0.85-0.52,1.24-0.61c0.14-0.03,0.56,0,0.56,0
		c1.61,0,3.05-1.43,3.14-3.33C86.1,35.83,84.74,34.67,83.04,34.67z"/>
	<linearGradient id="SVGID_7_" gradientUnits="userSpaceOnUse" x1="51.1116" y1="34.6678" x2="51.1116" y2="13.6961">
		<stop  offset="0" style="stop-color:#F0AC4E"/>
		<stop  offset="0.9996" style="stop-color:#EDB462"/>
	</linearGradient>
	<path class="st9" d="M83.38,34.67H19.25c-1.68,0-3.05-0.8-3.05-2.79v-0.22c0-9.92,6.8-17.96,15.2-17.96h39.82
		c8.39,0,14.79,8.04,14.79,17.96v0.22C86.02,33.86,85.06,34.67,83.38,34.67z"/>
	<path class="st10" d="M34.05,72.99"/>
	<path class="st10" d="M36.4,72.99"/>
	<linearGradient id="SVGID_8_" gradientUnits="userSpaceOnUse" x1="51.1115" y1="78.6512" x2="51.1115" y2="57.1829">
		<stop  offset="0.2523" style="stop-color:#F7EE8A"/>
		<stop  offset="0.2604" style="stop-color:#F7EE8B"/>
		<stop  offset="0.5233" style="stop-color:#F9EBA1"/>
		<stop  offset="0.7746" style="stop-color:#FBE9AE"/>
		<stop  offset="1" style="stop-color:#FBE8B3"/>
	</linearGradient>
	<path class="st11" d="M83.27,58.87H18.95c-1.52,0-2.74,1.45-2.74,3.24v0c0,1.79,1.23,3.4,2.74,3.4l4.11-0.16l12.16,14.37l11.85-14
		c0.2-0.23,0.48-0.37,0.77-0.37h5.71c0.58,0,1.05,0.5,1.05,1.13c0,2.06,0,6.52,0,9.7c0,1.96,1.34,3.54,3,3.54c1.66,0,3-1.59,3-3.55
		l0-7.58c0-1.79,1.34-3.24,3-3.24h0c1.66,0,3,1.46,3,3.25c0,0.76,0,1.36,0,1.36c0,1.96,1.34,3.54,3,3.54c1.66,0,3-1.59,3-3.55V66.5
		c0-0.63,0.48-1.14,1.06-1.13l9.6,0.14c1.52,0,2.74-1.61,2.74-3.4v0C86.02,60.32,84.79,58.87,83.27,58.87z"/>
	<linearGradient id="SVGID_9_" gradientUnits="userSpaceOnUse" x1="41.1867" y1="23.351" x2="41.1867" y2="17.409">
		<stop  offset="0.2523" style="stop-color:#7B4105"/>
		<stop  offset="0.4496" style="stop-color:#7B4208"/>
		<stop  offset="1" style="stop-color:#7B430D"/>
	</linearGradient>
	<ellipse class="st12" cx="41.19" cy="20.38" rx="2.81" ry="2.97"/>
	<linearGradient id="SVGID_10_" gradientUnits="userSpaceOnUse" x1="28.7542" y1="26.9752" x2="28.7542" y2="21.0332">
		<stop  offset="0.2523" style="stop-color:#744318"/>
		<stop  offset="1" style="stop-color:#74451C"/>
	</linearGradient>
	<ellipse class="st13" cx="28.75" cy="24" rx="2.81" ry="2.97"/>
	<linearGradient id="SVGID_11_" gradientUnits="userSpaceOnUse" x1="49.7948" y1="28.3775" x2="49.7948" y2="22.4355">
		<stop  offset="0.2523" style="stop-color:#744318"/>
		<stop  offset="1" style="stop-color:#74451C"/>
	</linearGradient>
	<ellipse class="st14" cx="49.79" cy="25.41" rx="2.81" ry="2.97"/>
	<linearGradient id="SVGID_12_" gradientUnits="userSpaceOnUse" x1="60.8527" y1="27.6228" x2="60.8527" y2="21.6808">
		<stop  offset="0.2523" style="stop-color:#744318"/>
		<stop  offset="1" style="stop-color:#74451C"/>
	</linearGradient>
	<ellipse class="st15" cx="60.85" cy="24.65" rx="2.81" ry="2.97"/>
	<linearGradient id="SVGID_13_" gradientUnits="userSpaceOnUse" x1="73.0745" y1="23.351" x2="73.0745" y2="17.409">
		<stop  offset="0.2523" style="stop-color:#744318"/>
		<stop  offset="1" style="stop-color:#74451C"/>
	</linearGradient>
	<ellipse class="st16" cx="73.07" cy="20.38" rx="2.81" ry="2.97"/>
</g>
<g class="st0">
	<linearGradient id="SVGID_14_" gradientUnits="userSpaceOnUse" x1="29.6102" y1="11.2787" x2="29.6102" y2="27.949">
		<stop  offset="0" style="stop-color:#FF8080"/>
		<stop  offset="0.9988" style="stop-color:#FF5857"/>
	</linearGradient>
	<line class="st17" x1="21.19" y1="12.78" x2="38.03" y2="26.45"/>
	<linearGradient id="SVGID_15_" gradientUnits="userSpaceOnUse" x1="70.8027" y1="27.5969" x2="70.8027" y2="17.0005">
		<stop  offset="0.2523" style="stop-color:#C2D061"/>
		<stop  offset="0.4496" style="stop-color:#C2D164"/>
		<stop  offset="1" style="stop-color:#C1D269"/>
	</linearGradient>
	<path class="st18" d="M67.43,18.82c-2.18,2.15-2.34,5.64-1,8.21c2.5,1,5.73,0.76,7.76-1.24c2.18-2.15,2.34-5.64,1-8.21
		C72.69,16.57,69.45,16.81,67.43,18.82z"/>
	<linearGradient id="SVGID_16_" gradientUnits="userSpaceOnUse" x1="34.7001" y1="24.4299" x2="62.1885" y2="26.1727">
		<stop  offset="0.205" style="stop-color:#FFB897"/>
		<stop  offset="0.3044" style="stop-color:#FFBEA0"/>
		<stop  offset="1" style="stop-color:#FFE8DE"/>
	</linearGradient>
	<path class="st19" d="M52.53,11.89c-7.65,0-13.84,6.12-13.84,13.67h0c0,7.55,6.2,13.67,13.84,13.67s13.84-6.12,13.84-13.67h0
		C66.37,18.01,60.18,11.89,52.53,11.89z"/>
	<linearGradient id="SVGID_17_" gradientUnits="userSpaceOnUse" x1="25.64" y1="32.7697" x2="53.0454" y2="35.9699">
		<stop  offset="0.1481" style="stop-color:#FF765C"/>
		<stop  offset="0.4476" style="stop-color:#FF997D"/>
		<stop  offset="1" style="stop-color:#FFD7B6"/>
	</linearGradient>
	<path class="st20" d="M24.85,40.37c0-7.55,6.2-13.67,13.84-13.67s13.84,6.12,13.84,13.67"/>
	<linearGradient id="SVGID_18_" gradientUnits="userSpaceOnUse" x1="52.6215" y1="33.4431" x2="80.304" y2="33.8067">
		<stop  offset="0.1481" style="stop-color:#FD7359"/>
		<stop  offset="0.4635" style="stop-color:#FE997D"/>
		<stop  offset="1" style="stop-color:#FFD7B6"/>
	</linearGradient>
	<path class="st21" d="M52.53,40.37c0-7.55,6.2-13.67,13.84-13.67s13.84,6.12,13.84,13.67"/>
	<linearGradient id="SVGID_19_" gradientUnits="userSpaceOnUse" x1="52.5317" y1="72.6449" x2="52.5317" y2="40.2183">
		<stop  offset="0" style="stop-color:#E8D5C1"/>
		<stop  offset="0.9996" style="stop-color:#F6ECE9"/>
	</linearGradient>
	<path class="st22" d="M52.53,72.64c16.03,0,29.34-11.66,31.93-26.97c0.48-2.86-1.76-5.45-4.66-5.45H25.25
		c-2.89,0-5.14,2.6-4.66,5.45C23.19,60.98,36.5,72.64,52.53,72.64z"/>
	<linearGradient id="SVGID_20_" gradientUnits="userSpaceOnUse" x1="52.5317" y1="80.7366" x2="52.5317" y2="71.1449">
		<stop  offset="0" style="stop-color:#E7D4C0"/>
		<stop  offset="0.9988" style="stop-color:#F5EDEA"/>
	</linearGradient>
	<line class="st23" x1="52.53" y1="72.64" x2="52.53" y2="79.24"/>
	<linearGradient id="SVGID_21_" gradientUnits="userSpaceOnUse" x1="52.5317" y1="86.8896" x2="52.5317" y2="79.2366">
		<stop  offset="0" style="stop-color:#E8D5C1"/>
		<stop  offset="1" style="stop-color:#F6ECE9"/>
	</linearGradient>
	<path class="st24" d="M59.21,86.89H45.85c-1.85,0-3.36-1.51-3.36-3.36V82.6c0-1.85,1.51-3.36,3.36-3.36h13.36
		c1.85,0,3.36,1.51,3.36,3.36v0.93C62.58,85.38,61.06,86.89,59.21,86.89z"/>
	<linearGradient id="SVGID_22_" gradientUnits="userSpaceOnUse" x1="52.5317" y1="72.6449" x2="52.5317" y2="40.2183">
		<stop  offset="0.2523" style="stop-color:#F6ECEA"/>
		<stop  offset="0.27" style="stop-color:#F5EBE8"/>
		<stop  offset="0.5295" style="stop-color:#EDDED2"/>
		<stop  offset="0.7775" style="stop-color:#E9D7C5"/>
		<stop  offset="1" style="stop-color:#E7D4C0"/>
	</linearGradient>
	<path class="st25" d="M63.22,40.22c1.39,3.43,2.2,6.51,2.2,10.96c0,11.86-5.77,21.47-12.89,21.47s-12.89-9.61-12.89-21.47
		c0-4.43,0.8-7.54,2.18-10.96H63.22z"/>
	<linearGradient id="SVGID_23_" gradientUnits="userSpaceOnUse" x1="52.6818" y1="30.5561" x2="52.6818" y2="30.5561">
		<stop  offset="0.2267" style="stop-color:#FF643A"/>
		<stop  offset="0.9996" style="stop-color:#FF643A"/>
	</linearGradient>
	<path class="st26" d="M52.68,30.56"/>
</g>
<g class="st0">
	<linearGradient id="SVGID_24_" gradientUnits="userSpaceOnUse" x1="48.8059" y1="17.6698" x2="48.8059" y2="84.9872">
		<stop  offset="0.1704" style="stop-color:#FFE2B4"/>
		<stop  offset="0.3287" style="stop-color:#FFE0B1"/>
		<stop  offset="0.4639" style="stop-color:#FFDAA6"/>
		<stop  offset="0.5906" style="stop-color:#FFCF94"/>
		<stop  offset="0.7121" style="stop-color:#FFC17C"/>
		<stop  offset="0.8289" style="stop-color:#FFAE5C"/>
		<stop  offset="0.9327" style="stop-color:#FF9939"/>
	</linearGradient>
	<path class="st27" d="M52.89,14.95h-0.03c-1.33-0.15-2.68-0.23-4.05-0.23c-19.89,0-36,16.12-36,36c0,0.35,0.01,0.7,0.02,1.05
		c-0.01,0.02-0.01,0.03,0,0.05c0,0.12,0,0.25,0.01,0.37c0.77,19.2,16.57,34.53,35.97,34.53c19.88,0,36-16.12,36-36
		C84.81,32.22,70.85,16.98,52.89,14.95z M48.81,57.75c-3.88,0-7.03-3.15-7.03-7.03s3.15-7.03,7.03-7.03s7.03,3.15,7.03,7.03
		S52.69,57.75,48.81,57.75z"/>
	<linearGradient id="SVGID_25_" gradientUnits="userSpaceOnUse" x1="45.9459" y1="14.7248" x2="45.9459" y2="71.3649">
		<stop  offset="0" style="stop-color:#F98B96"/>
		<stop  offset="0.6602" style="stop-color:#F96977"/>
		<stop  offset="1" style="stop-color:#F96372"/>
	</linearGradient>
	<path class="st28" d="M67.97,20.24c-4.47-2.81-9.59-4.67-15.08-5.29h-0.03c-1.33-0.15-2.68-0.23-4.05-0.23c-19.89,0-36,16.12-36,36
		c0,0.35,0.01,0.7,0.02,1.05c-0.01,0.02-0.01,0.03,0,0.05c0,0.1,0,0.21,0.01,0.32c0-0.24-0.01-0.51,0.04-0.73
		c0.34-1.68,1.82-2.94,3.6-2.94c1.02,0,1.93,0.41,2.6,1.07c0.66,0.67,1.07,1.58,1.07,2.6v10.03c0,2.02,1.65,3.67,3.68,3.67
		c1.01,0,1.93-0.41,2.59-1.08c0.67-0.66,1.08-1.58,1.08-2.59v-2.7c0-2.03,1.64-3.67,3.67-3.67c1.01,0,1.93,0.41,2.6,1.07
		c0.66,0.67,1.07,1.59,1.07,2.6v8.21c0,2.03,1.65,3.68,3.68,3.68c1.01,0,1.93-0.41,2.59-1.08c0.67-0.66,1.08-1.58,1.08-2.6v-9.41
		c0.89,0.77,1.91,1.4,3.02,1.83c1.12,0.42,2.33,0.66,3.6,0.66c5.54,0,10.04-4.5,10.04-10.04c0-0.56-0.05-1.11-0.13-1.65
		c0-1.01,0.44-2.01,1.14-2.75c0.7-0.74,1.64-1.23,2.66-1.23s1.93,0.41,2.6,1.08c0.66,0.66,1.07,1.58,1.07,2.59v15.15
		c0,0.24,0.02,0.48,0.07,0.71c0.14,0.73,0.5,1.38,1.01,1.89c0.67,0.66,1.59,1.07,2.6,1.07c2.02,0,3.67-1.64,3.67-3.67V34.63
		c0-2.03,1.64-3.68,3.67-3.68c0.51,0,1.44,0.1,1.88,0.29C76.23,26.81,72.43,23.05,67.97,20.24z M48.81,57.75
		c-3.88,0-7.03-3.15-7.03-7.03c0-3.88,3.14-7.03,7.03-7.03c3.88,0,7.03,3.14,7.03,7.03C55.83,54.6,52.68,57.75,48.81,57.75z"/>
	<linearGradient id="SVGID_26_" gradientUnits="userSpaceOnUse" x1="31.8636" y1="31.0879" x2="31.8636" y2="39.7234">
		<stop  offset="0" style="stop-color:#FDE2D3"/>
		<stop  offset="0.3967" style="stop-color:#FDDFD0"/>
		<stop  offset="0.7348" style="stop-color:#FED4C6"/>
		<stop  offset="1" style="stop-color:#FFC6B8"/>
	</linearGradient>
	<circle class="st29" cx="31.86" cy="35.33" r="5.67"/>
	<g class="st1">
		<defs>
			<path id="SVGID_27_" d="M67.97,20.24c-4.47-2.81-9.59-4.67-15.08-5.29h-0.03c-1.33-0.15-2.68-0.23-4.05-0.23
				c-19.89,0-36,16.12-36,36c0,0.35,0.01,0.7,0.02,1.05c-0.01,0.02-0.01,0.03,0,0.05c0,0.1,0,0.21,0.01,0.32
				c0-0.24-0.01-0.51,0.04-0.73c0.34-1.68,1.82-2.94,3.6-2.94c1.02,0,1.93,0.41,2.6,1.07c0.66,0.67,1.07,1.58,1.07,2.6v10.03
				c0,2.02,1.65,3.67,3.68,3.67c1.01,0,1.93-0.41,2.59-1.08c0.67-0.66,1.08-1.58,1.08-2.59v-2.7c0-2.03,1.64-3.67,3.67-3.67
				c1.01,0,1.93,0.41,2.6,1.07c0.66,0.67,1.07,1.59,1.07,2.6v8.21c0,2.03,1.65,3.68,3.68,3.68c1.01,0,1.93-0.41,2.59-1.08
				c0.67-0.66,1.08-1.58,1.08-2.6v-9.41c0.89,0.77,1.91,1.4,3.02,1.83c1.12,0.42,2.33,0.66,3.6,0.66c5.54,0,10.04-4.5,10.04-10.04
				c0-0.56-0.05-1.11-0.13-1.65c0-1.01,0.44-2.01,1.14-2.75c0.7-0.74,1.64-1.23,2.66-1.23s1.93,0.41,2.6,1.08
				c0.66,0.66,1.07,1.58,1.07,2.59v15.15c0,0.24,0.02,0.48,0.07,0.71c0.14,0.73,0.5,1.38,1.01,1.89c0.67,0.66,1.59,1.07,2.6,1.07
				c2.02,0,3.67-1.64,3.67-3.67V34.63c0-2.03,1.64-3.68,3.67-3.68c0.51,0,1.44,0.1,1.88,0.29C76.23,26.81,72.43,23.05,67.97,20.24z
				 M48.81,57.75c-3.88,0-7.03-3.15-7.03-7.03c0-3.88,3.14-7.03,7.03-7.03c3.88,0,7.03,3.14,7.03,7.03
				C55.83,54.6,52.68,57.75,48.81,57.75z"/>
		</defs>
		<clipPath id="SVGID_28_">
			<use xlink:href="#SVGID_27_"  style="overflow:visible;"/>
		</clipPath>
		<linearGradient id="SVGID_29_" gradientUnits="userSpaceOnUse" x1="47.1576" y1="12.2646" x2="47.1576" y2="21.4131">
			<stop  offset="0" style="stop-color:#FDE2D3"/>
			<stop  offset="0.3967" style="stop-color:#FDDFD0"/>
			<stop  offset="0.7348" style="stop-color:#FED4C6"/>
			<stop  offset="1" style="stop-color:#FFC6B8"/>
		</linearGradient>
		<circle class="st30" cx="47.16" cy="16.76" r="6.01"/>
	</g>
	<linearGradient id="SVGID_30_" gradientUnits="userSpaceOnUse" x1="58.7792" y1="29.6586" x2="65.5461" y2="29.6586">
		<stop  offset="0" style="stop-color:#FDE2D3"/>
		<stop  offset="0.3967" style="stop-color:#FDDFD0"/>
		<stop  offset="0.7348" style="stop-color:#FED4C6"/>
		<stop  offset="1" style="stop-color:#FFC6B8"/>
	</linearGradient>
	<circle class="st31" cx="62.16" cy="29.66" r="3.38"/>
</g>
<g class="st0">
	<linearGradient id="SVGID_31_" gradientUnits="userSpaceOnUse" x1="64.1277" y1="40.1916" x2="55.3674" y2="80.1">
		<stop  offset="0" style="stop-color:#FDE3D7"/>
		<stop  offset="0.5038" style="stop-color:#FDE0D8"/>
		<stop  offset="0.9334" style="stop-color:#FDD5DB"/>
		<stop  offset="0.9381" style="stop-color:#FDD5DB"/>
	</linearGradient>
	<polygon class="st32" points="84.81,74.82 34.66,86.72 34.66,45.62 84.6,33.87 	"/>
	<path class="st10" d="M84.6,33.87"/>
	<linearGradient id="SVGID_32_" gradientUnits="userSpaceOnUse" x1="23.696" y1="48.2086" x2="23.7871" y2="82.2054">
		<stop  offset="0" style="stop-color:#FFCAAA"/>
		<stop  offset="0.5712" style="stop-color:#FF967B"/>
		<stop  offset="1" style="stop-color:#FF644C"/>
	</linearGradient>
	<path class="st33" d="M34.66,45.62v41.1c-12.07,0-21.85-4.4-21.85-9.94V35.53"/>
	<g class="st1">
		<defs>
			<polygon id="SVGID_33_" points="84.81,74.82 34.66,86.72 34.66,45.62 84.6,33.87 			"/>
		</defs>
		<clipPath id="SVGID_34_">
			<use xlink:href="#SVGID_33_"  style="overflow:visible;"/>
		</clipPath>
		<linearGradient id="SVGID_35_" gradientUnits="userSpaceOnUse" x1="77.0136" y1="61.1252" x2="42.2385" y2="41.0478">
			<stop  offset="0" style="stop-color:#FF7879"/>
			<stop  offset="0.6602" style="stop-color:#FF7373"/>
			<stop  offset="1" style="stop-color:#FF6768"/>
		</linearGradient>
		<polyline class="st34" points="34.66,57.18 47.88,53.95 52.98,52.71 56.54,51.84 84.6,44.99 		"/>
		<linearGradient id="SVGID_36_" gradientUnits="userSpaceOnUse" x1="33.1558" y1="61.2687" x2="86.0963" y2="61.2687">
			<stop  offset="0" style="stop-color:#FF4142"/>
			<stop  offset="0.6602" style="stop-color:#FF4D4D"/>
			<stop  offset="1" style="stop-color:#FF7F7D"/>
		</linearGradient>
		<line class="st35" x1="34.66" y1="67.16" x2="84.6" y2="55.38"/>
		<linearGradient id="SVGID_37_" gradientUnits="userSpaceOnUse" x1="77.1411" y1="80.8972" x2="42.111" y2="60.6725">
			<stop  offset="0" style="stop-color:#FF4C49"/>
			<stop  offset="0.6602" style="stop-color:#FD504E"/>
			<stop  offset="1" style="stop-color:#FF5857"/>
		</linearGradient>
		<line class="st36" x1="34.66" y1="76.59" x2="84.6" y2="64.98"/>
	</g>
	<linearGradient id="SVGID_38_" gradientUnits="userSpaceOnUse" x1="84.5963" y1="33.8714" x2="84.5963" y2="33.8714">
		<stop  offset="0" style="stop-color:#FFB17A"/>
		<stop  offset="0.6602" style="stop-color:#FF5F3F"/>
		<stop  offset="1" style="stop-color:#FF5B3D"/>
	</linearGradient>
	<path class="st37" d="M84.6,33.87"/>
	<linearGradient id="SVGID_39_" gradientUnits="userSpaceOnUse" x1="48.7011" y1="27.1476" x2="48.7011" y2="77.3754">
		<stop  offset="0" style="stop-color:#FFD4B2"/>
		<stop  offset="0.6602" style="stop-color:#FF8F73"/>
		<stop  offset="1" style="stop-color:#FF674D"/>
	</linearGradient>
	<path class="st38" d="M52.45,29.12l32.15,4.75l-24.87,5.85l-0.04,14.23c0,0.36-0.05,0.72-0.14,1.05c-0.45,1.62-1.91,2.8-3.65,2.8h0
		c-2.09,0-3.79-1.73-3.79-3.86V42.37v0v20.67v10.48c0,2.13-1.7,3.86-3.79,3.86h0c-2.09,0-3.79-1.73-3.79-3.86V54.78V43.39
		l-0.02-0.09l-9.86,2.32c-12.07,0-21.85-4.56-21.85-10.1c0-3.61,4.17-6.78,10.57-8.38"/>
	<linearGradient id="SVGID_40_" gradientUnits="userSpaceOnUse" x1="30.8483" y1="19.3999" x2="30.5059" y2="32.8968">
		<stop  offset="0" style="stop-color:#FF7D7D"/>
		<stop  offset="0.8455" style="stop-color:#FF6A6A"/>
		<stop  offset="1" style="stop-color:#FF4848"/>
	</linearGradient>
	<path class="st39" d="M33.69,32.48c-3.46,1.69-7.61,0.21-9.27-3.31s-0.2-7.74,3.25-9.43s7.61-0.21,9.27,3.31
		c0.62,1.32,0.81,2.73,0.61,4.08C37.23,29.38,35.85,31.43,33.69,32.48z"/>
	<linearGradient id="SVGID_41_" gradientUnits="userSpaceOnUse" x1="45.1275" y1="26.2673" x2="45.1951" y2="36.7406">
		<stop  offset="0" style="stop-color:#FF7676"/>
		<stop  offset="0.6602" style="stop-color:#FF6565"/>
		<stop  offset="1" style="stop-color:#FF4644"/>
	</linearGradient>
	<ellipse class="st40" cx="45.16" cy="30.74" rx="6.95" ry="7.07"/>
	<linearGradient id="SVGID_42_" gradientUnits="userSpaceOnUse" x1="49.3063" y1="28.6476" x2="49.3063" y2="17.3657">
		<stop  offset="0" style="stop-color:#573633"/>
		<stop  offset="0.4853" style="stop-color:#A06253"/>
		<stop  offset="1" style="stop-color:#A96857"/>
	</linearGradient>
	<path class="st41" d="M45.16,27.15c0,0,1.52-9.42,8.3-8.17"/>
	<linearGradient id="SVGID_43_" gradientUnits="userSpaceOnUse" x1="27.8808" y1="13.2248" x2="27.8808" y2="24.5067">
		<stop  offset="0" style="stop-color:#D28069"/>
		<stop  offset="0.7059" style="stop-color:#B26D5B"/>
		<stop  offset="1" style="stop-color:#814F45"/>
	</linearGradient>
	<path class="st42" d="M32.03,23.01c0,0-1.52-9.42-8.3-8.17"/>
</g>
<g class="st0">
	<linearGradient id="SVGID_44_" gradientUnits="userSpaceOnUse" x1="59.5238" y1="23.574" x2="63.2674" y2="17.0899">
		<stop  offset="0" style="stop-color:#FFB17A"/>
		<stop  offset="0.1515" style="stop-color:#FFA16F"/>
		<stop  offset="0.446" style="stop-color:#FF7851"/>
		<stop  offset="0.6021" style="stop-color:#FF5F3F"/>
		<stop  offset="1" style="stop-color:#FF5B3D"/>
	</linearGradient>
	<path class="st43" d="M65.12,20.33c0,2.07-1.67,3.75-3.72,3.75c-0.92,0-1.77-0.34-2.42-0.9c-0.67-0.57-1.13-1.38-1.26-2.29
		c-0.03-0.18-0.04-0.37-0.04-0.56c0-2.07,1.67-3.75,3.72-3.75S65.12,18.26,65.12,20.33z"/>
	<linearGradient id="SVGID_45_" gradientUnits="userSpaceOnUse" x1="34.7513" y1="39.4552" x2="27.6442" y2="35.3519">
		<stop  offset="0" style="stop-color:#FFB17A"/>
		<stop  offset="0.1515" style="stop-color:#FFA16F"/>
		<stop  offset="0.446" style="stop-color:#FF7851"/>
		<stop  offset="0.6021" style="stop-color:#FF5F3F"/>
		<stop  offset="1" style="stop-color:#FF5B3D"/>
	</linearGradient>
	<ellipse class="st44" cx="31.2" cy="37.4" rx="4.1" ry="4.12"/>
	<linearGradient id="SVGID_46_" gradientUnits="userSpaceOnUse" x1="66.6402" y1="40.3399" x2="75.2945" y2="40.3399">
		<stop  offset="0" style="stop-color:#FFE3BA"/>
		<stop  offset="0.1844" style="stop-color:#FFE1B6"/>
		<stop  offset="0.3619" style="stop-color:#FFDBAB"/>
		<stop  offset="0.5367" style="stop-color:#FFD197"/>
		<stop  offset="0.7088" style="stop-color:#FFC27C"/>
		<stop  offset="0.8453" style="stop-color:#FFB461"/>
	</linearGradient>
	<ellipse class="st45" cx="70.97" cy="40.34" rx="4.33" ry="4.31"/>
	<linearGradient id="SVGID_47_" gradientUnits="userSpaceOnUse" x1="51.9437" y1="17.3509" x2="51.7008" y2="29.4303">
		<stop  offset="0.2542" style="stop-color:#FFB17A"/>
		<stop  offset="0.3581" style="stop-color:#FFA16F"/>
		<stop  offset="0.5602" style="stop-color:#FF7851"/>
		<stop  offset="0.6674" style="stop-color:#FF5F3F"/>
		<stop  offset="1" style="stop-color:#FF5B3D"/>
	</linearGradient>
	<path class="st46" d="M40.47,27.56c-0.38-1.22-0.44-2.55-0.12-3.88l0,0c0.95-3.87,4.83-6.23,8.67-5.28l1.03,0.26l0.29-4.22
		l4.19,5.33l3.4,0.84c3.84,0.95,6.19,4.86,5.25,8.73l0,0c-0.15,0.6-0.52,1.57-0.8,2.09"/>
	<linearGradient id="SVGID_48_" gradientUnits="userSpaceOnUse" x1="36.1507" y1="22.0794" x2="40.2571" y2="29.192">
		<stop  offset="0" style="stop-color:#FFE3BA"/>
		<stop  offset="0.1844" style="stop-color:#FFE1B6"/>
		<stop  offset="0.3619" style="stop-color:#FFDBAB"/>
		<stop  offset="0.5367" style="stop-color:#FFD197"/>
		<stop  offset="0.7088" style="stop-color:#FFC27C"/>
		<stop  offset="0.8453" style="stop-color:#FFB461"/>
	</linearGradient>
	<ellipse class="st47" cx="38.2" cy="25.64" rx="4.12" ry="4.1"/>
	<linearGradient id="SVGID_49_" gradientUnits="userSpaceOnUse" x1="51.8931" y1="31.0119" x2="51.6693" y2="40.433">
		<stop  offset="0" style="stop-color:#FFB17A"/>
		<stop  offset="0.1627" style="stop-color:#FFA16F"/>
		<stop  offset="0.4791" style="stop-color:#FF7851"/>
		<stop  offset="0.6469" style="stop-color:#FF5F3F"/>
		<stop  offset="1" style="stop-color:#FF5B3D"/>
	</linearGradient>
	<path class="st48" d="M34.91,39.22c-1.23-1.54-1.82-3.58-1.47-5.67l0,0c0.65-3.9,4.32-6.54,8.2-5.89l22.6,3.81
		c3.88,0.65,6.5,4.35,5.85,8.25v0c-0.18,1.09-0.6,2.08-1.19,2.93"/>
	<linearGradient id="SVGID_50_" gradientUnits="userSpaceOnUse" x1="51.5655" y1="41.6017" x2="51.7538" y2="58.6231">
		<stop  offset="0" style="stop-color:#FDD5A9"/>
		<stop  offset="0.2657" style="stop-color:#FCCE99"/>
		<stop  offset="0.4409" style="stop-color:#FCC88C"/>
		<stop  offset="1" style="stop-color:#FF9500"/>
	</linearGradient>
	<path class="st49" d="M70.14,42.78L34.9,39.23c-4.19-0.42-7.92,2.65-8.34,6.87c-0.16,1.58,0.17,3.1,0.87,4.4l10.01,18.03
		l31.94-0.93l6.82-15.39c0.81-1.83,0.76-3.96-0.25-5.69C74.76,44.49,72.65,43.03,70.14,42.78z"/>
	<linearGradient id="SVGID_51_" gradientUnits="userSpaceOnUse" x1="51.7611" y1="55.5734" x2="51.7295" y2="84.76">
		<stop  offset="0" style="stop-color:#FF945E"/>
		<stop  offset="0.8045" style="stop-color:#FF905B"/>
		<stop  offset="1" style="stop-color:#FF8E5A"/>
	</linearGradient>
	<path class="st50" d="M74.57,50.46c-4.2,0-6.81,3.5-7.6,7.65c0.82-4.3-3.4-7.65-7.6-7.65c-4.2,0-7.6,3.43-7.6,7.65
		c0-4.23-3.4-7.65-7.6-7.65s-8.47,3.52-7.6,7.65c-0.9-4.3-3.4-7.65-7.6-7.65c-4.2,0-8.37,3.5-7.6,7.65
		c1.12,6.08,8.78,23.08,8.78,23.08c1.2,3.16,4.21,5.24,7.57,5.24h28.13c3.36,0,6.37-2.08,7.57-5.24c0,0,7.66-17.01,8.78-23.08
		C82.93,53.96,78.76,50.46,74.57,50.46z"/>
	<g class="st1">
		<defs>
			<path id="SVGID_52_" d="M74.57,50.46c-4.2,0-6.81,3.5-7.6,7.65c0.82-4.3-3.4-7.65-7.6-7.65c-4.2,0-7.6,3.43-7.6,7.65
				c0-4.23-3.4-7.65-7.6-7.65s-8.47,3.52-7.6,7.65c-0.9-4.3-3.4-7.65-7.6-7.65c-4.2,0-8.37,3.5-7.6,7.65
				c1.12,6.08,8.78,23.08,8.78,23.08c1.2,3.16,4.21,5.24,7.57,5.24h28.13c3.36,0,6.37-2.08,7.57-5.24c0,0,7.66-17.01,8.78-23.08
				C82.93,53.96,78.76,50.46,74.57,50.46z"/>
		</defs>
		<linearGradient id="SVGID_53_" gradientUnits="userSpaceOnUse" x1="51.7611" y1="55.5734" x2="51.7295" y2="84.76">
			<stop  offset="0" style="stop-color:#A36021"/>
			<stop  offset="0.3885" style="stop-color:#A15C1F"/>
			<stop  offset="0.762" style="stop-color:#99511B"/>
			<stop  offset="1" style="stop-color:#924516"/>
		</linearGradient>
		<use xlink:href="#SVGID_52_"  style="overflow:visible;fill:url(#SVGID_53_);"/>
		<clipPath id="SVGID_54_">
			<use xlink:href="#SVGID_52_"  style="overflow:visible;"/>
		</clipPath>
		<linearGradient id="SVGID_55_" gradientUnits="userSpaceOnUse" x1="51.7595" y1="90.2092" x2="51.7595" y2="50.5592">
			<stop  offset="0" style="stop-color:#FDD7DB"/>
			<stop  offset="0.6602" style="stop-color:#FDE1D8"/>
			<stop  offset="1" style="stop-color:#FFE4D5"/>
		</linearGradient>
		<line class="st51" x1="51.76" y1="52.06" x2="51.76" y2="88.71"/>
		<linearGradient id="SVGID_56_" gradientUnits="userSpaceOnUse" x1="59.9428" y1="69.1964" x2="69.7724" y2="69.1964">
			<stop  offset="0" style="stop-color:#FDD7DB"/>
			<stop  offset="0.6602" style="stop-color:#FDE1D8"/>
			<stop  offset="1" style="stop-color:#FFE4D5"/>
		</linearGradient>
		<line class="st52" x1="68.27" y1="51.23" x2="61.44" y2="87.16"/>
		<linearGradient id="SVGID_57_" gradientUnits="userSpaceOnUse" x1="44.5025" y1="71.2868" x2="34.6433" y2="71.2868">
			<stop  offset="0" style="stop-color:#FDD7DB"/>
			<stop  offset="0.6602" style="stop-color:#FDE1D8"/>
			<stop  offset="1" style="stop-color:#FFE4D5"/>
		</linearGradient>
		<line class="st53" x1="36.14" y1="53.86" x2="43" y2="88.71"/>
	</g>
	<linearGradient id="SVGID_58_" gradientUnits="userSpaceOnUse" x1="49.875" y1="27.4039" x2="57.5038" y2="27.4039">
		<stop  offset="0" style="stop-color:#FFEDE3"/>
		<stop  offset="0.3018" style="stop-color:#FFEBDF"/>
		<stop  offset="0.5924" style="stop-color:#FFE4D4"/>
		<stop  offset="0.8776" style="stop-color:#FFD8C0"/>
		<stop  offset="0.9398" style="stop-color:#FFD5BB"/>
	</linearGradient>
	<path class="st54" d="M49.95,29.07c-0.05-0.24-0.07-0.48-0.07-0.73c0-2.1,1.71-3.8,3.81-3.8c2.11,0,3.81,1.7,3.81,3.8
		c0,0.7-0.19,1.35-0.52,1.91"/>
	<linearGradient id="SVGID_59_" gradientUnits="userSpaceOnUse" x1="54.1049" y1="36.6595" x2="54.1049" y2="41.5317">
		<stop  offset="0" style="stop-color:#FFEDE3"/>
		<stop  offset="0.3018" style="stop-color:#FFEBDF"/>
		<stop  offset="0.5924" style="stop-color:#FFE4D4"/>
		<stop  offset="0.8776" style="stop-color:#FFD8C0"/>
		<stop  offset="0.9398" style="stop-color:#FFD5BB"/>
	</linearGradient>
	<path class="st55" d="M50.32,40.78c-0.01-0.1-0.01-0.2-0.01-0.3c0-2.11,1.7-3.82,3.79-3.82c2.09,0,3.79,1.71,3.79,3.82
		c0,0.37-0.05,0.72-0.15,1.05"/>
</g>
<g>
	<linearGradient id="SVGID_60_" gradientUnits="userSpaceOnUse" x1="74.6579" y1="43.7636" x2="66.341" y2="42.2971">
		<stop  offset="0.1554" style="stop-color:#F7BA31"/>
		<stop  offset="0.1645" style="stop-color:#F7BB32"/>
		<stop  offset="0.3118" style="stop-color:#F9C13C"/>
		<stop  offset="0.4969" style="stop-color:#F9C33F"/>
		<stop  offset="0.5596" style="stop-color:#FAC644"/>
		<stop  offset="0.7867" style="stop-color:#FCCE51"/>
		<stop  offset="1" style="stop-color:#FDD155"/>
	</linearGradient>
	<path class="st56" d="M66.79,49.1c0.39-2.38,2.37-4.15,4.76-4.15h2.62l2.49-12.55c0.42-2.13-0.85-4.23-2.83-4.68l-0.47-0.11
		c-1.99-0.45-3.94,0.91-4.37,3.04l-5.38,27.1C65.17,55.13,66.27,52.22,66.79,49.1z"/>
	<linearGradient id="SVGID_61_" gradientUnits="userSpaceOnUse" x1="67.0245" y1="44.8935" x2="58.7046" y2="43.7242">
		<stop  offset="0.1554" style="stop-color:#F7BA31"/>
		<stop  offset="0.1645" style="stop-color:#F7BB32"/>
		<stop  offset="0.3118" style="stop-color:#F9C13C"/>
		<stop  offset="0.4969" style="stop-color:#F9C33F"/>
		<stop  offset="0.5596" style="stop-color:#FAC644"/>
		<stop  offset="0.7867" style="stop-color:#FCCE51"/>
		<stop  offset="1" style="stop-color:#FDD155"/>
	</linearGradient>
	<path class="st57" d="M64.3,64.29l5.59-42.67c0.29-2.2-1.14-4.23-3.19-4.54L66.22,17c-2.05-0.31-3.95,1.22-4.24,3.42l-6.63,50.61
		C58.81,69.47,61.87,67.16,64.3,64.29z"/>
	<linearGradient id="SVGID_62_" gradientUnits="userSpaceOnUse" x1="59.2726" y1="46.767" x2="50.4671" y2="45.9966">
		<stop  offset="0.1554" style="stop-color:#F7BA31"/>
		<stop  offset="0.1645" style="stop-color:#F7BB32"/>
		<stop  offset="0.3118" style="stop-color:#F9C13C"/>
		<stop  offset="0.4969" style="stop-color:#F9C33F"/>
		<stop  offset="0.5596" style="stop-color:#FAC644"/>
		<stop  offset="0.7867" style="stop-color:#FCCE51"/>
		<stop  offset="1" style="stop-color:#FDD155"/>
	</linearGradient>
	<path class="st58" d="M57.17,70.77l2.95-46.56c0.14-2.14-1.37-3.99-3.37-4.14l-0.47-0.03c-2-0.15-3.72,1.47-3.86,3.61l-3.08,48.72
		C52.09,72.27,54.73,71.72,57.17,70.77z"/>
	<linearGradient id="SVGID_63_" gradientUnits="userSpaceOnUse" x1="52.3579" y1="43.9963" x2="42.521" y2="43.9963">
		<stop  offset="0.1554" style="stop-color:#F7BA31"/>
		<stop  offset="0.1645" style="stop-color:#F7BB32"/>
		<stop  offset="0.3118" style="stop-color:#F9C13C"/>
		<stop  offset="0.4969" style="stop-color:#F9C33F"/>
		<stop  offset="0.5596" style="stop-color:#FAC644"/>
		<stop  offset="0.7867" style="stop-color:#FCCE51"/>
		<stop  offset="1" style="stop-color:#FDD155"/>
	</linearGradient>
	<path class="st59" d="M51.43,73.63c0.31,0,0.62-0.03,0.93-0.04l-2.02-55.46c-0.09-2.17-1.8-3.86-3.83-3.76l-0.48,0.02
		c-2.03,0.09-3.6,1.93-3.51,4.1l1.97,54.13C46.7,73.27,49.02,73.63,51.43,73.63z"/>
	<linearGradient id="SVGID_64_" gradientUnits="userSpaceOnUse" x1="46.0541" y1="46.5178" x2="34.0157" y2="47.5901">
		<stop  offset="0.1554" style="stop-color:#F7BC36"/>
		<stop  offset="0.299" style="stop-color:#F8C03B"/>
		<stop  offset="0.6079" style="stop-color:#F9C33E"/>
		<stop  offset="0.6195" style="stop-color:#F9C43F"/>
		<stop  offset="0.8035" style="stop-color:#FBCB4A"/>
		<stop  offset="1" style="stop-color:#FCCD4E"/>
	</linearGradient>
	<path class="st60" d="M45.85,71.03l-3.92-44.56c-0.2-2.26-2.07-3.92-4.18-3.7l-0.5,0.05c-2.11,0.21-3.65,2.22-3.46,4.48l3.35,38.02
		C39.61,67.77,42.57,69.73,45.85,71.03z"/>
	<linearGradient id="SVGID_65_" gradientUnits="userSpaceOnUse" x1="36.0408" y1="41.6254" x2="26.7881" y2="43.2569">
		<stop  offset="0.1554" style="stop-color:#F7BC34"/>
		<stop  offset="0.1623" style="stop-color:#F7BD36"/>
		<stop  offset="0.2308" style="stop-color:#FAC647"/>
		<stop  offset="0.3061" style="stop-color:#FCCB51"/>
		<stop  offset="0.4006" style="stop-color:#FCCD54"/>
		<stop  offset="1" style="stop-color:#FDD257"/>
	</linearGradient>
	<path class="st61" d="M27.79,48.92h1.15c2.53,0,4.61,1.88,5.03,4.39c0.62,3.76,2.05,7.24,4.07,10.28L32.96,24.2
		c-0.29-2.28-2.26-3.87-4.38-3.56l-0.5,0.07c-2.13,0.31-3.61,2.42-3.32,4.7L27.79,48.92z"/>
	<linearGradient id="SVGID_66_" gradientUnits="userSpaceOnUse" x1="50.243" y1="38.2326" x2="50.243" y2="86.3627">
		<stop  offset="0.3441" style="stop-color:#F66C54"/>
		<stop  offset="0.5534" style="stop-color:#F66850"/>
		<stop  offset="0.7548" style="stop-color:#F55D46"/>
		<stop  offset="0.9525" style="stop-color:#F34934"/>
		<stop  offset="0.9796" style="stop-color:#F34631"/>
	</linearGradient>
	<path class="st62" d="M70.73,38.23c-1.68,0-3.06,1.25-3.34,2.91c-1.38,8.29-8.53,14.61-17.15,14.61s-15.77-6.32-17.15-14.61
		c-0.28-1.67-1.66-2.91-3.34-2.91h-3.64c-2.05,0-3.63,1.83-3.34,3.88l5.82,41.33c0.24,1.68,1.66,2.92,3.34,2.92h36.61
		c1.68,0,3.11-1.25,3.34-2.92l5.82-41.33c0.29-2.05-1.29-3.88-3.34-3.88H70.73z"/>
	<g>
		<defs>
			<path id="SVGID_67_" d="M70.73,38.23c-1.68,0-3.06,1.25-3.34,2.91c-1.38,8.29-8.53,14.61-17.15,14.61s-15.77-6.32-17.15-14.61
				c-0.28-1.67-1.66-2.91-3.34-2.91h-3.64c-2.05,0-3.63,1.83-3.34,3.88l5.82,41.33c0.24,1.68,1.66,2.92,3.34,2.92h36.61
				c1.68,0,3.11-1.25,3.34-2.92l5.82-41.33c0.29-2.05-1.29-3.88-3.34-3.88H70.73z"/>
		</defs>
		<clipPath id="SVGID_68_">
			<use xlink:href="#SVGID_67_"  style="overflow:visible;"/>
		</clipPath>
		<linearGradient id="SVGID_69_" gradientUnits="userSpaceOnUse" x1="50.243" y1="65.3643" x2="50.243" y2="75.2932">
			<stop  offset="0" style="stop-color:#774A21"/>
			<stop  offset="0.4031" style="stop-color:#76471D"/>
			<stop  offset="0.7907" style="stop-color:#733F12"/>
			<stop  offset="0.9398" style="stop-color:#713B0B"/>
		</linearGradient>
		<rect x="22.74" y="65.36" class="st63" width="55" height="9.93"/>
	</g>
	<linearGradient id="SVGID_70_" gradientUnits="userSpaceOnUse" x1="49.8241" y1="79.6886" x2="50.6618" y2="60.5717">
		<stop  offset="0.4242" style="stop-color:#FFC37A"/>
		<stop  offset="0.6523" style="stop-color:#FFD39E"/>
		<stop  offset="0.8725" style="stop-color:#FFE0BA"/>
		<stop  offset="1" style="stop-color:#FFE5C4"/>
	</linearGradient>
	<path class="st64" d="M59.74,70.13c0,5.28-4.25,9.57-9.5,9.57s-9.5-4.28-9.5-9.57c0-1.51,0.35-2.95,0.97-4.22
		c1.55-3.17,4.78-5.35,8.53-5.35c3.74,0,6.98,2.18,8.53,5.35C59.39,67.18,59.74,68.62,59.74,70.13z"/>
</g>
</svg>
