<?xml version="1.0" encoding="UTF-8"?>
<svg width="137px" height="139px" viewBox="0 0 137 139" version="1.1" xmlns="http://www.w3.org/2000/svg" xmlns:xlink="http://www.w3.org/1999/xlink">
    <!-- Generator: Sketch 61.1 (89650) - https://sketch.com -->
    <title>9</title>
    <desc>Created with Sketch.</desc>
    <g id="Page-1" stroke="none" stroke-width="1" fill="none" fill-rule="evenodd">
        <g id="Artboard" transform="translate(-684.000000, -677.000000)">
            <g id="9" transform="translate(683.000000, 676.000000)">
                <path d="M98.8255484,65.2567097 C92.0761935,69.8383226 82.8836129,72.9115484 72.5890968,73.6092903 C71.1190968,73.6996129 69.6513548,73.7470323 68.1632903,73.7470323 C65.8149032,73.7470323 63.5094194,73.634129 61.2513548,73.3857419 C51.9707097,72.4147742 43.7084516,69.4770323 37.5213548,65.2567097 C41.2697419,60.5125161 47.5223226,56.7415484 55.132,54.7092903 C58.4761935,53.8083226 62.0868387,53.2438065 65.8578065,53.0834839 C66.6255484,53.0631613 67.3932903,53.0405806 68.1632903,53.0405806 C81.5061935,53.0405806 93.0900645,57.9834839 98.8255484,65.2567097" id="Fill-809" fill="#FE4E4F"></path>
                <path d="M33.8400323,77.9011935 L33.6593871,77.2689355 L33.7497097,77.2689355 C33.7722903,77.4721613 33.7926129,77.6753871 33.8400323,77.9011935" id="Fill-811" fill="#DDD9D9"></path>
                <path d="M34.7419032,81.3101935 C34.315129,80.2285806 34.0215806,79.119871 33.8409355,77.9908387 L34.7419032,81.3101935 Z" id="Fill-813" fill="#DDD9D9"></path>
                <path d="M37.7234516,119.313645 C37.5879677,118.952355 37.4976452,118.591065 37.4073226,118.232032 C37.5653871,118.726548 37.6557097,119.087839 37.7234516,119.313645" id="Fill-815" fill="#DDD9D9"></path>
                <path d="M100.633806,83.3654839 C101.173484,82.3945161 101.604774,81.4009677 101.943484,80.3622581 L101.173484,83.2074194 L101.150903,83.2074194 C100.970258,83.2525806 100.814452,83.3203226 100.633806,83.3654839" id="Fill-817" fill="#DDD9D9"></path>
                <path d="M102.349484,78.7809355 L102.372065,78.7809355 L102.281742,79.0993226 C102.326903,78.9841613 102.349484,78.8712581 102.349484,78.7809355" id="Fill-819" fill="#DDD9D9"></path>
                <path d="M117.320226,56.4495806 L116.891194,57.9399032 C116.846032,57.9624839 116.800871,57.9399032 116.77829,57.9399032 C116.981516,57.443129 117.162161,56.9463548 117.320226,56.4495806" id="Fill-821" fill="#DDD9D9"></path>
                <path d="M55.1329032,54.7095161 C47.5232258,56.7417742 41.2683871,60.5127419 37.52,65.2569355 C31.6490323,61.2804839 27.6070968,56.1569355 26.32,50.4643548 L26.32,50.4417742 C26.4554839,49.7440323 26.6812903,48.9514516 26.9748387,48.0933871 C28.2845161,44.2546774 31.0845161,39.1085484 36.9780645,35.945 C47.2522581,30.4353226 49.3296774,37.031129 49.3296774,37.031129 L51.6780645,44.1643548 L55.1329032,54.7095161 Z" id="Fill-823" fill="#B6D3FF"></path>
                <path d="M72.7916452,108.927452 C72.4980968,109.354226 72.1797097,109.808097 71.8432581,110.28229 C69.6755161,113.375839 61.8851935,112.630677 58.3603548,118.004871 C57.6151935,119.154226 57.0506774,120.554226 56.7819677,122.362935 C56.6916452,122.992935 56.6464839,123.627452 56.6464839,124.191968 C56.7142258,128.730677 59.7174516,131.508097 62.5829355,133.111323 C55.7432581,131.663903 49.9829355,127.601645 46.6658387,122.137129 L46.6432581,122.137129 C45.4668065,120.192935 44.5884194,118.095194 44.0668065,115.88229 L44.0013226,115.633903 L39.8013226,100.098419 L39.8013226,100.075839 L34.7658387,81.3564839 C36.2335806,85.0597097 39.0764839,88.3768065 42.9174516,91.0661613 C41.8787419,92.6693871 41.2916452,94.6113226 41.2916452,96.6639032 C41.2916452,97.004871 41.3142258,97.3435806 41.3345484,97.6822903 C41.5851935,100.301645 42.8045484,102.627452 44.6313226,104.298419 L44.6313226,104.321 C46.4851935,106.080032 48.9916452,107.143581 51.7464839,107.143581 C57.0980968,107.143581 61.5239032,103.124226 62.1561613,97.9306774 C64.0958387,98.1768065 66.1077742,98.2919677 68.1626129,98.2919677 C68.5690645,98.2919677 68.9958387,98.2919677 69.4045484,98.267129 L70.8700323,102.717774 L72.7916452,108.927452 Z" id="Fill-825" fill="#DE2C5C"></path>
                <path d="M102.686839,75.6650323 C102.686839,76.7263226 102.573935,77.7672903 102.350387,78.7811613 C102.350387,78.8714839 102.327806,78.9843871 102.280387,79.0995484 L101.943935,80.3618065 C101.605226,81.4005161 101.173935,82.3940645 100.634258,83.3650323 C98.5997419,87.0682581 95.102,90.3424516 90.585871,92.8489032 C89.0729677,93.7295484 87.4223226,94.4972903 85.685871,95.1769677 C83.9449032,95.8318065 82.118129,96.4166452 80.1965161,96.8705161 C79.8803871,95.8747097 79.5416774,94.8585806 79.2052258,93.7972903 C78.8416774,92.6908387 78.4600645,91.5392258 78.0761935,90.3650323 C77.602,88.8769677 77.0803871,87.3392258 76.5836129,85.7811613 C76.2223226,84.6747097 75.8384516,83.5456774 75.4771613,82.4166452 C78.3674839,82.1456774 81.1471613,81.6940645 83.832,81.0843871 L83.8545806,81.0843871 C90.8997419,79.5489032 97.2697419,76.9972903 102.551355,73.6779355 C102.641677,74.3327742 102.686839,74.9876129 102.686839,75.6650323" id="Fill-827" fill="#FE4E4F"></path>
                <path d="M116.890065,57.940129 L108.128774,87.340129 L99.1213548,117.598194 L98.9836129,118.072387 C96.885871,126.199161 90.6061935,132.953032 82.1610323,136.563677 C77.9384516,138.372387 73.1965161,139.386258 68.1632903,139.386258 C53.732,139.386258 41.5632903,131.008839 37.8126452,119.58529 C37.8126452,119.56271 37.7674839,119.472387 37.7223226,119.314323 C37.6545806,119.088516 37.5642581,118.727226 37.4084516,118.230452 C37.3407097,118.049806 37.2932903,117.824 37.2278065,117.598194 C34.6287742,108.902387 24.3997419,74.0830323 19.9084516,58.707871 C22.5255484,64.5110968 27.3803871,69.6572258 33.7932903,73.6788387 C33.7029677,74.3336774 33.6600645,74.9885161 33.6600645,75.6659355 C33.6600645,76.207871 33.6803871,76.7249677 33.7503871,77.2691613 L33.6600645,77.2691613 L33.8407097,77.9014194 L33.8407097,77.9917419 C34.0213548,79.1207742 34.3149032,80.2272258 34.7416774,81.3110968 L34.7665161,81.3562581 L39.7997419,100.075613 L39.7997419,100.098194 L44.002,115.633677 L44.0674839,115.882065 C44.5868387,118.094968 45.4674839,120.19271 46.6439355,122.136903 L46.6642581,122.136903 C49.9836129,127.601419 55.7439355,131.663677 62.5836129,133.111097 C64.3674839,133.494968 66.2416774,133.698194 68.1632903,133.698194 C77.532,133.698194 85.685871,128.911097 89.8407097,121.865935 C91.0126452,119.878839 91.8729677,117.731419 92.3471613,115.453032 L92.3697419,115.453032 L96.5449032,100.120774 L101.151355,83.2056129 L101.173935,83.2056129 L101.943935,80.3627097 L102.280387,79.0981935 L102.37071,78.7798065 L102.350387,78.7798065 C102.573935,77.7659355 102.686839,76.7249677 102.686839,75.6659355 C102.686839,74.9885161 102.641677,74.3336774 102.551355,73.6788387 C109.257806,69.4765806 114.248129,64.0594839 116.777161,57.940129 C116.799742,57.940129 116.844903,57.9627097 116.890065,57.940129" id="Fill-829" fill="#B4D3FF"></path>
                <path d="M69.4045484,98.2678065 C68.9958387,98.2926452 68.5690645,98.2926452 68.1626129,98.2926452 C66.1077742,98.2926452 64.0958387,98.1774839 62.1561613,97.9313548 C62.2013226,97.5249032 62.2216452,97.0936129 62.2216452,96.6645806 C62.2216452,94.0474839 61.2732581,91.6742581 59.6700323,89.8474839 L59.6497097,89.8474839 C58.611,88.6055484 57.2561613,87.6323226 55.7432581,86.9774839 C55.7184194,87.0023226 55.7184194,87.0023226 55.7184194,86.9774839 C54.4787419,86.4807097 53.1464839,86.2097419 51.7464839,86.2097419 C48.0184194,86.2097419 44.7690645,88.1539355 42.9174516,91.0668387 C39.0764839,88.3774839 36.2335806,85.058129 34.7658387,81.3571613 L34.741,81.3097419 L33.8400323,77.9926452 L33.8400323,77.9000645 C33.7926129,77.6765161 33.7722903,77.4710323 33.7497097,77.2678065 C33.6819677,76.725871 33.6593871,76.2065161 33.6593871,75.6645806 C33.6593871,74.9871613 33.7022903,74.3323226 33.7926129,73.6774839 C36.4142258,75.328129 39.3045484,76.7936129 42.4206774,78.0355484 C48.9239032,80.6323226 56.3529355,82.2829677 64.2990645,82.6668387 L65.0239032,84.9249032 L66.2206774,88.5152258 L69.4045484,98.2678065 Z" id="Fill-831" fill="#FE4E4F"></path>
                <path d="M62.1563871,97.9304516 C61.524129,103.124 57.0983226,107.143355 51.7467097,107.143355 C48.991871,107.143355 46.4854194,106.079806 44.6315484,104.320774 L44.6315484,104.298194 C42.8047742,102.627226 41.5854194,100.301419 41.3347742,97.6820645 C41.3144516,97.3433548 41.291871,97.0046452 41.291871,96.6636774 C41.291871,94.6110968 41.8789677,92.6691613 42.9154194,91.0659355 C43.7983226,91.7207742 44.7467097,92.307871 45.7605806,92.8498065 C47.2757419,93.7304516 48.924129,94.4959355 50.6628387,95.1530323 C54.138,96.507871 58.024129,97.4788387 62.1563871,97.9304516" id="Fill-833" fill="#FE4E4E"></path>
                <path d="M62.2225484,96.6645806 C62.2225484,97.0936129 62.1999677,97.5249032 62.1570645,97.9313548 C58.0248065,97.4774839 54.1386774,96.5087742 50.6635161,95.1516774 C48.9225484,94.4968387 47.2764194,93.7290968 45.7612581,92.8507097 C44.7473871,92.3065161 43.799,91.7216774 42.9160968,91.0668387 C44.7699677,88.1516774 48.0193226,86.2097419 51.745129,86.2097419 C53.145129,86.2097419 54.4773871,86.4807097 55.7193226,86.9774839 C55.7193226,87.0023226 55.7193226,87.0023226 55.7441613,86.9774839 C57.2570645,87.6323226 58.6096452,88.6055484 59.6483548,89.8452258 L59.6709355,89.8452258 C61.2741613,91.6742581 62.2225484,94.0474839 62.2225484,96.6645806" id="Fill-835" fill="#FF948A"></path>
                <path d="M100.633806,83.3654839 C98.6015484,87.0687097 95.1015484,90.3429032 90.5854194,92.8493548 C89.0725161,93.73 87.421871,94.4977419 85.6854194,95.1751613 C83.9444516,95.8322581 82.1176774,96.4170968 80.1960645,96.8687097 C83.0186452,105.517097 85.0734839,111.884839 85.4370323,113.149355 C85.8886452,114.73 85.708,115.971935 85.3015484,116.920323 C84.5089677,118.749355 82.8154194,119.494516 82.8154194,119.494516 C79.8596129,120.397742 77.9628387,119.697742 76.7660645,118.704194 L76.7434839,118.704194 C75.4338065,117.597742 75.0025161,116.13 75.0025161,116.13 L72.791871,108.926774 C72.4983226,109.355806 72.1799355,109.807419 71.8434839,110.281613 C69.6757419,113.375161 61.8854194,112.63 58.3605806,118.004194 C57.6154194,119.155806 57.0509032,120.555806 56.7821935,122.364516 C56.691871,122.994516 56.6467097,123.626774 56.6467097,124.19129 C56.7144516,128.73 59.7176774,131.507419 62.5831613,133.110645 C64.3670323,133.494516 66.2434839,133.697742 68.1628387,133.697742 C77.5338065,133.697742 85.6854194,128.910645 89.8402581,121.865484 C91.0121935,119.878387 91.8725161,117.733226 92.3467097,115.452581 L92.3692903,115.452581 L96.5444516,100.120323 L101.150903,83.2074194 L101.173484,83.2074194 L101.943484,80.3622581 C101.604774,81.4009677 101.173484,82.3945161 100.633806,83.3654839" id="Fill-837" fill="#AF2348"></path>
                <path d="M137.439806,8.28483871 C136.333355,9.57193548 127.140774,10.813871 122.559161,11.9203226 C117.97529,13.0267742 117.27529,15.6709677 117.27529,19.1687097 C117.27529,21.6751613 119.849484,27.4783871 121.294645,30.5041935 C120.414,30.3009677 119.488194,30.2106452 118.539806,30.2106452 C116.101097,30.2106452 113.820452,30.8203226 111.855935,31.9041935 C111.697871,31.7235484 111.539806,31.5203226 111.381742,31.3396774 C110.817226,26.913871 108.084968,23.1654839 104.314,21.1783871 C104.720452,20.1170968 105.465613,18.2429032 106.436581,16.2783871 C107.362387,14.3364516 108.511742,12.283871 109.755935,10.7687097 C112.962387,6.81709677 133.397871,3.06870968 135.588194,3.61064516 C137.801097,4.15258065 138.521419,6.99774194 137.439806,8.28483871" id="Fill-839" fill="#954E4C"></path>
                <path d="M110.230581,49.4260968 L110.230581,49.4509355 L110.230581,49.4735161 C110.002516,50.8035161 109.641226,52.1357742 109.101548,53.4025484 C109.011226,53.6260968 108.920903,53.8519032 108.808,54.0799677 C106.908968,58.322871 103.431548,62.139 98.8250968,65.2573871 C93.0896129,57.9841613 81.5057419,53.0412581 68.1628387,53.0412581 C67.3928387,53.0412581 66.6250968,53.0615806 65.8596129,53.0841613 C64.954129,50.3744839 64.1209032,47.8702903 63.3757419,45.6122258 C61.1831613,38.9712581 59.7605806,34.6357742 59.7605806,34.6357742 C59.7605806,34.6357742 57.3015484,27.909 64.8886452,26.6648065 C69.4047742,25.9444839 78.6176774,27.6131935 85.3015484,29.0583548 C84.8928387,30.322871 84.6896129,31.655129 84.6896129,33.055129 C84.6896129,38.5648065 88.0089677,43.2841613 92.7757419,45.3615806 C94.3992903,46.0638387 96.208,46.4477097 98.1047742,46.4477097 C100.475742,46.4477097 102.711226,45.8357742 104.630581,44.7541613 C105.759613,44.1196452 106.775742,43.3315806 107.654129,42.4260968 C108.153161,43.4648065 108.740258,44.7541613 109.214452,46.1293226 C109.641226,47.2154516 110.002516,48.3444839 110.230581,49.4260968" id="Fill-841" fill="#B6D3FF"></path>
                <path d="M111.425774,34.3869355 C111.222548,36.5320968 110.502226,38.5191935 109.395774,40.2375806 C108.896742,41.0256452 108.309645,41.7730645 107.654806,42.4279032 C106.774161,43.331129 105.758032,44.1214516 104.629,44.7537097 C102.711903,45.8353226 100.474161,46.4472581 98.1054516,46.4472581 C96.2086774,46.4472581 94.3999677,46.0633871 92.7741613,45.361129 C93.045129,43.8279032 93.8602903,41.7730645 96.2312581,41.161129 C99.5483548,40.3279032 102.280613,39.7159677 103.861258,38.2504839 C104.154806,38.0020968 104.405452,37.7085484 104.606419,37.3675806 C105.103194,36.5569355 105.780613,35.7214516 106.638677,35.0891935 C107.270935,34.615 107.993516,34.2514516 108.851581,34.1408065 C109.619323,34.0030645 110.477387,34.0708065 111.425774,34.3869355" id="Fill-843" fill="#DA2C55"></path>
                <path d="M132.449484,44.1205484 C132.449484,51.8205484 126.217226,58.0528065 118.539806,58.0528065 C117.97529,58.0528065 117.433355,58.0302258 116.889161,57.9399032 L117.320452,56.4495806 L117.772065,54.9592581 C118.336581,52.9721613 118.607548,50.9399032 118.607548,48.8624839 C118.607548,45.6763548 117.95271,42.5850645 116.710774,39.6721613 C115.897871,37.6850645 114.811742,35.7657097 113.481742,33.9366774 C112.962387,33.2366774 112.420452,32.5592581 111.855935,31.9044194 C113.820452,30.8205484 116.101097,30.210871 118.539806,30.210871 C119.488194,30.210871 120.414,30.3011935 121.294645,30.5044194 C127.662387,31.7689355 132.449484,37.3915161 132.449484,44.1205484" id="Fill-845" fill="#DE2C5C"></path>
                <path d="M116.711452,39.6728387 C115.898548,37.6857419 114.812419,35.7663871 113.480161,33.9373548 C112.963065,33.2350968 112.421129,32.5599355 111.856613,31.9050968 C111.69629,31.7221935 111.540484,31.5212258 111.382419,31.3405806 C111.425323,31.6115484 111.450161,31.8825161 111.450161,32.1534839 C111.493065,32.4470323 111.493065,32.7405806 111.493065,33.034129 L111.493065,33.0544516 C111.493065,33.5083226 111.472742,33.9373548 111.425323,34.3867097 C111.222097,36.531871 110.501774,38.5189677 109.395323,40.2373548 C110.025323,41.9963871 110.411452,43.8050968 110.476935,45.6770323 C110.501774,45.9276774 110.501774,46.1986452 110.501774,46.4470323 C110.501774,47.4609032 110.411452,48.434129 110.230806,49.4254194 L110.230806,49.4502581 L110.230806,49.4728387 C110.002742,50.8050968 109.641452,52.1373548 109.101774,53.401871 C109.011452,53.6276774 108.921129,53.8512258 108.808226,54.0792903 C106.909194,58.3244516 103.431774,62.1383226 98.8253226,65.2567097 C92.0759677,69.8383226 82.8856452,72.9115484 72.588871,73.6092903 C71.121129,73.6996129 69.651129,73.7470323 68.1630645,73.7470323 C65.8146774,73.7470323 63.5091935,73.634129 61.251129,73.3857419 C51.9704839,72.4147742 43.7082258,69.4770323 37.521129,65.2567097 C31.6479032,61.2802581 27.6059677,56.1567097 26.321129,50.464129 L26.321129,50.4438065 C26.1404839,49.7867097 26.0275806,49.131871 25.9598387,48.4567097 C25.8898387,47.801871 25.8469355,47.1244516 25.8469355,46.4470323 C25.8469355,38.6567097 30.9275806,31.631871 39.0543548,26.664129 C37.3833871,25.8963871 35.5566129,25.0609032 33.6124194,24.1825161 C25.0543548,29.5770323 19.318871,36.9857419 18.0340323,45.2705806 C17.8308065,46.4470323 17.7404839,47.6415484 17.7404839,48.8609032 C17.7404839,49.6760645 17.7833871,50.5115484 17.8962903,51.2996129 C17.8962903,51.618 17.9437097,51.934129 18.0091935,52.248 L18.0091935,52.318 C18.3275806,54.5309032 18.9824194,56.6534839 19.9082258,58.7083226 C22.5253226,64.5115484 27.3801613,69.6576774 33.7930645,73.6792903 C36.4124194,75.3276774 39.305,76.7931613 42.421129,78.0350968 C48.9220968,80.634129 56.3533871,82.2825161 64.2995161,82.6663871 C65.5662903,82.7567097 66.8533871,82.7792903 68.1630645,82.7792903 C70.6469355,82.7792903 73.1059677,82.6663871 75.4769355,82.418 C78.3695161,82.1470323 81.1469355,81.6931613 83.8317742,81.0857419 L83.8543548,81.0857419 C90.8995161,79.548 97.2695161,76.9963871 102.551129,73.6792903 C109.257581,69.4770323 114.247903,64.0599355 116.776935,57.9405806 C116.980161,57.4438065 117.160806,56.9447742 117.321129,56.4502581 L117.772742,54.9599355 C118.337258,52.9728387 118.608226,50.9383226 118.608226,48.8609032 C118.608226,45.6770323 117.953387,42.5857419 116.711452,39.6728387" id="Fill-847" fill="#EAECFE"></path>
                <path d="M80.1965161,96.8696129 C79.2729677,97.0954194 78.3471613,97.2963871 77.3987742,97.4567097 C74.8471613,97.9309032 72.1578065,98.2244516 69.4052258,98.2673548 L66.2213548,88.5147742 L65.0223226,84.9244516 L64.2997419,82.6663871 C65.5665161,82.7567097 66.8536129,82.7792903 68.1632903,82.7792903 C70.6471613,82.7792903 73.1061935,82.6663871 75.4771613,82.418 C75.8384516,83.5470323 76.2223226,84.6760645 76.5836129,85.7825161 C77.0803871,87.3383226 77.602,88.8760645 78.0761935,90.364129 C78.4578065,91.5405806 78.8416774,92.6899355 79.2052258,93.7986452 C79.5416774,94.8576774 79.8803871,95.8760645 80.1965161,96.8696129" id="Fill-849" fill="#FF948A"></path>
                <path d="M85.3015484,116.921 C84.5089677,118.750032 82.8154194,119.495194 82.8154194,119.495194 C79.8596129,120.398419 77.9628387,119.696161 76.7660645,118.704871 L76.7434839,118.704871 C75.4338065,117.598419 75.0025161,116.128419 75.0025161,116.128419 L72.791871,108.927452 L70.8702581,102.717774 L69.4047742,98.267129 C72.1596129,98.2242258 74.8467097,97.9306774 77.3983226,97.4564839 C78.3467097,97.2984194 79.2725161,97.0951935 80.1960645,96.8693871 C83.0186452,105.515516 85.0734839,111.885516 85.4370323,113.150032 C85.8886452,114.728419 85.708,115.972613 85.3015484,116.921" id="Fill-851" fill="#FE4E4E"></path>
                <path d="M72.588871,73.6099677 C71.121129,73.7002903 69.651129,73.7477097 68.1630645,73.7477097 C65.8146774,73.7477097 63.5091935,73.6348065 61.251129,73.3841613 L55.1340323,54.7099677 C58.4759677,53.8067419 62.088871,53.2422258 65.8598387,53.0841613 C67.8672581,59.2712581 70.2156452,66.4293226 72.588871,73.6099677" id="Fill-853" fill="#FF948A"></path>
                <path d="M94.8739355,20.0712581 C92.8213548,20.5702903 90.9697419,21.539 89.4094194,22.8486774 C83.1771613,20.5002903 75.9084516,19.1702903 68.1632903,19.1702903 C62.2223226,19.1702903 56.5545806,19.9583548 51.4310323,21.3809355 L45.4449032,18.5809355 C52.2665161,16.2573871 59.9890968,14.9454516 68.1632903,14.9454516 C77.9632903,14.9454516 87.1287742,16.8219032 94.8739355,20.0712581" id="Fill-855" fill="#E6ECF7"></path>
                <path d="M110.501774,46.4470323 C110.501774,47.4609032 110.411452,48.434129 110.230806,49.4254194 C110.002742,48.3438065 109.641452,47.2147742 109.214677,46.1286452 C108.740484,44.7534839 108.153387,43.4663871 107.654355,42.4276774 C108.309194,41.7728387 108.89629,41.0276774 109.395323,40.2373548 C110.025323,41.9963871 110.411452,43.8050968 110.476935,45.6770323 C110.501774,45.9276774 110.501774,46.1986452 110.501774,46.4470323" id="Fill-857" fill="#78B1FF"></path>
                <path d="M104.72,29.8708065 C104.35871,30.3901613 103.929677,30.8869355 103.432903,31.361129 L103.410323,31.361129 C102.145806,32.5375806 100.497419,33.5062903 98.5577419,34.0933871 C98.3748387,34.161129 98.1716129,34.2085484 97.9932258,34.2514516 C93.0909677,35.5159677 88.3964516,33.8472581 87.3577419,30.3901613 C87.2674194,30.098871 87.1974194,29.8053226 87.1748387,29.4869355 C86.9264516,27.2966129 88.1683871,24.9708065 90.3812903,23.2343548 C91.5329032,22.328871 92.9780645,21.561129 94.5812903,21.0666129 C95.1458065,20.9062903 95.7103226,20.7730645 96.2522581,20.6827419 C99.3006452,20.161129 102.145806,20.7504839 103.974839,22.2159677 C104.832903,22.8708065 105.465161,23.7514516 105.78129,24.7675806 C105.939355,25.3095161 106.007097,25.8537097 105.961935,26.4182258 C105.939355,27.5901613 105.487742,28.7891935 104.72,29.8708065 M111.449032,32.1537097 C111.449032,31.8827419 111.426452,31.6117742 111.38129,31.3385484 C110.816774,26.9127419 108.084516,23.1643548 104.313548,21.1772581 C102.461935,20.2085484 100.341613,19.6643548 98.103871,19.6643548 C96.9974194,19.6643548 95.9135484,19.7998387 94.8748387,20.0708065 C92.82,20.5698387 90.9683871,21.5408065 89.4103226,22.8504839 C87.5135484,24.4740323 86.0683871,26.6214516 85.3006452,29.0601613 C84.8941935,30.3224194 84.6909677,31.6546774 84.6909677,33.0546774 C84.6909677,38.5666129 88.0103226,43.2837097 92.7748387,45.361129 C93.0458065,43.8279032 93.8587097,41.7730645 96.2296774,41.161129 C99.5490323,40.3279032 102.28129,39.7159677 103.861935,38.2504839 C104.155484,38.0020968 104.403871,37.7085484 104.607097,37.3675806 C105.103871,36.5569355 105.78129,35.7214516 106.639355,35.0891935 C107.271613,34.615 107.994194,34.2514516 108.852258,34.1408065 C109.62,34.0030645 110.478065,34.0708065 111.426452,34.3869355 C111.471613,33.9375806 111.494194,33.5062903 111.494194,33.0546774 L111.494194,33.0320968 C111.494194,32.7408065 111.494194,32.4472581 111.449032,32.1537097" id="Fill-859" fill="#FF4E4E"></path>
                <path d="M105.961484,26.4175484 C105.938903,27.5917419 105.48729,28.7885161 104.719548,29.870129 C104.358258,30.3917419 103.931484,30.8862581 103.432452,31.3604516 L103.409871,31.3604516 C102.147613,32.5369032 100.496968,33.507871 98.5572903,34.0927097 C98.3766452,34.1627097 98.1711613,34.207871 97.9927742,34.2530323 C93.0905161,35.5152903 88.396,33.8465806 87.3572903,30.3917419 C87.2669677,30.0981935 87.1969677,29.8046452 87.1766452,29.4862581 C86.926,27.2981935 88.1679355,24.970129 90.3830968,23.2336774 C91.5324516,22.3281935 92.9776129,21.5627097 94.5808387,21.0659355 C95.1453548,20.907871 95.709871,20.7723871 96.2518065,20.6820645 C99.3001935,20.1604516 102.147613,20.7498065 103.974387,22.2175484 C104.832452,22.8723871 105.46471,23.7507742 105.780839,24.7691613 C105.938903,25.3110968 106.008903,25.8530323 105.961484,26.4175484" id="Fill-861" fill="#FF928B"></path>
                <path d="M89.4096452,22.8498065 C87.512871,24.4756129 86.0699677,26.6207742 85.3022258,29.0594839 C78.6183548,27.6120645 69.4054516,25.9433548 64.8893226,26.6636774 C57.2999677,27.907871 59.7612581,34.6369032 59.7612581,34.6369032 C59.7612581,34.6369032 61.1838387,38.9723871 63.3764194,45.6110968 C64.1215806,47.8691613 64.9548065,50.3733548 65.8580323,53.0852903 C62.0870645,53.2433548 58.4764194,53.807871 55.1322258,54.7088387 L51.6773871,44.1636774 L49.329,37.0304516 C49.329,37.0304516 47.2515806,30.4346452 36.9773871,35.9465806 C31.0838387,39.107871 28.2860968,44.254 26.9764194,48.0949677 C26.682871,48.9530323 26.4548065,49.7433548 26.3215806,50.4433548 C26.1386774,49.7885161 26.0280323,49.1336774 25.9580323,48.4562581 C25.8902903,47.8014194 25.8473871,47.124 25.8473871,46.4465806 C25.8473871,38.6562581 30.9280323,31.6336774 39.0548065,26.6636774 C42.645129,24.4530323 46.8248065,22.6691613 51.4312581,21.3820645 C56.5548065,19.9594839 62.2225484,19.1691613 68.1635161,19.1691613 C75.9086774,19.1691613 83.1773871,20.5014194 89.4096452,22.8498065" id="Fill-863" fill="#78B1FF"></path>
                <path d="M51.4305806,21.3811613 C46.824129,22.6682581 42.6444516,24.452129 39.0563871,26.6650323 C37.3831613,25.8972903 35.5563871,25.0618065 33.6121935,24.1811613 C37.1144516,21.9456774 41.0886452,20.0489032 45.4467097,18.5811613 L51.4305806,21.3811613 Z" id="Fill-865" fill="#B3D6FC"></path>
                <path d="M45.4458065,18.5804839 C41.0877419,20.0482258 37.1158065,21.945 33.6135484,24.1804839 C28.2845161,21.7214516 22.2329032,18.9191935 17.0619355,16.5279032 C10.4232258,13.4772581 5.25225806,11.0633871 4.9383871,10.8827419 C4.01032258,10.3408065 0.578064516,8.57725806 2.40709677,4.28919355 C4.25870968,-0.00112903226 9.70064516,1.82564516 9.70064516,1.82564516 L27.5619355,10.2030645 L45.4458065,18.5804839 Z" id="Fill-867" fill="#E4EAF5"></path>
            </g>
        </g>
    </g>
</svg>