<?xml version="1.0" encoding="utf-8"?>
<!-- Generator: Adobe Illustrator 21.0.0, SVG Export Plug-In . SVG Version: 6.00 Build 0)  -->
<svg version="1.1" id="图层_1" xmlns="http://www.w3.org/2000/svg" xmlns:xlink="http://www.w3.org/1999/xlink" x="0px" y="0px"
	 viewBox="0 0 1000 1000" style="enable-background:new 0 0 1000 1000;" xml:space="preserve">
<style type="text/css">
	.st0{fill:#FFC2C7;}
	.st1{fill:#FFE9EC;}
	.st2{fill:#F7797D;}
	.st3{fill:#EB6043;}
	.st4{fill:#565656;}
	.st5{fill:#FFFFFF;}
</style>
<g>
	<path class="st0" d="M839.9,829.4c-15,31.7-42.2,67.8-75.8,77.6c-97.9,28.7-103.4-0.4-243.4-0.4c-79.2,0-130.4,6.7-161.5,13.2
		c-61.4,12.9-122.7-23.6-139.3-84.1c-20.8-75.8,4-171.7,13.7-204.2c2.2-7.3,1.2-15.3-2.8-21.8c-35.8-59.3-52.3-82.4-59.2-112.3
		C161,450.9,206.4,411.2,251,428c0.2,0.1,0.3,0.1,0.5,0.2c0.4,0.2,0.8,0.3,1.2,0.4c13.6,4.5,28.2-22.9,32.8-36.5l29.8-89.6
		c6.8-24.8,13.6-50.2,25.1-73.3c15.3-30.8,44.5-43.7,71.6-62.7c28.3-19.8,55.6-41.1,81.7-63.8c10.7-9.3,20.2-15.1,28.8-18.2
		c49.3-17.7,69.8,53.4,122.9,69c65.8,19.4,111.3,92.3,142.6,179.1c8.5,23.7,34,36.5,58.2,29.3c0.2-0.1,0.4-0.1,0.6-0.2
		c26.2-7.6,50.3,5.1,63.8,27.8c12.9,21.6,7.5,48.5,1.1,71.3c-13.4,47.3-51.7,99.9-64,115.9c-2.4,3.2-3.5,7.2-3,11.2
		c5.3,42.3,11,84.6,12.4,127.3C858.3,753.9,856.7,793.9,839.9,829.4z"/>
</g>
<g>
	<g>
		<path class="st1" d="M883.6,461c6.4-22.8,11.8-49.7-1.1-71.3c-13.5-22.7-37.7-35.5-63.8-27.8c-1.8,0.5-3.5,1.1-5.3,1.7
			c11.8,4.9,22,14.1,29.1,26.2c12.9,21.6,7.5,48.5,1.1,71.3c-13.4,47.3-51.7,99.9-64,115.9c-2.5,3.2-3.5,7.2-3,11.2
			c5.3,42.3,11,84.6,12.4,127.3c1.3,38.5-0.2,78.5-17,113.9c-15,31.7-42.2,67.8-75.8,77.6c-22.4,6.6-40,10.1-55.4,11.7
			c26.8,2.4,52.1,1.1,95.4-11.7c33.6-9.9,60.8-45.9,75.8-77.6c16.8-35.4,18.3-75.4,17-113.9c-1.5-42.6-7.1-85-12.4-127.3
			c-0.5-4,0.6-8,3-11.2C831.8,560.9,870.2,508.3,883.6,461z"/>
	</g>
</g>
<g>
	<path class="st2" d="M243.8,421.6c0,46.2-37.5,83.7-83.7,83.7c-2.9,0-5.8-0.2-8.6-0.4c-3.5-10-6-19-7.9-27.1
		c-10.7-46.4,34.7-86.1,79.3-69.3c0.2,0.1,0.3,0.1,0.5,0.2c0.4,0.1,0.8,0.3,1.2,0.4c6.2,2,12.5,1.5,18.1-0.9
		C243.5,412.5,243.8,417,243.8,421.6z"/>
</g>
<g>
	<path class="st2" d="M883.6,461c-2.5,9-6,18.1-10,27.2c-10.8,5.1-22.9,8-35.7,8c-46.2,0-83.7-37.5-83.7-83.7
		c0-18.3,5.9-35.3,15.9-49.1c0.7,2.3,1.4,4.5,2.1,6.8c1.8,6.1,8.9,8.9,14.4,5.7c10.1-5.9,21-10.8,32.1-14
		c26.2-7.6,50.3,5.1,63.8,27.8C895.4,411.3,890,438.2,883.6,461z"/>
</g>
<g>
	<path class="st3" d="M537.1,434.4c0,9.1-4.9,16.5-11,16.5c-4.4,0-8.2-3.8-9.9-9.4c-0.2-0.6-0.3-1.2-0.5-1.8
		c6.4-3.1,16.3-6.1,21.3-7.5c0,0.1,0,0.3,0,0.5C537,433.2,537.1,433.8,537.1,434.4z"/>
</g>
<g>
	<path class="st4" d="M537,432.1c-5,1.4-14.9,4.5-21.3,7.5c-0.4-1.7-0.6-3.4-0.6-5.3c0-9.1,4.9-16.5,11-16.5
		C531.6,417.9,536.2,424.1,537,432.1z"/>
</g>
<g>
	<circle class="st5" cx="391" cy="488.6" r="16.7"/>
</g>
<g>
	<circle class="st5" cx="662.2" cy="488.6" r="16.7"/>
</g>
<g>
	<path class="st4" d="M306.4,929.9c-55.8,0-106.6-36.9-121.8-92.2c-21.1-76.7,2.6-171.3,13.8-208.3c1.6-5.4,0.9-11-2-15.9
		c-23.9-39.7-41.4-75.4-52-106.3c-3.2-9.2-5.9-18.3-8.1-27.8c-5.7-24.6,2.3-49.1,21.3-65.7c19-16.6,44.4-21.2,68-12.3l0.4,0.1
		c0.3,0.1,0.5,0.2,0.7,0.3l0.3,0.1c4.2,1.4,8.7,1.1,12.8-0.7c4.9-2.1,8.8-6.3,10.5-11.5c1.3-3.9,5.6-6,9.5-4.7
		c3.9,1.3,6,5.6,4.7,9.5c-3.1,9.2-10,16.6-18.8,20.5c-7.5,3.2-15.5,3.6-23.2,1.2c-0.5-0.1-0.9-0.3-1.1-0.4l-0.6-0.1l-0.4-0.2
		c-0.1,0-0.2-0.1-0.3-0.1c-18.3-6.8-37.9-3.2-52.6,9.7c-14.7,12.9-20.9,32-16.5,51c2.1,9,4.6,17.6,7.7,26.3
		c10.3,29.9,27.3,64.7,50.6,103.4c5.1,8.3,6.4,18.5,3.6,27.9c-8.4,28-34.2,125.1-13.7,200.1c15.4,56.3,72.8,90.9,130.5,78.7
		c29.2-6.1,81.1-13.4,163-13.4c56.9,0,91.6,4.7,119.5,8.5c40.4,5.5,64.8,8.8,121.8-7.8c31.1-9.1,57.1-44,71.1-73.6
		c1.8-3.7,6.2-5.3,10-3.6c3.7,1.8,5.3,6.2,3.6,10c-7.5,15.8-35.4,68.4-80.5,81.6c-60,17.6-87.1,13.9-128,8.3
		c-27.5-3.7-61.6-8.4-117.5-8.4c-80.6,0-131.5,7.1-160,13C323.9,929,315.1,929.9,306.4,929.9z"/>
</g>
<g>
	<path class="st4" d="M828.9,722.9c-4,0-7.3-3.2-7.5-7.2c-1.4-40.4-6.7-81.4-11.7-121.1L809,589c-0.7-5.9,0.8-11.8,4.4-16.6
		c8.2-10.7,36.1-48.3,53.2-87.2c4-9.1,7.3-18,9.7-26.3c6.4-22.9,10.8-46.7-0.3-65.4c-12.7-21.4-33.9-30.8-55.2-24.5
		c-10,2.9-20.6,7.5-30.4,13.3c-4.6,2.7-10,3.1-15,1.2c-5-1.9-8.8-6-10.4-11.1c-0.4-1.2-0.7-2.3-1.1-3.5c-0.3-1.1-0.7-2.2-1-3.4
		c-17-54.2-37.1-98.7-59.7-132.2c-26-38.6-55.7-63-88.2-72.6c-24.6-7.2-42.5-25.3-58.3-41.2c-22.5-22.6-37.4-36.1-60-28
		c-8,2.9-16.9,8.5-26.4,16.8c-26.1,22.6-53.8,44.2-82.3,64.3c-6,4.2-12.1,8.1-18,11.9c-20.6,13.2-40.1,25.7-51.1,48
		c-1.8,3.7-6.3,5.2-10,3.4c-3.7-1.8-5.2-6.3-3.4-10c12.8-26,35-40.2,56.4-53.9c5.8-3.7,11.8-7.5,17.5-11.6
		c28.1-19.8,55.4-41.1,81.1-63.3c11-9.6,21.2-16,31.2-19.6c32.7-11.7,54.6,10.3,75.7,31.5c15.2,15.3,31,31.2,51.9,37.3
		c66.2,19.6,119.4,91.8,157.9,214.8c0.4,1.2,0.7,2.3,1,3.4c0.4,1.2,0.7,2.3,1.1,3.5c0.3,1,1,1.4,1.5,1.6c0.5,0.2,1.2,0.3,2-0.2
		c10.9-6.4,22.6-11.5,33.8-14.7c27.8-8.2,56.2,4,72.3,31.2c14.1,23.6,8.9,52.3,1.9,77.2c-2.6,9-6.1,18.5-10.4,28.2
		c-17.8,40.5-46.6,79.3-55,90.3c-1.2,1.6-1.8,3.7-1.5,5.7l0.7,5.5c5.1,40,10.4,81.4,11.8,122.4c0.1,4.1-3.1,7.6-7.2,7.8
		C829.1,722.9,829,722.9,828.9,722.9z"/>
</g>
<g>
	
		<ellipse transform="matrix(0.8634 -0.5046 0.5046 0.8634 -20.4381 359.5291)" class="st5" cx="653.6" cy="217.5" rx="7.8" ry="7.8"/>
</g>
<g>
	<path class="st5" d="M637.1,207.7c-2,0-4.1-0.8-5.6-2.5c-28.1-31.1-72.7-31.8-73.2-31.8c-4.1,0-7.5-3.4-7.4-7.6
		c0-4.1,3.4-7.4,7.5-7.4c0,0,0,0,0.1,0c2.1,0,51.8,0.8,84.2,36.8c2.8,3.1,2.5,7.8-0.5,10.6C640.7,207.1,638.9,207.7,637.1,207.7z"/>
</g>
<g>
	<circle class="st2" cx="407.7" cy="865.1" r="35.6"/>
</g>
<g>
	<circle class="st2" cx="358.1" cy="886.8" r="21.7"/>
</g>
<g>
	<circle class="st2" cx="518.7" cy="729.9" r="21.7"/>
</g>
<g>
	<circle class="st2" cx="657.1" cy="891.8" r="21.7"/>
</g>
<g>
	<circle class="st2" cx="695.1" cy="883.8" r="21.7"/>
</g>
<g>
	<circle class="st2" cx="667.2" cy="851.7" r="21.7"/>
</g>
<g>
	<circle class="st2" cx="640.5" cy="823.8" r="21.7"/>
</g>
<g>
	<circle class="st2" cx="624.5" cy="785.6" r="21.7"/>
</g>
<g>
	<circle class="st2" cx="602.7" cy="747.9" r="21.7"/>
</g>
<g>
	<circle class="st2" cx="571.3" cy="715.4" r="21.7"/>
</g>
<g>
	<circle class="st2" cx="399.9" cy="809.6" r="21.7"/>
</g>
<g>
	<circle class="st2" cx="365.9" cy="831.3" r="21.7"/>
</g>
<g>
	<circle class="st2" cx="279.7" cy="881.2" r="21.7"/>
</g>
<g>
	<circle class="st2" cx="299" cy="845.5" r="21.7"/>
</g>
<g>
	<circle class="st2" cx="251" cy="845.5" r="21.7"/>
</g>
<g>
	<circle class="st2" cx="286.3" cy="810.5" r="21.7"/>
</g>
<g>
	<circle class="st2" cx="329.7" cy="816.8" r="21.7"/>
</g>
<g>
	<circle class="st2" cx="239" cy="802.1" r="21.7"/>
</g>
<g>
	<circle class="st2" cx="268.7" cy="773.9" r="21.7"/>
</g>
<g>
	<circle class="st2" cx="314.7" cy="776.6" r="21.7"/>
</g>
<g>
	<circle class="st2" cx="358.5" cy="795" r="21.7"/>
</g>
<g>
	<circle class="st2" cx="373.2" cy="761.2" r="21.7"/>
</g>
<g>
	<circle class="st2" cx="402" cy="729.9" r="21.7"/>
</g>
<g>
	<circle class="st2" cx="429.4" cy="699.4" r="21.7"/>
</g>
<g>
	<circle class="st2" cx="468.6" cy="672" r="21.7"/>
</g>
<g>
	<circle class="st2" cx="578.2" cy="672" r="21.7"/>
</g>
<g>
	<circle class="st2" cx="692.2" cy="763.9" r="21.7"/>
</g>
<g>
	<circle class="st2" cx="766.8" cy="763.9" r="21.7"/>
</g>
<g>
	<circle class="st2" cx="732.3" cy="747.9" r="21.7"/>
</g>
<g>
	<circle class="st2" cx="673.4" cy="725.9" r="21.7"/>
</g>
<g>
	<circle class="st2" cx="334" cy="859.4" r="21.7"/>
</g>
<g>
	<circle class="st2" cx="314.7" cy="895.1" r="21.7"/>
</g>
<g>
	<circle class="st2" cx="412.7" cy="773.3" r="21.7"/>
</g>
<g>
	<circle class="st2" cx="440.8" cy="742.9" r="21.7"/>
</g>
<g>
	<circle class="st2" cx="468.6" cy="712.4" r="21.7"/>
</g>
<g>
	<circle class="st2" cx="502.3" cy="690.7" r="21.7"/>
</g>
<g>
	<circle class="st2" cx="540.4" cy="690.7" r="21.7"/>
</g>
<g>
	<circle class="st2" cx="606.9" cy="705.6" r="21.7"/>
</g>
<g>
	<circle class="st2" cx="640.5" cy="747.9" r="21.7"/>
</g>
<g>
	<circle class="st2" cx="665.9" cy="788.8" r="21.7"/>
</g>
<g>
	<circle class="st2" cx="688.9" cy="816.8" r="21.7"/>
</g>
<g>
	<circle class="st2" cx="725.6" cy="865.1" r="21.7"/>
</g>
<g>
	<circle class="st2" cx="722.1" cy="791.3" r="21.7"/>
</g>
<g>
	<circle class="st2" cx="743.8" cy="831.3" r="21.7"/>
</g>
<g>
	<circle class="st2" cx="765.5" cy="801.6" r="21.7"/>
</g>
<g>
	<circle class="st2" cx="472.1" cy="858.9" r="35.6"/>
</g>
<g>
	<circle class="st2" cx="454.7" cy="809.6" r="35.6"/>
</g>
<g>
	<circle class="st2" cx="535.6" cy="865.1" r="35.6"/>
</g>
<g>
	<circle class="st2" cx="606.9" cy="873.4" r="35.6"/>
</g>
<g>
	<circle class="st2" cx="579.8" cy="816" r="35.6"/>
</g>
<g>
	<circle class="st2" cx="516.2" cy="802.1" r="35.6"/>
</g>
<g>
	<circle class="st2" cx="484.2" cy="755.1" r="27.8"/>
</g>
<g>
	<circle class="st2" cx="557.5" cy="757.8" r="27.8"/>
</g>
<g>
	<path class="st4" d="M269.3,372.3c-1.8,0-3.6-0.7-5.1-2c-3-2.8-3.2-7.4-0.5-10.5c4.7-6.5,20.1-60.4,32.3-108.9c1-4,5.1-6.5,9.1-5.4
		c4,1,6.5,5.1,5.4,9.1c-0.1,0.3-6.6,26.2-14,52.9c-15.5,55.6-19.7,60.1-21.7,62.3C273.3,371.5,271.3,372.3,269.3,372.3z
		 M263.8,359.7C263.8,359.7,263.7,359.8,263.8,359.7C263.7,359.8,263.8,359.7,263.8,359.7z"/>
</g>
<g>
	<path class="st4" d="M819.7,817c-0.9,0-1.9-0.2-2.8-0.5c-3.8-1.5-5.7-5.9-4.2-9.8c8.9-22,9.1-72.1,9.1-72.6c0-4.1,3.4-7.5,7.5-7.5
		c0,0,0,0,0,0c4.1,0,7.5,3.4,7.5,7.5c0,2.2-0.2,53.5-10.1,78.2C825.5,815.2,822.7,817,819.7,817z"/>
</g>
<g>
	<path class="st5" d="M268.6,845.3c-1.8,0-3.7-0.7-5.1-2.1c-4.5-4.3-10.5-15-17.5-60.9c-3.8-24.5-6-47.9-6.1-48.1
		c-0.4-4.1,2.6-7.8,6.7-8.2c4.1-0.4,7.8,2.6,8.2,6.7c0,0.2,2.2,23.2,5.9,47.2c6.9,45.3,12.5,51.8,13.1,52.4
		c2.9,2.9,3.1,7.6,0.2,10.6C272.5,844.5,270.5,845.3,268.6,845.3z"/>
</g>
<g>
	
		<ellipse transform="matrix(0.9797 -0.2003 0.2003 0.9797 -137.8915 63.8796)" class="st5" cx="246.7" cy="713.4" rx="7.8" ry="7.8"/>
</g>
<circle class="st4" cx="462.5" cy="384.6" r="18.1"/>
<circle class="st4" cx="581" cy="384.6" r="18.1"/>
</svg>
